STARTFONT 2.1
FONT -Adobe-Utopia-Regular-I-Normal--33-240-100-100-P-179-ISO10646-1
SIZE 24 100 100
FONTBOUNDINGBOX 46 54 -6 -17
COMMENT $Xorg: $
COMMENT ISO10646-1 extension by Markus Kuhn <mkuhn@acm.org>, 2001-03-20
STARTPROPERTIES 28
FOUNDRY "Adobe"
FAMILY_NAME "Utopia"
WEIGHT_NAME "Regular"
SLANT "I"
SETWIDTH_NAME "Normal"
ADD_STYLE_NAME ""
PIXEL_SIZE 33
POINT_SIZE 240
RESOLUTION_X 100
RESOLUTION_Y 100
SPACING "P"
AVERAGE_WIDTH 179
CHARSET_REGISTRY "ISO10646"
CHARSET_ENCODING "1"
CAP_HEIGHT 23
X_HEIGHT 16
RELATIVE_SETWIDTH 50
RELATIVE_WEIGHT 50
WEIGHT 130
FACE_NAME "Utopia Italic"
COPYRIGHT "Copyright (c) 1989, 1991 Adobe Systems Incorporated.  All Rights Reserved."
NOTICE "Utopia is a registered trademark of Adobe Systems Incorporated."
DESTINATION 0
FONT_ASCENT 31
FONT_DESCENT 8
DEFAULT_CHAR 0
_ADOBE_PSFONT "Utopia-Italic"
_DEC_DEVICE_FONTNAMES "PS=Utopia-Italic"
ENDPROPERTIES
CHARS 723
STARTCHAR char0
ENCODING 0
SWIDTH 775 0
DWIDTH 26 0
BBX 27 23 2 0
BITMAP
AAAAAAA0
00000000
80000020
00000000
80000020
00000000
80000020
00000000
80000020
00000000
80000020
00000000
80000020
00000000
80000020
00000000
80000020
00000000
80000020
00000000
80000020
00000000
AAAAAAA0
ENDCHAR
STARTCHAR space
ENCODING 32
SWIDTH 225 0
DWIDTH 8 0
BBX 0 0 0 0
BITMAP
ENDCHAR
STARTCHAR exclam
ENCODING 33
SWIDTH 240 0
DWIDTH 8 0
BBX 9 24 2 0
BITMAP
0300
0780
0780
0700
0F00
0F00
0E00
0E00
0E00
0C00
0C00
0C00
1800
1800
1800
1000
1000
0000
0000
0000
7000
F000
F000
6000
ENDCHAR
STARTCHAR quotedbl
ENCODING 34
SWIDTH 402 0
DWIDTH 13 0
BBX 9 9 7 16
BITMAP
6380
6380
E380
E300
C300
C200
C200
8600
8400
ENDCHAR
STARTCHAR numbersign
ENCODING 35
SWIDTH 530 0
DWIDTH 18 0
BBX 18 22 3 0
BITMAP
006180
00C100
00C300
008300
018200
018600
010600
1FFFC0
3FFF80
060C00
061800
0C1800
7FFF00
FFFE00
183000
186000
186000
306000
30C000
30C000
608000
618000
ENDCHAR
STARTCHAR dollar
ENCODING 36
SWIDTH 530 0
DWIDTH 18 0
BBX 17 30 3 -4
BITMAP
000800
001000
001000
00F800
032F00
062780
0C2380
0C2300
1C6000
1C4000
0E4000
0F4000
0FC000
03E000
01F000
00FC00
00FC00
019E00
019E00
010E00
410E00
C10C00
E30C00
F21800
7A3000
0FC000
060000
060000
040000
040000
ENDCHAR
STARTCHAR percent
ENCODING 37
SWIDTH 826 0
DWIDTH 28 0
BBX 24 24 4 -1
BITMAP
078006
1CE00C
387FF8
707030
707030
707060
E070C0
E06180
E0E300
60E600
61CC00
739878
1E19CE
003386
006707
00C707
018E07
030E07
060E0E
040E0E
0C061C
180738
3001E0
200000
ENDCHAR
STARTCHAR ampersand
ENCODING 38
SWIDTH 725 0
DWIDTH 24 0
BBX 22 23 3 0
BITMAP
007800
01CE00
038600
030700
070700
070700
070E00
039C00
03B808
03E01C
03C03C
0DE038
38E030
70F070
607860
E03CC0
E01D80
E00F00
E00F00
700F80
7C1BC0
3FE0F0
070038
ENDCHAR
STARTCHAR quotesingle
ENCODING 39
SWIDTH 216 0
DWIDTH 7 0
BBX 4 9 6 16
BITMAP
70
70
E0
E0
E0
C0
C0
C0
80
ENDCHAR
STARTCHAR parenleft
ENCODING 40
SWIDTH 350 0
DWIDTH 12 0
BBX 11 27 5 -3
BITMAP
0060
01C0
0300
0600
0C00
1C00
1800
3800
3000
3000
6000
6000
6000
6000
E000
C000
C000
C000
C000
C000
C000
C000
6000
6000
6000
3000
1800
ENDCHAR
STARTCHAR parenright
ENCODING 41
SWIDTH 350 0
DWIDTH 12 0
BBX 11 28 0 -4
BITMAP
0200
0380
0180
00C0
00C0
0060
0060
0060
0060
0060
0060
0060
0060
00E0
00C0
00C0
00C0
01C0
0180
0180
0380
0300
0700
0600
0C00
1800
7000
8000
ENDCHAR
STARTCHAR asterisk
ENCODING 42
SWIDTH 412 0
DWIDTH 14 0
BBX 12 12 5 12
BITMAP
0300
0300
2320
7270
3BE0
0700
0F00
75C0
E4E0
4C40
0C00
0C00
ENDCHAR
STARTCHAR plus
ENCODING 43
SWIDTH 570 0
DWIDTH 19 0
BBX 16 17 3 0
BITMAP
0180
0180
0180
0180
0180
0180
0180
0180
FFFF
FFFF
0180
0180
0180
0180
0180
0180
0180
ENDCHAR
STARTCHAR comma
ENCODING 44
SWIDTH 265 0
DWIDTH 9 0
BBX 5 9 2 -4
BITMAP
30
78
38
38
30
30
60
C0
80
ENDCHAR
STARTCHAR hyphen
ENCODING 45
SWIDTH 392 0
DWIDTH 13 0
BBX 9 2 4 7
BITMAP
7F80
FF00
ENDCHAR
STARTCHAR period
ENCODING 46
SWIDTH 265 0
DWIDTH 9 0
BBX 4 4 3 0
BITMAP
60
F0
F0
60
ENDCHAR
STARTCHAR slash
ENCODING 47
SWIDTH 270 0
DWIDTH 9 0
BBX 11 24 1 0
BITMAP
0060
00C0
00C0
01C0
0180
0180
0380
0300
0300
0700
0600
0600
0C00
0C00
1C00
1800
1800
3800
3000
3000
7000
6000
6000
C000
ENDCHAR
STARTCHAR zero
ENCODING 48
SWIDTH 530 0
DWIDTH 18 0
BBX 16 23 3 0
BITMAP
00F0
030C
0606
0E06
1C07
3C07
3807
3807
7007
7007
700F
700E
F00E
E00E
E00E
E01C
E01C
E03C
E038
6030
7070
30E0
0F80
ENDCHAR
STARTCHAR one
ENCODING 49
SWIDTH 530 0
DWIDTH 18 0
BBX 12 23 4 0
BITMAP
0070
07F0
01E0
00E0
00E0
00E0
00E0
01C0
01C0
01C0
01C0
0380
0380
0380
0380
0380
0700
0700
0700
0700
0E00
0E00
FFE0
ENDCHAR
STARTCHAR two
ENCODING 50
SWIDTH 530 0
DWIDTH 18 0
BBX 18 23 1 0
BITMAP
007E00
01C300
078180
0701C0
0F01C0
0E01C0
0401C0
0001C0
000380
000780
000F00
001E00
003800
007000
01C000
038000
060000
0C0000
180000
300100
700200
FFFE00
FFFE00
ENDCHAR
STARTCHAR three
ENCODING 51
SWIDTH 530 0
DWIDTH 18 0
BBX 17 23 2 0
BITMAP
00F800
03C700
070300
070380
060380
040380
000380
000700
000700
001C00
07E000
003800
001C00
000E00
000E00
000E00
000E00
400E00
E00C00
E01C00
703800
387000
0FC000
ENDCHAR
STARTCHAR four
ENCODING 52
SWIDTH 530 0
DWIDTH 18 0
BBX 16 23 2 0
BITMAP
0007
0007
000F
001E
003E
006E
00CE
008E
018C
031C
061C
0C1C
181C
1818
3038
7FFF
FFFF
0038
0030
0070
0070
0070
07FC
ENDCHAR
STARTCHAR five
ENCODING 53
SWIDTH 530 0
DWIDTH 18 0
BBX 18 23 2 0
BITMAP
03FFC0
03FF80
020000
060000
060000
060000
040000
0C0000
0C0000
0CF000
0BFC00
0C1E00
180E00
000F00
000700
000700
000700
000600
600E00
E00C00
701C00
383000
0FC000
ENDCHAR
STARTCHAR six
ENCODING 54
SWIDTH 530 0
DWIDTH 18 0
BBX 17 23 3 0
BITMAP
00FC00
038F00
070780
0E0380
1C0300
1C0000
380000
380000
700000
70E000
77F800
7C3C00
701C00
F00E00
E00E00
E00E00
E00E00
E00E00
E01C00
601C00
703800
387000
0F8000
ENDCHAR
STARTCHAR seven
ENCODING 55
SWIDTH 530 0
DWIDTH 18 0
BBX 16 23 5 0
BITMAP
7FFF
7FFF
400E
C00E
001C
0018
0038
0070
00C0
0080
0180
0300
0600
0600
0C00
1C00
3800
3800
3800
7800
7000
7000
7000
ENDCHAR
STARTCHAR eight
ENCODING 56
SWIDTH 530 0
DWIDTH 18 0
BBX 16 23 3 0
BITMAP
01F8
071C
0E06
0E07
1E07
1C07
1C07
1C0E
0C0E
0618
07F0
1C38
381C
701C
700E
E00E
E00E
E00E
E01C
F01C
7038
3870
0FC0
ENDCHAR
STARTCHAR nine
ENCODING 57
SWIDTH 530 0
DWIDTH 18 0
BBX 16 23 3 0
BITMAP
03F0
0E18
1C0E
380E
3006
7007
7007
7007
7007
7807
380F
3C16
1FEE
078E
000E
001E
001C
001C
6038
E078
F070
71E0
0F00
ENDCHAR
STARTCHAR colon
ENCODING 58
SWIDTH 265 0
DWIDTH 9 0
BBX 7 17 3 0
BITMAP
0C
1E
1E
1C
00
00
00
00
00
00
00
00
00
70
F0
F0
60
ENDCHAR
STARTCHAR semicolon
ENCODING 59
SWIDTH 265 0
DWIDTH 9 0
BBX 8 21 1 -4
BITMAP
06
0F
0F
0E
00
00
00
00
00
00
00
08
1C
3C
1C
1C
18
10
20
40
80
ENDCHAR
STARTCHAR less
ENCODING 60
SWIDTH 570 0
DWIDTH 19 0
BBX 16 17 3 0
BITMAP
0001
0007
001F
00FC
03E0
0F80
3E00
F000
C000
F000
7C00
0F80
03E0
00F8
001F
0007
0001
ENDCHAR
STARTCHAR equal
ENCODING 61
SWIDTH 570 0
DWIDTH 19 0
BBX 16 9 3 4
BITMAP
FFFF
FFFF
0000
0000
0000
0000
0000
FFFF
FFFF
ENDCHAR
STARTCHAR greater
ENCODING 62
SWIDTH 570 0
DWIDTH 19 0
BBX 16 17 3 0
BITMAP
8000
E000
F800
3F00
07C0
01F0
007C
000F
0003
000F
003E
01F0
07C0
1F00
F800
E000
8000
ENDCHAR
STARTCHAR question
ENCODING 63
SWIDTH 425 0
DWIDTH 14 0
BBX 11 24 5 0
BITMAP
1F00
79C0
70C0
E0E0
60E0
01E0
01E0
03C0
0780
0F00
1C00
3800
7000
6000
E000
F000
7E00
3000
0000
0000
7000
F000
F000
6000
ENDCHAR
STARTCHAR at
ENCODING 64
SWIDTH 794 0
DWIDTH 26 0
BBX 24 24 4 0
BITMAP
001F00
00F0E0
038030
070008
0E000C
1C0006
3807C2
3838C2
7070C3
70E1C3
60C183
61C383
E1C382
E38706
E38B04
E39B0C
61E310
70C1E0
700000
380000
1C0000
0E0000
03C1C0
007E00
ENDCHAR
STARTCHAR A
ENCODING 65
SWIDTH 624 0
DWIDTH 21 0
BBX 23 24 -1 0
BITMAP
0001C0
0001C0
0003C0
0003C0
0007C0
0005C0
000DE0
0008E0
0018E0
0030E0
0030E0
0060E0
0040E0
00C0E0
00FFE0
018070
010070
030070
060070
060070
0C0070
0C0070
180078
FF03FE
ENDCHAR
STARTCHAR B
ENCODING 66
SWIDTH 632 0
DWIDTH 21 0
BBX 20 24 2 0
BITMAP
0FFF80
01C1E0
01C0E0
01C070
038070
038070
038070
038070
0380E0
0701C0
070780
07FC00
070F00
0703C0
0E01C0
0E01E0
0E01E0
0E01E0
0E01E0
1C01C0
1C03C0
1C0780
1C0E00
FFF000
ENDCHAR
STARTCHAR C
ENCODING 67
SWIDTH 661 0
DWIDTH 22 0
BBX 21 24 4 0
BITMAP
003FC0
01E078
038038
0F0018
0E0010
1C0010
3C0010
3C0000
780000
780000
700000
F00000
F00000
F00000
F00000
F00000
F00000
700020
700040
3800C0
3800C0
1C0180
070780
00FE00
ENDCHAR
STARTCHAR D
ENCODING 68
SWIDTH 763 0
DWIDTH 25 0
BBX 26 24 1 0
BITMAP
07FFE000
00F07800
00E01E00
00E00700
01E00700
01C00380
01C00380
01C00380
03C003C0
038003C0
038003C0
038003C0
038003C0
07800380
07000780
07000780
07000F00
07000F00
0F001E00
0E001C00
0E007800
0E00F000
1E03C000
FFFE0000
ENDCHAR
STARTCHAR E
ENCODING 69
SWIDTH 596 0
DWIDTH 20 0
BBX 22 24 1 0
BITMAP
07FFFC
00E01C
00E00C
00E008
00C008
01C008
01C000
01C000
01C040
01C040
0380C0
03FFC0
0381C0
030080
070080
070000
070000
070000
060020
0E0060
0E0040
0E00C0
1E01C0
FFFFC0
ENDCHAR
STARTCHAR F
ENCODING 70
SWIDTH 571 0
DWIDTH 19 0
BBX 21 24 2 0
BITMAP
0FFFF8
01C038
01C018
01C010
01C010
038010
038000
038000
038000
038080
070080
070180
07FF80
070300
0F0100
0E0100
0E0000
0E0000
0E0000
1C0000
1C0000
1C0000
1C0000
FF8000
ENDCHAR
STARTCHAR G
ENCODING 71
SWIDTH 709 0
DWIDTH 24 0
BBX 22 24 4 0
BITMAP
001FE0
01E07C
038038
070018
0E0018
1C0010
1C0010
380000
380000
780000
700000
700000
700000
F00000
F007FC
F000F0
F000E0
7000E0
7000E0
7801E0
3801C0
1C01C0
0F03C0
01FC00
ENDCHAR
STARTCHAR H
ENCODING 72
SWIDTH 775 0
DWIDTH 26 0
BBX 28 24 2 0
BITMAP
07FC1FF0
01E00780
01E00780
01C00700
01C00700
01C00700
01C00700
03C00F00
03800E00
03800E00
03800E00
03FFFE00
07001C00
07001C00
07001C00
07001C00
0F003C00
0E003800
0E003800
0E003800
0E003800
1E007800
1E007800
FF83FE00
ENDCHAR
STARTCHAR I
ENCODING 73
SWIDTH 345 0
DWIDTH 12 0
BBX 14 24 1 0
BITMAP
07FC
01E0
01E0
01C0
01C0
01C0
01C0
03C0
0380
0380
0380
0380
0700
0700
0700
0700
0F00
0E00
0E00
0E00
0E00
1E00
1E00
FF80
ENDCHAR
STARTCHAR J
ENCODING 74
SWIDTH 352 0
DWIDTH 12 0
BBX 17 28 -1 -4
BITMAP
00FF80
003C00
003C00
003800
003800
003800
003800
007000
007000
007000
007000
00F000
00E000
00E000
00E000
00E000
01C000
01C000
01C000
01C000
03C000
038000
038000
078000
070000
0E0000
3C0000
F00000
ENDCHAR
STARTCHAR K
ENCODING 75
SWIDTH 650 0
DWIDTH 22 0
BBX 26 24 1 0
BITMAP
07FC7FC0
01E01E00
01E03800
01C07000
01C0C000
01C18000
01C30000
03860000
038C0000
03B00000
03F00000
03F00000
07F80000
07380000
073C0000
071C0000
0F1E0000
0E0F0000
0E0F0000
0E078000
0E038000
1E03C000
1E01F000
FF807800
ENDCHAR
STARTCHAR L
ENCODING 76
SWIDTH 565 0
DWIDTH 19 0
BBX 19 24 1 0
BITMAP
07FC00
00E000
00E000
01E000
01C000
01C000
01C000
01C000
038000
038000
038000
038000
078000
070000
070000
070000
070000
0F0000
0E0020
0E0040
0E0040
1E00C0
1E03C0
FFFF80
ENDCHAR
STARTCHAR M
ENCODING 77
SWIDTH 920 0
DWIDTH 31 0
BBX 34 24 1 0
BITMAP
07F0001FC0
00F0003E00
00F0003C00
00B8007C00
00B800DC00
01B800B800
01B801B800
0138013800
011C033800
031C023800
031C047000
031C0C7000
021C087000
020E187000
060E107000
060E20E000
060E60E000
040E40E000
0C07C0E000
0C0780C000
0C0701C000
0C0701C000
1C0601C000
FF040FF800
ENDCHAR
STARTCHAR N
ENCODING 78
SWIDTH 763 0
DWIDTH 25 0
BBX 29 24 1 0
BITMAP
07E007F8
00F001C0
00F00180
00F80180
00B80180
013C0180
011C0100
011C0300
010E0300
030E0300
030F0200
02070200
02078600
02038600
0603C600
0601C400
0601C400
0401EC00
0C00EC00
0C00F800
0C007800
0C007800
1C003800
FF003800
ENDCHAR
STARTCHAR O
ENCODING 79
SWIDTH 753 0
DWIDTH 25 0
BBX 23 24 4 0
BITMAP
003F00
01E0E0
038070
070038
0E001C
1E001C
3C001C
3C001C
38001E
78001E
78001E
70001E
F0001E
F0003C
F0003C
F00038
F00038
700078
700070
7800E0
3801E0
1C03C0
0E0700
01F800
ENDCHAR
STARTCHAR P
ENCODING 80
SWIDTH 614 0
DWIDTH 20 0
BBX 21 24 2 0
BITMAP
0FFE00
01C1C0
01C0E0
01C070
01C070
038078
038078
038078
038070
038070
0700F0
0700E0
0701C0
070780
0FFC00
0E0000
0E0000
0E0000
0E0000
1C0000
1C0000
1C0000
1C0000
FF8000
ENDCHAR
STARTCHAR Q
ENCODING 81
SWIDTH 753 0
DWIDTH 25 0
BBX 23 31 4 -7
BITMAP
003F00
01E0E0
038070
070038
0E001C
1E001C
3C001C
3C001C
38001E
78001E
78001E
70001E
F0001E
F0003C
F0003C
F00038
F00038
700078
700070
7800E0
3801E0
1C03C0
0E0700
01FC00
007000
007800
003C00
001E00
001F00
0007C0
0001F0
ENDCHAR
STARTCHAR R
ENCODING 82
SWIDTH 640 0
DWIDTH 21 0
BBX 21 24 2 0
BITMAP
0FFF80
01E1E0
01C0F0
01C070
01C078
038078
038078
038070
038070
0380E0
0701C0
070600
07FF00
070700
0F0780
0E0380
0E0380
0E0380
0E0380
1C0380
1C0380
1C0380
1C01C0
FF80F0
ENDCHAR
STARTCHAR S
ENCODING 83
SWIDTH 533 0
DWIDTH 18 0
BBX 17 24 2 0
BITMAP
007E00
018380
030180
070180
0E0180
0E0100
0E0000
0F0000
0F8000
07C000
03F000
01F800
007C00
003E00
001E00
000F00
400700
400700
400700
600600
E00E00
F00C00
7C3800
07C000
ENDCHAR
STARTCHAR T
ENCODING 84
SWIDTH 606 0
DWIDTH 20 0
BBX 20 24 5 0
BITMAP
7FFFF0
707070
607030
40F020
C0E020
80E020
00E000
01E000
01C000
01C000
01C000
01C000
03C000
038000
038000
038000
038000
078000
070000
070000
070000
0F0000
0F0000
7FE000
ENDCHAR
STARTCHAR U
ENCODING 85
SWIDTH 794 0
DWIDTH 26 0
BBX 25 24 6 0
BITMAP
FF81FF80
1C003C00
1C003800
1C003800
3C003800
38007800
38007000
38007000
38007000
7000F000
7000E000
7000E000
7000E000
7000E000
E001C000
E001C000
E001C000
E0038000
E0038000
E0038000
70070000
700E0000
383C0000
0FF00000
ENDCHAR
STARTCHAR V
ENCODING 86
SWIDTH 637 0
DWIDTH 21 0
BBX 23 24 4 0
BITMAP
FF81FE
3C0038
1C0070
1C0060
1C00E0
1C00C0
1C0180
1C0180
1C0300
1C0300
0E0600
0E0400
0E0C00
0E0800
0E1800
0E1000
0E3000
0E6000
076000
07C000
078000
078000
070000
070000
ENDCHAR
STARTCHAR W
ENCODING 87
SWIDTH 946 0
DWIDTH 32 0
BBX 33 24 4 0
BITMAP
FF80007F80
3C00E00E00
3C00E00C00
1C01E01800
1C01E01800
1C02E03000
1C02E03000
1C04E02000
1C04E06000
1C08E04000
1C08E0C000
1E10E08000
1E10E18000
1E20E18000
1E20E30000
1E40730000
1E40720000
0E80760000
0E80740000
0F007C0000
0F00780000
0E00780000
0E00700000
0C00700000
ENDCHAR
STARTCHAR X
ENCODING 88
SWIDTH 632 0
DWIDTH 21 0
BBX 26 24 0 0
BITMAP
07FC3FC0
01E00F00
00E01C00
00701800
00703000
00786000
0038C000
0038C000
001D8000
001F0000
001E0000
000E0000
001E0000
00170000
00370000
00678000
00C38000
0183C000
0181C000
0301C000
0601E000
0E00E000
1C00F000
FF87FE00
ENDCHAR
STARTCHAR Y
ENCODING 89
SWIDTH 591 0
DWIDTH 20 0
BBX 22 24 4 0
BITMAP
FF03FC
3C0070
1C0060
1C00C0
0E0180
0E0380
0E0300
0E0600
070C00
071800
071800
03B000
03E000
03C000
03C000
038000
038000
038000
038000
070000
070000
070000
070000
7FF000
ENDCHAR
STARTCHAR Z
ENCODING 90
SWIDTH 622 0
DWIDTH 21 0
BBX 24 24 1 0
BITMAP
01FFFF
01C01E
03003C
030078
0200F0
0201F0
0001E0
0003C0
000780
000F00
001E00
003C00
007800
007000
00F000
01E000
03C000
078000
0F0008
0F0010
1E0010
3C0030
7800E0
FFFFE0
ENDCHAR
STARTCHAR bracketleft
ENCODING 91
SWIDTH 330 0
DWIDTH 11 0
BBX 12 28 3 -4
BITMAP
03F0
0380
0300
0300
0700
0600
0600
0600
0600
0C00
0C00
0C00
0C00
1C00
1800
1800
1800
1800
3000
3000
3000
3000
7000
6000
6000
6000
E000
FC00
ENDCHAR
STARTCHAR backslash
ENCODING 92
SWIDTH 390 0
DWIDTH 13 0
BBX 9 24 4 0
BITMAP
C000
E000
6000
6000
7000
3000
3000
3000
3800
1800
1800
1800
0C00
0C00
0C00
0E00
0600
0600
0600
0700
0300
0300
0380
0180
ENDCHAR
STARTCHAR bracketright
ENCODING 93
SWIDTH 330 0
DWIDTH 11 0
BBX 12 28 0 -4
BITMAP
03F0
0070
0060
0060
0060
00E0
00C0
00C0
00C0
00C0
0180
0180
0180
0180
0380
0300
0300
0300
0300
0600
0600
0600
0600
0E00
0C00
0C00
1C00
FC00
ENDCHAR
STARTCHAR asciicircum
ENCODING 94
SWIDTH 570 0
DWIDTH 19 0
BBX 15 14 4 9
BITMAP
0380
0380
06C0
06C0
0E60
0C60
1C70
1830
1830
3018
3018
701C
600C
E00E
ENDCHAR
STARTCHAR underscore
ENCODING 95
SWIDTH 500 0
DWIDTH 17 0
BBX 17 2 0 -4
BITMAP
FFFF80
FFFF80
ENDCHAR
STARTCHAR grave
ENCODING 96
SWIDTH 400 0
DWIDTH 13 0
BBX 7 6 6 18
BITMAP
40
E0
70
38
0C
02
ENDCHAR
STARTCHAR a
ENCODING 97
SWIDTH 561 0
DWIDTH 19 0
BBX 18 17 2 0
BITMAP
007DC0
01C380
070380
0E0380
1C0700
1C0700
380700
380F00
700E00
701E00
E01E00
E02E00
E04C40
E09C80
E31D80
7E1F00
300C00
ENDCHAR
STARTCHAR b
ENCODING 98
SWIDTH 559 0
DWIDTH 19 0
BBX 17 25 3 0
BITMAP
038000
1F8000
070000
070000
070000
070000
060000
0E0000
0E0E00
0E3F00
0C4300
1C8380
1D0380
1F0380
1A0380
3C0380
3C0700
380700
380600
380E00
780C00
781C00
783800
5C7000
C7C000
ENDCHAR
STARTCHAR c
ENCODING 99
SWIDTH 441 0
DWIDTH 15 0
BBX 14 17 3 0
BITMAP
00F0
073C
0C1C
181C
3810
3000
7000
6000
6000
E000
E000
E010
E010
E020
70C0
7F80
1C00
ENDCHAR
STARTCHAR d
ENCODING 100
SWIDTH 587 0
DWIDTH 20 0
BBX 18 25 3 0
BITMAP
0000C0
000FC0
0001C0
0001C0
000380
000380
000380
000380
00FF00
038700
060700
0C0F00
1C0E00
380E00
381E00
701E00
701C00
603C00
E05C00
E05C00
E09880
E13900
E33B00
7C3E00
301800
ENDCHAR
STARTCHAR e
ENCODING 101
SWIDTH 453 0
DWIDTH 15 0
BBX 14 17 3 0
BITMAP
00F0
0718
0C1C
181C
381C
3038
7070
61E0
EF00
F800
E000
E010
E010
F020
70C0
7F80
1C00
ENDCHAR
STARTCHAR f
ENCODING 102
SWIDTH 315 0
DWIDTH 11 0
BBX 20 33 -2 -8
BITMAP
0003C0
000CE0
001C70
001820
001800
003800
003800
007000
03FF00
007000
007000
00F000
00E000
00E000
00E000
00E000
00C000
01C000
01C000
01C000
01C000
018000
038000
038000
038000
030000
030000
030000
060000
060000
E60000
E40000
780000
ENDCHAR
STARTCHAR g
ENCODING 103
SWIDTH 499 0
DWIDTH 17 0
BBX 19 25 1 -8
BITMAP
00F0E0
070FC0
0E0600
0E0700
1E0700
1C0700
1C0F00
1C0E00
0C0E00
0E1C00
03F000
0C0000
1C0000
1E0000
0FC000
07F000
1DFC00
701E00
600F00
E00700
E00700
E00600
700E00
3C3C00
0FE000
ENDCHAR
STARTCHAR h
ENCODING 104
SWIDTH 607 0
DWIDTH 20 0
BBX 17 25 3 0
BITMAP
038000
1F8000
078000
070000
070000
070000
070000
0E0000
0E0700
0E1F80
0E6380
0CC380
1C8380
1D0700
1E0700
1A0700
3C0E00
3C0E00
381C00
381C00
781880
703900
703B00
703E00
E01800
ENDCHAR
STARTCHAR i
ENCODING 105
SWIDTH 317 0
DWIDTH 11 0
BBX 8 24 4 0
BITMAP
06
0F
0F
06
00
00
00
0E
FC
1C
1C
1C
38
38
38
30
70
70
70
62
E4
EC
F8
60
ENDCHAR
STARTCHAR j
ENCODING 106
SWIDTH 309 0
DWIDTH 10 0
BBX 14 32 -2 -8
BITMAP
0018
003C
003C
0018
0000
0000
0000
0038
03F0
0070
0070
0070
0070
00E0
00E0
00E0
00E0
00C0
01C0
01C0
01C0
01C0
0380
0380
0380
0380
0300
0700
0700
C600
E600
7800
ENDCHAR
STARTCHAR k
ENCODING 107
SWIDTH 545 0
DWIDTH 18 0
BBX 17 25 3 0
BITMAP
038000
1F8000
070000
070000
070000
070000
0E0000
0E0000
0E0380
0E0F80
0C3F00
1C7000
1CC000
1D8000
1D0000
3F8000
3B8000
3B8000
3BC000
71C000
71C100
70E200
70F600
E07C00
E03800
ENDCHAR
STARTCHAR l
ENCODING 108
SWIDTH 306 0
DWIDTH 10 0
BBX 8 25 4 0
BITMAP
03
3F
07
07
0E
0E
0E
0E
1C
1C
1C
1C
38
38
38
38
30
70
70
70
62
E4
EC
F8
60
ENDCHAR
STARTCHAR m
ENCODING 109
SWIDTH 912 0
DWIDTH 30 0
BBX 27 17 4 0
BITMAP
0E0E0380
7E3F0FC0
1C4731C0
1C8721C0
1D0641C0
1A068180
3E0F8380
3C0F0380
380E0380
380E0700
701C0700
701C0700
701C0620
60380E40
E0380EC0
E0380F80
C0300600
ENDCHAR
STARTCHAR n
ENCODING 110
SWIDTH 618 0
DWIDTH 21 0
BBX 18 17 3 0
BITMAP
070700
7E1F80
0E6380
0E4380
0E8380
1D0300
1E0700
1E0700
1C0700
3C0E00
380E00
380E00
380C40
701C80
701D80
701F00
E00C00
ENDCHAR
STARTCHAR o
ENCODING 111
SWIDTH 537 0
DWIDTH 18 0
BBX 15 17 3 0
BITMAP
01F0
0718
1C0C
1C0E
380E
700E
700E
701E
F01E
E01C
E01C
E03C
E038
E078
7070
38E0
1F00
ENDCHAR
STARTCHAR p
ENCODING 112
SWIDTH 590 0
DWIDTH 20 0
BBX 18 25 3 -8
BITMAP
070700
3F1F80
0E3380
0E41C0
0E81C0
0F81C0
0D01C0
1E01C0
1E0380
1C0380
1C0300
3C0700
380600
380E00
381C00
3C3800
77E000
700000
700000
700000
600000
E00000
E00000
E00000
C00000
ENDCHAR
STARTCHAR q
ENCODING 113
SWIDTH 559 0
DWIDTH 19 0
BBX 17 26 3 -8
BITMAP
000080
00F980
038780
060780
0E0700
1C0700
380F00
380F00
700E00
701E00
601E00
E03E00
E05C00
E0DC00
E19C00
F31C00
7C3800
303800
003800
003800
007000
007000
007000
007000
006000
00C000
ENDCHAR
STARTCHAR r
ENCODING 114
SWIDTH 402 0
DWIDTH 13 0
BBX 13 17 3 0
BITMAP
0E38
7E78
0CF8
0D10
1E00
1E00
1C00
1C00
3800
3800
3800
3000
7000
7000
7000
6000
E000
ENDCHAR
STARTCHAR s
ENCODING 115
SWIDTH 389 0
DWIDTH 13 0
BBX 13 17 2 0
BITMAP
03C0
0C70
0838
1830
1800
1C00
0E00
0F00
0780
03C0
01C0
01E0
60E0
E0E0
F0C0
7180
1E00
ENDCHAR
STARTCHAR t
ENCODING 116
SWIDTH 341 0
DWIDTH 11 0
BBX 11 21 4 0
BITMAP
0200
0600
0E00
0C00
FFE0
1C00
1C00
3800
3800
3800
3800
3000
7000
7000
7000
7100
E200
E200
EC00
F800
6000
ENDCHAR
STARTCHAR u
ENCODING 117
SWIDTH 618 0
DWIDTH 21 0
BBX 17 17 4 0
BITMAP
0C0380
FC0700
1C0700
1C0700
380E00
380E00
380E00
301E00
701C00
703C00
703C00
605C00
E09880
E13900
E33B00
FC3E00
701800
ENDCHAR
STARTCHAR v
ENCODING 118
SWIDTH 510 0
DWIDTH 17 0
BBX 15 17 4 0
BITMAP
3C04
FC0E
380E
380E
380C
380C
300C
7018
7010
7030
7020
E040
E080
E100
E200
FC00
7000
ENDCHAR
STARTCHAR w
ENCODING 119
SWIDTH 785 0
DWIDTH 26 0
BBX 24 17 4 0
BITMAP
1C0706
FC0E06
3C0E07
380E07
380E07
381C06
381C06
701C04
703C0C
703808
705818
E07810
E0B820
E13840
E23880
FC1F00
700E00
ENDCHAR
STARTCHAR x
ENCODING 120
SWIDTH 516 0
DWIDTH 17 0
BBX 18 17 1 0
BITMAP
008180
0783C0
1F8780
01CC00
01D800
01D000
00E000
00E000
00E000
00E000
016000
037000
027080
047100
FC3A00
F83E00
701800
ENDCHAR
STARTCHAR y
ENCODING 121
SWIDTH 468 0
DWIDTH 16 0
BBX 18 25 0 -8
BITMAP
0100C0
0F81C0
1F81C0
038180
038180
038180
038300
038300
038600
038600
018C00
01C800
01D800
01D000
01F000
01E000
01C000
01C000
018000
010000
030000
420000
E40000
FC0000
700000
ENDCHAR
STARTCHAR z
ENCODING 122
SWIDTH 468 0
DWIDTH 16 0
BBX 16 17 1 0
BITMAP
0FFF
0FFE
180C
1018
2030
0060
00C0
0180
0300
0600
0E02
1C06
3804
7F0C
7FFC
CFF8
C1F0
ENDCHAR
STARTCHAR braceleft
ENCODING 123
SWIDTH 340 0
DWIDTH 11 0
BBX 10 28 5 -4
BITMAP
00C0
0300
0600
0400
0C00
0C00
0C00
0C00
0C00
0C00
0C00
0800
1800
3000
E000
6000
3000
3000
7000
7000
6000
6000
6000
C000
C000
C000
6000
3800
ENDCHAR
STARTCHAR bar
ENCODING 124
SWIDTH 270 0
DWIDTH 9 0
BBX 2 24 6 0
BITMAP
C0
C0
C0
C0
C0
C0
C0
C0
C0
C0
C0
C0
C0
C0
C0
C0
C0
C0
C0
C0
C0
C0
C0
C0
ENDCHAR
STARTCHAR braceright
ENCODING 125
SWIDTH 340 0
DWIDTH 11 0
BBX 10 28 1 -4
BITMAP
0700
0180
00C0
00C0
00C0
0180
0180
0180
0300
0300
0300
0600
0600
0700
03C0
0300
0600
0C00
0C00
0C00
0C00
0C00
0C00
0C00
0800
1800
3000
C000
ENDCHAR
STARTCHAR asciitilde
ENCODING 126
SWIDTH 570 0
DWIDTH 19 0
BBX 14 5 5 6
BITMAP
0808
3F0C
7FF8
C1F0
4000
ENDCHAR
STARTCHAR space
ENCODING 160
SWIDTH 225 0
DWIDTH 8 0
BBX 0 0 0 0
BITMAP
ENDCHAR
STARTCHAR exclamdown
ENCODING 161
SWIDTH 240 0
DWIDTH 8 0
BBX 9 24 0 -7
BITMAP
0300
0780
0780
0700
0000
0000
0000
0400
0400
0C00
0C00
0C00
1800
1800
1800
3800
3800
3800
7800
7800
7000
F000
F000
6000
ENDCHAR
STARTCHAR cent
ENCODING 162
SWIDTH 530 0
DWIDTH 18 0
BBX 16 24 4 -1
BITMAP
0020
0020
0020
00F8
074E
0C4F
1847
38C2
70C0
7080
6080
E180
E180
E100
E100
E100
E30C
7218
3A70
1F80
0600
0400
0400
0400
ENDCHAR
STARTCHAR sterling
ENCODING 163
SWIDTH 530 0
DWIDTH 18 0
BBX 19 23 1 0
BITMAP
001E00
0063C0
00C1E0
01C0E0
0380C0
038000
038000
038000
038000
018000
01C000
01C000
1FFE00
01C000
01C000
01C000
018000
018000
030000
060100
0C0300
3FFE00
FFFE00
ENDCHAR
STARTCHAR currency
ENCODING 164
SWIDTH 530 0
DWIDTH 18 0
BBX 16 16 3 4
BITMAP
4002
E3C7
6FF6
3C3C
300C
300C
6006
6006
6006
6006
6006
300C
300C
3C3C
6FF6
E3C7
ENDCHAR
STARTCHAR yen
ENCODING 165
SWIDTH 530 0
DWIDTH 18 0
BBX 19 23 4 0
BITMAP
7F8FE0
1C0380
1C0300
0E0600
0E0600
0E0C00
0E0800
061800
073000
072000
076000
074000
7FFC00
038000
030000
070000
FFFC00
070000
070000
0E0000
0E0000
0E0000
7FC000
ENDCHAR
STARTCHAR brokenbar
ENCODING 166
SWIDTH 270 0
DWIDTH 9 0
BBX 2 24 6 0
BITMAP
C0
C0
C0
C0
C0
C0
C0
C0
C0
00
00
00
00
C0
C0
C0
C0
C0
C0
C0
C0
C0
C0
C0
ENDCHAR
STARTCHAR section
ENCODING 167
SWIDTH 530 0
DWIDTH 18 0
BBX 16 28 3 -4
BITMAP
0078
018E
0107
0302
0300
0F00
1B80
11C0
31E0
20F0
6078
603C
701C
700C
380E
3E06
1F06
0F84
03C4
01CC
00C8
0070
0060
4060
E060
E0C0
70C0
1F00
ENDCHAR
STARTCHAR dieresis
ENCODING 168
SWIDTH 400 0
DWIDTH 13 0
BBX 11 4 7 19
BITMAP
60C0
F1E0
F1E0
60C0
ENDCHAR
STARTCHAR copyright
ENCODING 169
SWIDTH 836 0
DWIDTH 28 0
BBX 24 24 4 0
BITMAP
001C00
01FFC0
03C1E0
0E0070
1C0018
18000C
303E0C
6061C6
60C0C6
61C042
438003
C38003
C38003
C38003
C38003
61C042
61C0C6
70E1C6
303E0C
180018
0E0038
0780E0
01FFC0
001C00
ENDCHAR
STARTCHAR ordfeminine
ENCODING 170
SWIDTH 425 0
DWIDTH 14 0
BBX 12 11 4 9
BITMAP
03E0
0C60
18E0
30E0
70C0
71C0
61C0
E280
E390
EDA0
71C0
ENDCHAR
STARTCHAR guillemotleft
ENCODING 171
SWIDTH 462 0
DWIDTH 15 0
BBX 13 13 4 1
BITMAP
0608
0410
0830
1860
30C0
61C0
E1C0
E1C0
70C0
30C0
3060
1820
0820
ENDCHAR
STARTCHAR logicalnot
ENCODING 172
SWIDTH 570 0
DWIDTH 19 0
BBX 16 10 3 3
BITMAP
FFFF
FFFF
0003
0003
0003
0003
0003
0003
0003
0003
ENDCHAR
STARTCHAR hyphen
ENCODING 173
SWIDTH 392 0
DWIDTH 13 0
BBX 9 2 4 7
BITMAP
7F80
FF00
ENDCHAR
STARTCHAR registered
ENCODING 174
SWIDTH 836 0
DWIDTH 28 0
BBX 24 24 4 0
BITMAP
001C00
01FF80
0381E0
0E0070
1C0018
18000C
31FE0C
606306
606186
606182
C06103
C06303
C07C03
C06303
C06303
606302
606186
706186
31F8CC
180018
0E0038
0780E0
01FFC0
001C00
ENDCHAR
STARTCHAR macron
ENCODING 175
SWIDTH 400 0
DWIDTH 13 0
BBX 10 2 8 20
BITMAP
7FC0
FF80
ENDCHAR
STARTCHAR degree
ENCODING 176
SWIDTH 400 0
DWIDTH 13 0
BBX 10 10 6 13
BITMAP
1E00
3F00
6180
E1C0
C0C0
C0C0
E1C0
6180
3F00
1E00
ENDCHAR
STARTCHAR plusminus
ENCODING 177
SWIDTH 570 0
DWIDTH 19 0
BBX 16 18 3 0
BITMAP
0180
0180
0180
0180
0180
0180
FFFF
FFFF
0180
0180
0180
0180
0180
0180
0000
0000
FFFF
FFFF
ENDCHAR
STARTCHAR twosuperior
ENCODING 178
SWIDTH 370 0
DWIDTH 12 0
BBX 13 14 2 9
BITMAP
03C0
0E70
0C38
1838
0038
0070
00F0
01C0
0700
0C00
1000
3030
7FE0
FFE0
ENDCHAR
STARTCHAR threesuperior
ENCODING 179
SWIDTH 370 0
DWIDTH 12 0
BBX 11 14 3 9
BITMAP
0700
18C0
30C0
20E0
00C0
01C0
1F00
0100
0180
01C0
C1C0
C180
6780
1E00
ENDCHAR
STARTCHAR acute
ENCODING 180
SWIDTH 400 0
DWIDTH 13 0
BBX 7 6 9 18
BITMAP
04
0E
1C
38
60
80
ENDCHAR
STARTCHAR mu
ENCODING 181
SWIDTH 618 0
DWIDTH 21 0
BBX 19 24 2 -7
BITMAP
0380E0
3F01C0
0701C0
0701C0
060380
060380
0E0380
0E0780
0C0700
0C0F00
1C0F00
1C1700
182620
384E40
38CEC0
3F0F80
2C0600
600000
600000
600000
600000
E00000
E00000
E00000
ENDCHAR
STARTCHAR paragraph
ENCODING 182
SWIDTH 560 0
DWIDTH 19 0
BBX 18 27 5 -3
BITMAP
01CFC0
0F8E00
1F8C00
3F8C00
7F9C00
7F9C00
7F1800
FF1800
FF3800
FF3800
FE3000
7E3000
7E3000
3E7000
0E7000
006000
006000
006000
00E000
00E000
00C000
00C000
00C000
01C000
01C000
018000
1F8000
ENDCHAR
STARTCHAR periodcentered
ENCODING 183
SWIDTH 265 0
DWIDTH 9 0
BBX 4 4 4 6
BITMAP
60
F0
F0
60
ENDCHAR
STARTCHAR cedilla
ENCODING 184
SWIDTH 400 0
DWIDTH 13 0
BBX 6 8 3 -8
BITMAP
18
10
30
38
1C
1C
18
F0
ENDCHAR
STARTCHAR onesuperior
ENCODING 185
SWIDTH 370 0
DWIDTH 12 0
BBX 8 14 4 9
BITMAP
07
1F
06
06
06
0E
0E
0C
0C
0C
1C
1C
18
FF
ENDCHAR
STARTCHAR ordmasculine
ENCODING 186
SWIDTH 389 0
DWIDTH 13 0
BBX 11 11 4 9
BITMAP
0700
18C0
30C0
70E0
70E0
E0E0
E1C0
E1C0
6180
6300
1C00
ENDCHAR
STARTCHAR guillemotright
ENCODING 187
SWIDTH 462 0
DWIDTH 15 0
BBX 13 13 2 1
BITMAP
2080
20C0
3060
1860
1870
1C38
1C38
1C30
1860
30C0
6080
4100
8300
ENDCHAR
STARTCHAR onequarter
ENCODING 188
SWIDTH 890 0
DWIDTH 30 0
BBX 23 25 5 -1
BITMAP
000008
06000C
1E0018
060030
060020
0E0040
0C00C0
0C0180
0C0100
0C0200
080600
180C0C
18081C
18102C
FE205C
006098
004118
008218
010638
010FFE
020030
040030
080070
0801FC
100000
ENDCHAR
STARTCHAR onehalf
ENCODING 189
SWIDTH 890 0
DWIDTH 30 0
BBX 24 25 4 -1
BITMAP
000010
060018
1E0030
060060
0600C0
0C0080
0C0180
0C0300
0C0600
0C0600
080C78
1818CE
1831C6
183187
FE6007
00C00E
00C00E
018038
030060
0600C0
060100
0C0306
1807FC
380FFC
100000
ENDCHAR
STARTCHAR threequarters
ENCODING 190
SWIDTH 890 0
DWIDTH 30 0
BBX 23 25 5 -1
BITMAP
000004
07000E
18C00C
30C018
20E038
00C070
01C060
1F00C0
010180
018380
01C700
C1C60C
C18C1C
679C2C
1E385C
003098
006198
00C318
01C218
0187FE
030030
060030
0C0030
0C00FC
080000
ENDCHAR
STARTCHAR questiondown
ENCODING 191
SWIDTH 425 0
DWIDTH 14 0
BBX 11 24 1 -7
BITMAP
00C0
01E0
01E0
01C0
0000
0000
0000
0180
0FC0
01E0
00E0
00C0
01C0
0300
0600
1C00
3800
7000
F000
E0C0
E0E0
E1C0
73C0
0F00
ENDCHAR
STARTCHAR Agrave
ENCODING 192
SWIDTH 624 0
DWIDTH 21 0
BBX 23 31 -1 0
BITMAP
001000
000C00
001F00
000F80
0003E0
000060
000000
000180
0003C0
0003C0
0007C0
0005C0
000DC0
0009C0
0019C0
0011C0
0031E0
0061E0
0060E0
00C0E0
0080E0
01FFE0
0100E0
0300F0
0200F0
0600F0
0C0070
0C0070
180070
380078
FE03FE
ENDCHAR
STARTCHAR Aacute
ENCODING 193
SWIDTH 624 0
DWIDTH 21 0
BBX 23 30 -1 0
BITMAP
000008
00003C
00007C
0001E0
000300
000000
000180
0003C0
0003C0
0007C0
0005C0
000DC0
0009C0
0019C0
0011C0
0031E0
0061E0
0060E0
00C0E0
0080E0
01FFE0
0100E0
0300F0
0200F0
0600F0
0C0070
0C0070
180070
380078
FE03FE
ENDCHAR
STARTCHAR Acircumflex
ENCODING 194
SWIDTH 624 0
DWIDTH 21 0
BBX 23 29 -1 0
BITMAP
000080
0001E0
0003F0
000E18
000808
000180
0003C0
0003C0
0007C0
0005C0
000DC0
0009C0
0019C0
0011C0
0031E0
0061E0
0060E0
00C0E0
0080E0
01FFE0
0100E0
0300F0
0200F0
0600F0
0C0070
0C0070
180070
380078
FE03FE
ENDCHAR
STARTCHAR Atilde
ENCODING 195
SWIDTH 624 0
DWIDTH 21 0
BBX 23 28 -1 0
BITMAP
0003C6
000FFC
0018F0
001000
0001C0
0001C0
0003C0
0003C0
0007C0
0005C0
000DE0
0008E0
0018E0
0030E0
0030E0
0060E0
0040E0
00C0E0
00FFE0
018070
010070
030070
060070
060070
0C0070
0C0070
180078
FF03FE
ENDCHAR
STARTCHAR Adieresis
ENCODING 196
SWIDTH 624 0
DWIDTH 21 0
BBX 23 28 -1 0
BITMAP
000C18
001E3C
001E3C
000C18
000180
0003C0
0003C0
0007C0
0005C0
000DC0
0009C0
0019C0
0011C0
0031E0
0020E0
0060E0
00C0E0
00C0E0
01FFE0
0100E0
0300E0
0200F0
060070
0C0070
0C0070
180070
380070
FE03FE
ENDCHAR
STARTCHAR Aring
ENCODING 197
SWIDTH 624 0
DWIDTH 21 0
BBX 23 29 -1 0
BITMAP
0001E0
000310
000618
000618
000630
0003E0
0001C0
0003C0
0007E0
0005E0
000DE0
0009E0
0018E0
0010E0
0030E0
0020E0
0060F0
00C0F0
00C0F0
01FFF0
010070
030070
020070
060070
0C0078
0C0078
180038
380078
FE03FE
ENDCHAR
STARTCHAR AE
ENCODING 198
SWIDTH 880 0
DWIDTH 29 0
BBX 34 24 -2 0
BITMAP
0001FFFFC0
00003701C0
00003F00C0
00006F0080
0000CE0080
0000CE0080
00018E0000
00031E0000
00061C0200
00061C0200
000C1C0600
001FFFFE00
00103C0E00
0030380400
0060380400
00C0380000
00C0780000
0180780000
0380700100
0300700300
0600700200
0E00F00600
1C00F00E00
FF87FFFE00
ENDCHAR
STARTCHAR Ccedilla
ENCODING 199
SWIDTH 661 0
DWIDTH 22 0
BBX 21 32 4 -8
BITMAP
003FC0
01E078
038038
0F0018
0E0010
1C0010
3C0010
3C0000
780000
780000
700000
F00000
F00000
F00000
F00000
F00000
F00000
700020
700040
7800C0
3800C0
1C0180
0F0780
01FE00
004000
008000
00C000
01E000
006000
007000
006000
03C000
ENDCHAR
STARTCHAR Egrave
ENCODING 200
SWIDTH 596 0
DWIDTH 20 0
BBX 22 31 1 0
BITMAP
002000
003800
003C00
003F00
000F80
000180
000000
07FFFC
00E01C
00E00C
00E008
00C008
01C008
01C000
01C000
01C040
01C040
0380C0
03FFC0
0381C0
030080
070080
070000
070000
070000
060020
0E0060
0E0040
0E00C0
1E01C0
FFFFC0
ENDCHAR
STARTCHAR Eacute
ENCODING 201
SWIDTH 596 0
DWIDTH 20 0
BBX 22 30 1 0
BITMAP
000020
0000F0
0001F0
000780
000C00
000000
07FFFC
00E01C
00E00C
00E008
00C008
01C008
01C000
01C000
01C040
01C040
0380C0
03FFC0
0381C0
030080
070080
070000
070000
070000
060020
0E0060
0E0040
0E00C0
1E01C0
FFFFC0
ENDCHAR
STARTCHAR Ecircumflex
ENCODING 202
SWIDTH 596 0
DWIDTH 20 0
BBX 22 29 1 0
BITMAP
000100
000780
000FC0
0038E0
006030
07FFFC
00E01C
00E00C
00E008
00C008
01C008
01C000
01C000
01C040
01C040
0380C0
03FFC0
0381C0
030080
070080
070000
070000
070000
060020
0E0060
0E0040
0E00C0
1E01C0
FFFFC0
ENDCHAR
STARTCHAR Edieresis
ENCODING 203
SWIDTH 596 0
DWIDTH 20 0
BBX 22 28 1 0
BITMAP
003060
0078F0
0078F0
003060
07FFFC
00E01C
00E00C
00E008
00C008
01C008
01C000
01C000
01C040
01C040
0380C0
03FFC0
0381C0
030080
070080
070000
070000
070000
060020
0E0060
0E0040
0E00C0
1E01C0
FFFFC0
ENDCHAR
STARTCHAR Igrave
ENCODING 204
SWIDTH 345 0
DWIDTH 12 0
BBX 14 31 1 0
BITMAP
0400
0300
07C0
03E0
00F0
0018
0000
07FC
01E0
01E0
01C0
01C0
01C0
01C0
03C0
0380
0380
0380
0380
0700
0700
0700
0700
0F00
0E00
0E00
0E00
0E00
1E00
1E00
FF80
ENDCHAR
STARTCHAR Iacute
ENCODING 205
SWIDTH 345 0
DWIDTH 12 0
BBX 15 30 1 0
BITMAP
0004
001E
003E
00F0
0180
0000
07FC
01E0
00E0
01E0
01C0
01C0
01C0
03C0
0380
0380
0380
0380
0780
0700
0700
0700
0700
0F00
0E00
0E00
0E00
1E00
1E00
FF80
ENDCHAR
STARTCHAR Icircumflex
ENCODING 206
SWIDTH 345 0
DWIDTH 12 0
BBX 15 29 1 0
BITMAP
0020
0070
01F8
038C
0602
07FC
01E0
01E0
01C0
01C0
01C0
01C0
03C0
0380
0380
0380
0380
0780
0700
0700
0700
0700
0E00
0E00
0E00
0E00
1E00
1E00
FF80
ENDCHAR
STARTCHAR Idieresis
ENCODING 207
SWIDTH 345 0
DWIDTH 12 0
BBX 15 28 2 0
BITMAP
060C
0F1E
0F1E
060C
0FFC
01E0
01C0
01C0
01C0
0380
0380
0380
0380
0780
0700
0700
0700
0700
0E00
0E00
0E00
0E00
1E00
1C00
1C00
1C00
1C00
FF80
ENDCHAR
STARTCHAR Eth
ENCODING 208
SWIDTH 770 0
DWIDTH 26 0
BBX 26 24 1 0
BITMAP
07FFE000
00F07800
00E01E00
00E00F00
01E00700
01C00380
01C00380
01C00380
01C003C0
03C003C0
038003C0
3FFC03C0
038003C0
07800380
07000780
07000700
07000F00
07000F00
0F001E00
0E003C00
0E007800
0E00F000
1E03C000
FFFE0000
ENDCHAR
STARTCHAR Ntilde
ENCODING 209
SWIDTH 763 0
DWIDTH 25 0
BBX 29 28 1 0
BITMAP
0003C600
000FFC00
00087800
00100000
07E007F8
00F001C0
00F00180
00F80180
00B80180
013C0180
011C0100
011C0300
010E0300
030E0300
030F0200
02070200
02078600
02038600
0603C600
0601C400
0601C400
0401EC00
0C00EC00
0C00F800
0C007800
0C007800
1C003800
FF003800
ENDCHAR
STARTCHAR Ograve
ENCODING 210
SWIDTH 753 0
DWIDTH 25 0
BBX 23 30 4 0
BITMAP
002000
007800
007E00
000F00
000180
000000
003F00
01E0E0
038070
070038
0E001C
1E001C
3C001C
3C001C
38001E
78001E
78001E
70001E
F0001E
F0003C
F0003C
F00038
F00038
700078
700070
7800E0
3801E0
1C03C0
0E0700
01F800
ENDCHAR
STARTCHAR Oacute
ENCODING 211
SWIDTH 753 0
DWIDTH 25 0
BBX 23 30 4 0
BITMAP
000060
0001E0
0003E0
000700
001800
000000
003F00
01E0E0
038070
070038
0E001C
1E001C
3C001C
3C001C
38001E
78001E
78001E
70001E
F0001E
F0003C
F0003C
F00038
F00038
700078
700070
7800E0
3801E0
1C03C0
0E0700
01F800
ENDCHAR
STARTCHAR Ocircumflex
ENCODING 212
SWIDTH 753 0
DWIDTH 25 0
BBX 23 29 4 0
BITMAP
000200
000700
001F80
0030C0
004020
003F00
01E0E0
038070
070038
0E001C
1E001C
3C001C
3C001C
38001E
78001E
78001E
70001E
F0001E
F0003C
F0003C
F00038
F00038
700078
700070
7800E0
3801E0
1C03C0
0E0700
01F800
ENDCHAR
STARTCHAR Otilde
ENCODING 213
SWIDTH 753 0
DWIDTH 25 0
BBX 23 28 4 0
BITMAP
001E30
007FE0
0047C0
008000
003F00
01E0E0
038070
070038
0E001C
1E001C
3C001C
3C001C
38001E
78001E
78001E
70001E
F0001E
F0003C
F0003C
F00038
F00038
700078
700070
7800E0
3801E0
1C03C0
0E0700
01F800
ENDCHAR
STARTCHAR Odieresis
ENCODING 214
SWIDTH 753 0
DWIDTH 25 0
BBX 23 28 4 0
BITMAP
003060
0078F0
0078F0
003060
003F00
01E0E0
038070
070038
0E001C
1C001C
3C001C
3C001C
38001E
78001E
78001E
70001E
F0001E
F0003C
F0003C
F00038
F00038
700078
700070
7000E0
3801E0
1C0380
0E0700
01F800
ENDCHAR
STARTCHAR multiply
ENCODING 215
SWIDTH 570 0
DWIDTH 19 0
BBX 15 15 4 1
BITMAP
4004
E00E
701C
3838
1C70
0EE0
07C0
0380
07C0
0EE0
1C70
3838
701C
E00E
4004
ENDCHAR
STARTCHAR Oslash
ENCODING 216
SWIDTH 753 0
DWIDTH 25 0
BBX 23 26 4 -1
BITMAP
000008
003F9C
01E0F0
038070
070078
0E00FC
1E019C
3C011C
3C031C
38061E
780C1E
78081E
70181E
F0301E
F0603C
F0403C
F0C038
F18038
730078
720070
7C00E0
3C01E0
1C03C0
3E0700
63F800
400000
ENDCHAR
STARTCHAR Ugrave
ENCODING 217
SWIDTH 794 0
DWIDTH 26 0
BBX 25 31 6 0
BITMAP
01000000
01C00000
03E00000
01F80000
007C0000
000C0000
00000000
FF81FF80
1C003C00
1C003800
1C003800
3C003800
38007800
38007000
38007000
38007000
7000F000
7000E000
7000E000
7000E000
7000E000
E001C000
E001C000
E001C000
E0038000
E0038000
E0038000
70070000
700E0000
383C0000
0FF00000
ENDCHAR
STARTCHAR Uacute
ENCODING 218
SWIDTH 794 0
DWIDTH 26 0
BBX 25 30 6 0
BITMAP
00004000
0001E000
0003E000
000F0000
00180000
00000000
FF81FF80
1C003C00
1C003800
1C003800
3C003800
38007800
38007000
38007000
38007000
7000F000
7000E000
7000E000
7000E000
7000E000
E001C000
E001C000
E001C000
E0038000
E0038000
E0038000
70070000
700E0000
383C0000
0FF00000
ENDCHAR
STARTCHAR Ucircumflex
ENCODING 219
SWIDTH 794 0
DWIDTH 26 0
BBX 25 29 6 0
BITMAP
00040000
001E0000
003F0000
00E18000
0080C000
FF81FF80
1C003C00
1C003800
1C003800
3C003800
38007800
38007000
38007000
38007000
7000F000
7000E000
7000E000
7000E000
7000E000
E001C000
E001C000
E001C000
E0038000
E0038000
E0038000
70070000
700E0000
383C0000
0FF00000
ENDCHAR
STARTCHAR Udieresis
ENCODING 220
SWIDTH 794 0
DWIDTH 26 0
BBX 24 28 6 0
BITMAP
00C180
01E3C0
01E3C0
00C180
FF81FF
1C0038
1C0038
180078
380070
380070
380070
3800F0
3000E0
7000E0
7000E0
7001E0
7001C0
7001C0
E001C0
E003C0
E00380
E00380
E00380
E00700
600F00
701E00
383C00
0FE000
ENDCHAR
STARTCHAR Yacute
ENCODING 221
SWIDTH 591 0
DWIDTH 20 0
BBX 22 30 4 0
BITMAP
000040
0001E0
0003C0
000F00
001800
000000
FF03FC
3C0070
1C0060
1C00C0
0E0180
0E0380
0E0300
0E0600
070C00
071800
071800
03B000
03E000
03C000
03C000
038000
038000
038000
038000
070000
070000
070000
070000
7FF000
ENDCHAR
STARTCHAR Thorn
ENCODING 222
SWIDTH 604 0
DWIDTH 20 0
BBX 20 24 2 0
BITMAP
0FF800
01E000
01C000
01C000
01C000
03C000
03FF00
0383C0
0381E0
0380E0
0700F0
0700F0
0700F0
0700E0
0701E0
0E03C0
0E0F80
0FFC00
0E0000
1C0000
1C0000
1C0000
1C0000
FF8000
ENDCHAR
STARTCHAR germandbls
ENCODING 223
SWIDTH 577 0
DWIDTH 19 0
BBX 25 33 -3 -8
BITMAP
00007C00
00038700
00070380
000E0380
001C0380
001C0380
003C0700
00380600
03F81E00
00787000
0070E000
0071C000
0071C000
00E1E000
00E0E000
00E0F000
00E07800
00E07800
01C03C00
01C01C00
01C00C00
01C00C00
01C60800
03871800
0383E000
03800000
03000000
03000000
03000000
46000000
E6000000
E4000000
78000000
ENDCHAR
STARTCHAR agrave
ENCODING 224
SWIDTH 561 0
DWIDTH 19 0
BBX 18 25 2 0
BITMAP
008000
00E000
00F000
007800
001C00
000600
000000
000000
007DC0
01C380
070380
0E0380
1C0700
1C0700
380700
380F00
700E00
701E00
E01E00
E02E00
E04C40
E09C80
E31D80
7E1F00
300C00
ENDCHAR
STARTCHAR aacute
ENCODING 225
SWIDTH 561 0
DWIDTH 19 0
BBX 18 25 2 0
BITMAP
000080
0001C0
0003C0
000700
000E00
001800
000000
000000
007DC0
01C380
070380
0E0380
1C0700
1C0700
380700
380F00
700E00
701E00
E01E00
E02E00
E04C40
E09C80
E31D80
7E1F00
300C00
ENDCHAR
STARTCHAR acircumflex
ENCODING 226
SWIDTH 561 0
DWIDTH 19 0
BBX 18 24 2 0
BITMAP
000400
000E00
003F00
007300
00C1C0
008080
000000
007DC0
01C380
070380
0E0380
1C0700
1C0700
380700
380F00
700E00
701E00
E01E00
E02E00
E04C40
E09C80
E31D80
7E1F00
300C00
ENDCHAR
STARTCHAR atilde
ENCODING 227
SWIDTH 561 0
DWIDTH 19 0
BBX 18 23 2 0
BITMAP
006040
01F880
011F00
020600
000000
000000
007DC0
01C380
070380
0E0380
1C0700
1C0700
380700
380F00
700E00
701E00
E01E00
E02E00
E04C40
E09C80
E31D80
7E1F00
300C00
ENDCHAR
STARTCHAR adieresis
ENCODING 228
SWIDTH 561 0
DWIDTH 19 0
BBX 18 23 2 0
BITMAP
00C180
01E3C0
01E3C0
00C180
000000
000000
007DC0
01C380
070380
0E0380
1C0780
1C0700
380700
380F00
700E00
701E00
E01E00
E02E00
E04C40
E09C80
E31D80
7E1F00
300C00
ENDCHAR
STARTCHAR aring
ENCODING 229
SWIDTH 561 0
DWIDTH 19 0
BBX 18 25 2 0
BITMAP
003800
006400
004600
00C600
00C600
004C00
003800
000000
007D80
01C380
070300
0E0300
1C0700
1C0700
380700
380E00
700E00
701E00
E01E00
E02E00
E04C40
E09C80
E31D80
7E1F00
300C00
ENDCHAR
STARTCHAR ae
ENCODING 230
SWIDTH 779 0
DWIDTH 26 0
BBX 26 18 2 0
BITMAP
00008000
007D9E00
01E3F180
0703C1C0
0E0381C0
1C0781C0
18078380
38070700
300F1C00
700F6000
701F8000
E03E0000
E06E0100
E0CE0100
E08F0200
F3070C00
7E07F800
3001C000
ENDCHAR
STARTCHAR ccedilla
ENCODING 231
SWIDTH 441 0
DWIDTH 15 0
BBX 14 25 3 -8
BITMAP
00F0
073C
0C1C
181C
3810
3000
7000
6000
6000
E000
E000
E010
E010
E020
70C0
7F80
1E00
0C00
1800
1800
1E00
0E00
0600
0E00
7800
ENDCHAR
STARTCHAR egrave
ENCODING 232
SWIDTH 453 0
DWIDTH 15 0
BBX 14 24 3 0
BITMAP
0C00
1E00
0780
03C0
00E0
0020
0000
00F0
0718
0C1C
181C
381C
3038
7070
61E0
EF00
F800
E000
E010
E010
F020
70C0
7F80
1C00
ENDCHAR
STARTCHAR eacute
ENCODING 233
SWIDTH 453 0
DWIDTH 15 0
BBX 14 24 3 0
BITMAP
000C
001C
0038
0070
00C0
0100
0000
00F0
0718
0C1C
181C
381C
3038
7070
61E0
EF00
F800
E000
E010
E010
F020
70C0
7F80
1C00
ENDCHAR
STARTCHAR ecircumflex
ENCODING 234
SWIDTH 453 0
DWIDTH 15 0
BBX 14 24 3 0
BITMAP
0020
00F0
01F0
0318
060C
0804
0000
00F0
0718
0C1C
181C
381C
3038
7070
61E0
EF00
F800
E000
E010
E010
F020
70C0
7F80
1C00
ENDCHAR
STARTCHAR edieresis
ENCODING 235
SWIDTH 453 0
DWIDTH 15 0
BBX 15 23 3 0
BITMAP
060C
0F1E
0F1E
060C
0000
0000
00F0
0718
0C1C
181C
381C
3038
7070
61E0
EF80
F800
E000
E010
E010
F020
70E0
7F80
1C00
ENDCHAR
STARTCHAR igrave
ENCODING 236
SWIDTH 317 0
DWIDTH 11 0
BBX 8 24 4 0
BITMAP
60
70
38
1C
06
01
00
0E
FC
1C
1C
1C
38
38
38
30
70
70
70
62
E4
EC
F8
60
ENDCHAR
STARTCHAR iacute
ENCODING 237
SWIDTH 317 0
DWIDTH 11 0
BBX 10 24 4 0
BITMAP
01C0
03C0
0780
0E00
1800
1000
0000
0E00
FC00
1C00
1C00
1C00
3800
3800
3800
3000
7000
7000
7000
6200
E400
EC00
F800
6000
ENDCHAR
STARTCHAR icircumflex
ENCODING 238
SWIDTH 317 0
DWIDTH 11 0
BBX 10 24 4 0
BITMAP
0600
0F00
1F00
3180
60C0
8040
0000
0E00
FC00
1C00
1C00
1C00
3800
3800
3800
3000
7000
7000
7000
6200
E400
EC00
F800
6000
ENDCHAR
STARTCHAR idieresis
ENCODING 239
SWIDTH 317 0
DWIDTH 11 0
BBX 11 23 4 0
BITMAP
60C0
F1E0
F1E0
60C0
0000
0000
0E00
FE00
1C00
1C00
1C00
3800
3800
3800
3800
7000
7000
7000
6200
E400
EC00
F800
6000
ENDCHAR
STARTCHAR eth
ENCODING 240
SWIDTH 537 0
DWIDTH 18 0
BBX 15 25 3 0
BITMAP
0600
0704
039C
01F0
01E0
0770
0838
0038
01FC
071C
0C0C
1C0E
380E
300E
700E
701E
F01E
E01C
E01C
E038
E038
E070
7070
38C0
1F00
ENDCHAR
STARTCHAR ntilde
ENCODING 241
SWIDTH 618 0
DWIDTH 21 0
BBX 18 23 3 0
BITMAP
00C080
03F100
023E00
040C00
000000
000000
070700
7E1F80
0E6380
0E4380
0E8380
1D0300
1E0700
1E0700
1C0700
3C0E00
380E00
380E00
380C40
701C80
701D80
701F00
E00C00
ENDCHAR
STARTCHAR ograve
ENCODING 242
SWIDTH 537 0
DWIDTH 18 0
BBX 15 24 3 0
BITMAP
0600
0700
0380
00C0
0060
0010
0000
01F0
0718
1C0C
1C0E
380E
700E
700E
701E
F01E
E01C
E01C
E03C
E038
E078
7070
38E0
1F00
ENDCHAR
STARTCHAR oacute
ENCODING 243
SWIDTH 537 0
DWIDTH 18 0
BBX 15 24 3 0
BITMAP
000C
001C
0038
0070
00C0
0180
0000
01F0
0718
1C0C
1C0E
380E
700E
700E
701E
F01E
E01C
E01C
E03C
E038
E078
7070
38E0
1F00
ENDCHAR
STARTCHAR ocircumflex
ENCODING 244
SWIDTH 537 0
DWIDTH 18 0
BBX 15 24 3 0
BITMAP
0020
0070
00F8
0198
060C
0404
0000
01F0
0718
1C0C
1C0E
380E
700E
700E
701E
F01E
E01C
E01C
E03C
E038
E078
7070
38E0
1F00
ENDCHAR
STARTCHAR otilde
ENCODING 245
SWIDTH 537 0
DWIDTH 18 0
BBX 15 23 3 0
BITMAP
0382
07C4
087C
0830
0000
0000
01F0
0718
1C0C
1C0E
380E
700E
700E
701E
F01E
E01C
E01C
E03C
E038
E078
7070
38E0
1F00
ENDCHAR
STARTCHAR odieresis
ENCODING 246
SWIDTH 537 0
DWIDTH 18 0
BBX 16 23 3 0
BITMAP
0306
078F
078F
0306
0000
0000
01F0
0718
1C0C
1C0E
380E
700E
700E
701E
F01E
E01C
E01C
E03C
E038
E078
6070
30E0
1F00
ENDCHAR
STARTCHAR divide
ENCODING 247
SWIDTH 570 0
DWIDTH 19 0
BBX 16 16 3 1
BITMAP
0180
03C0
03C0
0180
0000
0000
0000
FFFF
FFFF
0000
0000
0000
0180
03C0
03C0
0180
ENDCHAR
STARTCHAR oslash
ENCODING 248
SWIDTH 537 0
DWIDTH 18 0
BBX 16 19 3 -1
BITMAP
0002
01F3
070E
0E0E
1C1F
3837
3867
7047
70C7
F18F
E30E
E60E
E41E
E81C
F838
7078
70E0
CF00
4000
ENDCHAR
STARTCHAR ugrave
ENCODING 249
SWIDTH 618 0
DWIDTH 21 0
BBX 17 24 4 0
BITMAP
060000
0F0000
078000
01C000
006000
001000
000000
0C0380
FC0700
1C0700
1C0700
380E00
380E00
380E00
301E00
701C00
703C00
703C00
605C00
E09880
E13900
E33B00
FC3E00
701800
ENDCHAR
STARTCHAR uacute
ENCODING 250
SWIDTH 618 0
DWIDTH 21 0
BBX 17 24 4 0
BITMAP
000600
000E00
001C00
003800
006000
008000
000000
0C0380
FC0700
1C0700
1C0700
380E00
380E00
380E00
301E00
701C00
703C00
703C00
605C00
E09880
E13900
E33B00
FC3E00
701800
ENDCHAR
STARTCHAR ucircumflex
ENCODING 251
SWIDTH 618 0
DWIDTH 21 0
BBX 17 24 4 0
BITMAP
002000
007000
00F800
019C00
020400
040200
000000
0C0380
FC0700
1C0700
1C0700
380E00
380E00
380E00
301E00
701C00
703C00
703C00
605C00
E09880
E13900
E33B00
FC3E00
701800
ENDCHAR
STARTCHAR udieresis
ENCODING 252
SWIDTH 618 0
DWIDTH 21 0
BBX 17 23 4 0
BITMAP
030600
078F00
078F00
030600
000000
000000
0C0380
FC0700
1C0700
1C0700
380F00
380E00
380E00
301E00
701C00
703C00
703C00
605C00
E09880
E13900
E33B00
FC3E00
701800
ENDCHAR
STARTCHAR yacute
ENCODING 253
SWIDTH 468 0
DWIDTH 16 0
BBX 18 32 0 -8
BITMAP
000180
000380
000700
000E00
001800
002000
000000
0100C0
0F81C0
1F81C0
038180
038180
038180
038300
038300
038600
038600
018C00
01C800
01D800
01D000
01F000
01E000
01C000
01C000
018000
010000
030000
420000
E40000
FC0000
700000
ENDCHAR
STARTCHAR thorn
ENCODING 254
SWIDTH 584 0
DWIDTH 19 0
BBX 18 32 2 -8
BITMAP
018000
1F8000
038000
038000
070000
070000
070000
070700
071F80
0E3380
0E41C0
0E81C0
0F81C0
0D01C0
1E01C0
1E0380
1C0380
1C0300
3C0700
380600
380E00
381C00
3C3800
77E000
700000
700000
700000
600000
E00000
E00000
E00000
C00000
ENDCHAR
STARTCHAR ydieresis
ENCODING 255
SWIDTH 468 0
DWIDTH 16 0
BBX 19 31 0 -8
BITMAP
0060C0
00F1E0
00F1E0
0060C0
000000
000000
0100C0
0F81C0
1F81C0
038180
038180
038180
038300
038300
038600
038600
018C00
01C800
01D800
01D000
01F000
01E000
01C000
01C000
018000
010000
030000
420000
E40000
FC0000
700000
ENDCHAR
STARTCHAR Amacron
ENCODING 256
SWIDTH 624 0
DWIDTH 21 0
BBX 23 27 -1 0
BITMAP
001FF0
003FE0
000000
0001C0
0001C0
0003C0
0003C0
0007C0
0005C0
000DE0
0008E0
0018E0
0030E0
0030E0
0060E0
0040E0
00C0E0
00FFE0
018070
010070
030070
060070
060070
0C0070
0C0070
180078
FF03FE
ENDCHAR
STARTCHAR amacron
ENCODING 257
SWIDTH 561 0
DWIDTH 19 0
BBX 18 20 2 0
BITMAP
01FF00
03FE00
000000
007DC0
01C380
070380
0E0380
1C0700
1C0700
380700
380F00
700E00
701E00
E01E00
E02E00
E04C40
E09C80
E31D80
7E1F00
300C00
ENDCHAR
STARTCHAR Abreve
ENCODING 258
SWIDTH 624 0
DWIDTH 21 0
BBX 23 30 -1 0
BITMAP
002020
002060
0030C0
001F80
001F00
000000
0001C0
0001C0
0003C0
0003C0
0007C0
0005C0
000DE0
0008E0
0018E0
0030E0
0030E0
0060E0
0040E0
00C0E0
00FFE0
018070
010070
030070
060070
060070
0C0070
0C0070
180078
FF03FE
ENDCHAR
STARTCHAR abreve
ENCODING 259
SWIDTH 561 0
DWIDTH 19 0
BBX 18 23 2 0
BITMAP
010100
010300
018600
00FC00
00F800
000000
007DC0
01C380
070380
0E0380
1C0700
1C0700
380700
380F00
700E00
701E00
E01E00
E02E00
E04C40
E09C80
E31D80
7E1F00
300C00
ENDCHAR
STARTCHAR Aogonek
ENCODING 260
SWIDTH 624 0
DWIDTH 21 0
BBX 23 31 -1 -7
BITMAP
0001C0
0001C0
0003C0
0003C0
0007C0
0005C0
000DE0
0008E0
0018E0
0030E0
0030E0
0060E0
0040E0
00C0E0
00FFE0
018070
010070
030070
060070
060070
0C0070
0C0070
180078
FF03FE
000C00
001000
003000
006000
006000
006200
003C00
ENDCHAR
STARTCHAR aogonek
ENCODING 261
SWIDTH 561 0
DWIDTH 19 0
BBX 18 24 2 -7
BITMAP
007DC0
01C380
070380
0E0380
1C0700
1C0700
380700
380F00
700E00
701E00
E01E00
E02E00
E04C40
E09C80
E31D80
7E1F00
300C00
00C000
010000
030000
060000
060000
062000
03C000
ENDCHAR
STARTCHAR Cacute
ENCODING 262
SWIDTH 661 0
DWIDTH 22 0
BBX 21 31 4 0
BITMAP
000200
000700
000E00
001C00
003000
004000
000000
003FC0
01E078
038038
0F0018
0E0010
1C0010
3C0010
3C0000
780000
780000
700000
F00000
F00000
F00000
F00000
F00000
F00000
700020
700040
3800C0
3800C0
1C0180
070780
00FE00
ENDCHAR
STARTCHAR cacute
ENCODING 263
SWIDTH 441 0
DWIDTH 15 0
BBX 14 24 3 0
BITMAP
0010
0038
0070
00E0
0180
0200
0000
00F0
073C
0C1C
181C
3810
3000
7000
6000
6000
E000
E000
E010
E010
E020
70C0
7F80
1C00
ENDCHAR
STARTCHAR Ccircumflex
ENCODING 264
SWIDTH 661 0
DWIDTH 22 0
BBX 21 31 4 0
BITMAP
000800
001C00
003E00
006700
00C100
010080
000000
003FC0
01E078
038038
0F0018
0E0010
1C0010
3C0010
3C0000
780000
780000
700000
F00000
F00000
F00000
F00000
F00000
F00000
700020
700040
3800C0
3800C0
1C0180
070780
00FE00
ENDCHAR
STARTCHAR ccircumflex
ENCODING 265
SWIDTH 441 0
DWIDTH 15 0
BBX 14 24 3 0
BITMAP
0040
00E0
01F0
0338
0608
0804
0000
00F0
073C
0C1C
181C
3810
3000
7000
6000
6000
E000
E000
E010
E010
E020
70C0
7F80
1C00
ENDCHAR
STARTCHAR Cdotaccent
ENCODING 266
SWIDTH 661 0
DWIDTH 22 0
BBX 21 29 4 0
BITMAP
003000
007800
007800
003000
000000
003FC0
01E078
038038
0F0018
0E0010
1C0010
3C0010
3C0000
780000
780000
700000
F00000
F00000
F00000
F00000
F00000
F00000
700020
700040
3800C0
3800C0
1C0180
070780
00FE00
ENDCHAR
STARTCHAR cdotaccent
ENCODING 267
SWIDTH 441 0
DWIDTH 15 0
BBX 14 22 3 0
BITMAP
0180
03C0
03C0
0180
0000
00F0
073C
0C1C
181C
3810
3000
7000
6000
6000
E000
E000
E010
E010
E020
70C0
7F80
1C00
ENDCHAR
STARTCHAR Ccaron
ENCODING 268
SWIDTH 661 0
DWIDTH 22 0
BBX 21 31 4 0
BITMAP
010080
008300
00E600
007C00
003800
001000
000000
003FC0
01E078
038038
0F0018
0E0010
1C0010
3C0010
3C0000
780000
780000
700000
F00000
F00000
F00000
F00000
F00000
F00000
700020
700040
3800C0
3800C0
1C0180
070780
00FE00
ENDCHAR
STARTCHAR ccaron
ENCODING 269
SWIDTH 441 0
DWIDTH 15 0
BBX 14 24 3 0
BITMAP
0804
0418
0730
03E0
01C0
0080
0000
00F0
073C
0C1C
181C
3810
3000
7000
6000
6000
E000
E000
E010
E010
E020
70C0
7F80
1C00
ENDCHAR
STARTCHAR Dcaron
ENCODING 270
SWIDTH 763 0
DWIDTH 25 0
BBX 26 31 1 0
BITMAP
00402000
0020C000
00398000
001F0000
000E0000
00040000
00000000
07FFE000
00F07800
00E01E00
00E00700
01E00700
01C00380
01C00380
01C00380
03C003C0
038003C0
038003C0
038003C0
038003C0
07800380
07000780
07000780
07000F00
07000F00
0F001E00
0E001C00
0E007800
0E00F000
1E03C000
FFFE0000
ENDCHAR
STARTCHAR dcaron
ENCODING 271
SWIDTH 774 0
DWIDTH 26 0
BBX 26 25 3 0
BITMAP
0000C180
000FC3C0
0001C1C0
0001C1C0
00038180
00038180
00038300
00038200
00FF0400
03870000
06070000
0C0F0000
1C0E0000
380E0000
381E0000
701E0000
701C0000
603C0000
E05C0000
E05C0000
E0988000
E1390000
E33B0000
7C3E0000
30180000
ENDCHAR
STARTCHAR Dcroat
ENCODING 272
SWIDTH 770 0
DWIDTH 26 0
BBX 26 24 1 0
BITMAP
07FFE000
00F07800
00E01E00
00E00F00
01E00700
01C00380
01C00380
01C00380
01C003C0
03C003C0
038003C0
3FFC03C0
038003C0
07800380
07000780
07000700
07000F00
07000F00
0F001E00
0E003C00
0E007800
0E00F000
1E03C000
FFFE0000
ENDCHAR
STARTCHAR dcroat
ENCODING 273
SWIDTH 587 0
DWIDTH 20 0
BBX 20 25 3 0
BITMAP
0000C0
000FC0
0001C0
0001C0
000380
000380
000380
03FFF0
03FFF0
038700
060700
0C0F00
1C0E00
380E00
381E00
701E00
701C00
603C00
E05C00
E05C00
E09880
E13900
E33B00
7C3E00
301800
ENDCHAR
STARTCHAR Emacron
ENCODING 274
SWIDTH 596 0
DWIDTH 20 0
BBX 22 27 1 0
BITMAP
007FC0
00FF80
000000
07FFFC
00E01C
00E00C
00E008
00C008
01C008
01C000
01C000
01C040
01C040
0380C0
03FFC0
0381C0
030080
070080
070000
070000
070000
060020
0E0060
0E0040
0E00C0
1E01C0
FFFFC0
ENDCHAR
STARTCHAR emacron
ENCODING 275
SWIDTH 453 0
DWIDTH 15 0
BBX 14 20 3 0
BITMAP
07FC
0FF8
0000
00F0
0718
0C1C
181C
381C
3038
7070
61E0
EF00
F800
E000
E010
E010
F020
70C0
7F80
1C00
ENDCHAR
STARTCHAR Ebreve
ENCODING 276
SWIDTH 596 0
DWIDTH 20 0
BBX 22 30 1 0
BITMAP
008080
008180
00C300
007E00
007C00
000000
07FFFC
00E01C
00E00C
00E008
00C008
01C008
01C000
01C000
01C040
01C040
0380C0
03FFC0
0381C0
030080
070080
070000
070000
070000
060020
0E0060
0E0040
0E00C0
1E01C0
FFFFC0
ENDCHAR
STARTCHAR ebreve
ENCODING 277
SWIDTH 453 0
DWIDTH 15 0
BBX 14 23 3 0
BITMAP
0808
0818
0C30
07E0
07C0
0000
00F0
0718
0C1C
181C
381C
3038
7070
61E0
EF00
F800
E000
E010
E010
F020
70C0
7F80
1C00
ENDCHAR
STARTCHAR Edotaccent
ENCODING 278
SWIDTH 596 0
DWIDTH 20 0
BBX 22 29 1 0
BITMAP
001800
003C00
003C00
001800
000000
07FFFC
00E01C
00E00C
00E008
00C008
01C008
01C000
01C000
01C040
01C040
0380C0
03FFC0
0381C0
030080
070080
070000
070000
070000
060020
0E0060
0E0040
0E00C0
1E01C0
FFFFC0
ENDCHAR
STARTCHAR edotaccent
ENCODING 279
SWIDTH 453 0
DWIDTH 15 0
BBX 14 22 3 0
BITMAP
0180
03C0
03C0
0180
0000
00F0
0718
0C1C
181C
381C
3038
7070
61E0
EF00
F800
E000
E010
E010
F020
70C0
7F80
1C00
ENDCHAR
STARTCHAR Eogonek
ENCODING 280
SWIDTH 596 0
DWIDTH 20 0
BBX 22 31 1 -7
BITMAP
07FFFC
00E01C
00E00C
00E008
00C008
01C008
01C000
01C000
01C040
01C040
0380C0
03FFC0
0381C0
030080
070080
070000
070000
070000
060020
0E0060
0E0040
0E00C0
1E01C0
FFFFC0
003000
004000
00C000
018000
018000
018800
00F000
ENDCHAR
STARTCHAR eogonek
ENCODING 281
SWIDTH 453 0
DWIDTH 15 0
BBX 14 24 3 -7
BITMAP
00F0
0718
0C1C
181C
381C
3038
7070
61E0
EF00
F800
E000
E010
E010
F020
70C0
7F80
1C00
0600
0800
1800
3000
3000
3100
1E00
ENDCHAR
STARTCHAR Ecaron
ENCODING 282
SWIDTH 596 0
DWIDTH 20 0
BBX 22 31 1 0
BITMAP
008040
004180
007300
003E00
001C00
000800
000000
07FFFC
00E01C
00E00C
00E008
00C008
01C008
01C000
01C000
01C040
01C040
0380C0
03FFC0
0381C0
030080
070080
070000
070000
070000
060020
0E0060
0E0040
0E00C0
1E01C0
FFFFC0
ENDCHAR
STARTCHAR ecaron
ENCODING 283
SWIDTH 453 0
DWIDTH 15 0
BBX 14 24 3 0
BITMAP
0804
0418
0730
03E0
01C0
0080
0000
00F0
0718
0C1C
181C
381C
3038
7070
61E0
EF00
F800
E000
E010
E010
F020
70C0
7F80
1C00
ENDCHAR
STARTCHAR Gcircumflex
ENCODING 284
SWIDTH 709 0
DWIDTH 24 0
BBX 22 31 4 0
BITMAP
000800
001C00
003E00
006700
00C100
010080
000000
001FE0
01E07C
038038
070018
0E0018
1C0010
1C0010
380000
380000
780000
700000
700000
700000
F00000
F007FC
F000F0
F000E0
7000E0
7000E0
7801E0
3801C0
1C01C0
0F03C0
01FC00
ENDCHAR
STARTCHAR gcircumflex
ENCODING 285
SWIDTH 499 0
DWIDTH 17 0
BBX 19 32 1 -8
BITMAP
001000
003800
007C00
00CE00
018200
020100
000000
00F0E0
070FC0
0E0600
0E0700
1E0700
1C0700
1C0F00
1C0E00
0C0E00
0E1C00
03F000
0C0000
1C0000
1E0000
0FC000
07F000
1DFC00
701E00
600F00
E00700
E00700
E00600
700E00
3C3C00
0FE000
ENDCHAR
STARTCHAR Gbreve
ENCODING 286
SWIDTH 709 0
DWIDTH 24 0
BBX 22 30 4 0
BITMAP
008080
008180
00C300
007E00
007C00
000000
001FE0
01E07C
038038
070018
0E0018
1C0010
1C0010
380000
380000
780000
700000
700000
700000
F00000
F007FC
F000F0
F000E0
7000E0
7000E0
7801E0
3801C0
1C01C0
0F03C0
01FC00
ENDCHAR
STARTCHAR gbreve
ENCODING 287
SWIDTH 499 0
DWIDTH 17 0
BBX 19 31 1 -8
BITMAP
020200
020600
030C00
01F800
01F000
000000
00F0E0
070FC0
0E0600
0E0700
1E0700
1C0700
1C0F00
1C0E00
0C0E00
0E1C00
03F000
0C0000
1C0000
1E0000
0FC000
07F000
1DFC00
701E00
600F00
E00700
E00700
E00600
700E00
3C3C00
0FE000
ENDCHAR
STARTCHAR Gdotaccent
ENCODING 288
SWIDTH 709 0
DWIDTH 24 0
BBX 22 29 4 0
BITMAP
001800
003C00
003C00
001800
000000
001FE0
01E07C
038038
070018
0E0018
1C0010
1C0010
380000
380000
780000
700000
700000
700000
F00000
F007FC
F000F0
F000E0
7000E0
7000E0
7801E0
3801C0
1C01C0
0F03C0
01FC00
ENDCHAR
STARTCHAR gdotaccent
ENCODING 289
SWIDTH 499 0
DWIDTH 17 0
BBX 19 30 1 -8
BITMAP
006000
00F000
00F000
006000
000000
00F0E0
070FC0
0E0600
0E0700
1E0700
1C0700
1C0F00
1C0E00
0C0E00
0E1C00
03F000
0C0000
1C0000
1E0000
0FC000
07F000
1DFC00
701E00
600F00
E00700
E00700
E00600
700E00
3C3C00
0FE000
ENDCHAR
STARTCHAR Gcommaaccent
ENCODING 290
SWIDTH 709 0
DWIDTH 24 0
BBX 22 34 4 -10
BITMAP
001FE0
01E07C
038038
070018
0E0018
1C0010
1C0010
380000
380000
780000
700000
700000
700000
F00000
F007FC
F000F0
F000E0
7000E0
7000E0
7801E0
3801C0
1C01C0
0F03C0
01FC00
000000
003000
007800
003800
003800
003000
003000
006000
00C000
008000
ENDCHAR
STARTCHAR gcommaaccent
ENCODING 291
SWIDTH 499 0
DWIDTH 17 0
BBX 19 35 1 -8
BITMAP
000800
001000
002000
006000
006000
00E000
00E000
00F000
006000
000000
00F0E0
070FC0
0E0600
0E0700
1E0700
1C0700
1C0F00
1C0E00
0C0E00
0E1C00
03F000
0C0000
1C0000
1E0000
0FC000
07F000
1DFC00
701E00
600F00
E00700
E00700
E00600
700E00
3C3C00
0FE000
ENDCHAR
STARTCHAR Hcircumflex
ENCODING 292
SWIDTH 775 0
DWIDTH 26 0
BBX 28 31 2 0
BITMAP
00008000
0001C000
0003E000
00067000
000C1000
00100800
00000000
07FC1FF0
01E00780
01E00780
01C00700
01C00700
01C00700
01C00700
03C00F00
03800E00
03800E00
03800E00
03FFFE00
07001C00
07001C00
07001C00
07001C00
0F003C00
0E003800
0E003800
0E003800
0E003800
1E007800
1E007800
FF83FE00
ENDCHAR
STARTCHAR hcircumflex
ENCODING 293
SWIDTH 607 0
DWIDTH 20 0
BBX 17 32 3 0
BITMAP
008000
01C000
03E000
067000
0C1000
100800
000000
038000
1F8000
078000
070000
070000
070000
070000
0E0000
0E0700
0E1F80
0E6380
0CC380
1C8380
1D0700
1E0700
1A0700
3C0E00
3C0E00
381C00
381C00
781880
703900
703B00
703E00
E01800
ENDCHAR
STARTCHAR Hbar
ENCODING 294
SWIDTH 775 0
DWIDTH 26 0
BBX 28 24 2 0
BITMAP
07FC1FF0
01E00780
01E00780
01C00700
01C00700
01C00700
01C00700
FFFFFFF0
FFFFFFF0
03800E00
03800E00
03FFFE00
07001C00
07001C00
07001C00
07001C00
0F003C00
0E003800
0E003800
0E003800
0E003800
1E007800
1E007800
FF83FE00
ENDCHAR
STARTCHAR hbar
ENCODING 295
SWIDTH 607 0
DWIDTH 20 0
BBX 20 25 0 0
BITMAP
007000
03F000
00F000
00E000
00E000
00E000
00E000
FFFC00
FFFCE0
01C3F0
01CC70
019870
039070
03A0E0
03C0E0
0340E0
0781C0
0781C0
070380
070380
0F0310
0E0720
0E0760
0E07C0
1C0300
ENDCHAR
STARTCHAR Itilde
ENCODING 296
SWIDTH 345 0
DWIDTH 12 0
BBX 14 29 1 0
BITMAP
0604
1FF8
13F8
2020
0000
07FC
01E0
01E0
01C0
01C0
01C0
01C0
03C0
0380
0380
0380
0380
0700
0700
0700
0700
0F00
0E00
0E00
0E00
0E00
1E00
1E00
FF80
ENDCHAR
STARTCHAR itilde
ENCODING 297
SWIDTH 317 0
DWIDTH 11 0
BBX 12 22 2 0
BITMAP
1810
7FE0
4FE0
8080
0000
0380
3F00
0700
0700
0700
0E00
0E00
0E00
0C00
1C00
1C00
1C00
1880
3900
3B00
3E00
1800
ENDCHAR
STARTCHAR Imacron
ENCODING 298
SWIDTH 345 0
DWIDTH 12 0
BBX 14 27 1 0
BITMAP
07FC
0FF8
0000
07FC
01E0
01E0
01C0
01C0
01C0
01C0
03C0
0380
0380
0380
0380
0700
0700
0700
0700
0F00
0E00
0E00
0E00
0E00
1E00
1E00
FF80
ENDCHAR
STARTCHAR imacron
ENCODING 299
SWIDTH 317 0
DWIDTH 11 0
BBX 10 20 3 0
BITMAP
7FC0
FF80
0000
0700
7E00
0E00
0E00
0E00
1C00
1C00
1C00
1800
3800
3800
3800
3100
7200
7600
7C00
3000
ENDCHAR
STARTCHAR Ibreve
ENCODING 300
SWIDTH 345 0
DWIDTH 12 0
BBX 14 30 1 0
BITMAP
0808
0818
0C30
07E0
07C0
0000
07FC
01E0
01E0
01C0
01C0
01C0
01C0
03C0
0380
0380
0380
0380
0700
0700
0700
0700
0F00
0E00
0E00
0E00
0E00
1E00
1E00
FF80
ENDCHAR
STARTCHAR ibreve
ENCODING 301
SWIDTH 317 0
DWIDTH 11 0
BBX 9 23 4 0
BITMAP
8080
8180
C300
7E00
7C00
0000
0E00
FC00
1C00
1C00
1C00
3800
3800
3800
3000
7000
7000
7000
6200
E400
EC00
F800
6000
ENDCHAR
STARTCHAR Iogonek
ENCODING 302
SWIDTH 345 0
DWIDTH 12 0
BBX 14 31 1 -7
BITMAP
07FC
01E0
01E0
01C0
01C0
01C0
01C0
03C0
0380
0380
0380
0380
0700
0700
0700
0700
0F00
0E00
0E00
0E00
0E00
1E00
1E00
FF80
0600
0800
1800
3000
3000
3100
1E00
ENDCHAR
STARTCHAR iogonek
ENCODING 303
SWIDTH 317 0
DWIDTH 11 0
BBX 8 31 4 -7
BITMAP
06
0F
0F
06
00
00
00
0E
FC
1C
1C
1C
38
38
38
30
70
70
70
62
E4
EC
F8
60
18
20
60
C0
C0
C4
78
ENDCHAR
STARTCHAR Idotaccent
ENCODING 304
SWIDTH 345 0
DWIDTH 12 0
BBX 14 29 1 0
BITMAP
0180
03C0
03C0
0180
0000
07FC
01E0
01E0
01C0
01C0
01C0
01C0
03C0
0380
0380
0380
0380
0700
0700
0700
0700
0F00
0E00
0E00
0E00
0E00
1E00
1E00
FF80
ENDCHAR
STARTCHAR dotlessi
ENCODING 305
SWIDTH 317 0
DWIDTH 11 0
BBX 7 17 4 0
BITMAP
0E
FC
1C
1C
1C
38
38
38
30
70
70
70
62
E4
EC
F8
60
ENDCHAR
STARTCHAR IJ
ENCODING 306
SWIDTH 680 0
DWIDTH 23 0
BBX 26 28 1 -4
BITMAP
07FC7FC0
01E01E00
01E01E00
01C01C00
01C01C00
01C01C00
01C01C00
03C03800
03803800
03803800
03803800
03807800
07007000
07007000
07007000
07007000
0F00E000
0E00E000
0E00E000
0E00E000
0E01E000
1E01C000
1E01C000
FF83C000
00038000
00070000
001E0000
00780000
ENDCHAR
STARTCHAR ij
ENCODING 307
SWIDTH 610 0
DWIDTH 20 0
BBX 18 32 4 -8
BITMAP
060180
0F03C0
0F03C0
060180
000000
000000
000000
0E0380
FC3F00
1C0700
1C0700
1C0700
380700
380E00
380E00
300E00
700E00
700C00
701C00
621C00
E41C00
EC1C00
F83800
603800
003800
003800
003000
007000
007000
0C6000
0E6000
078000
ENDCHAR
STARTCHAR Jcircumflex
ENCODING 308
SWIDTH 352 0
DWIDTH 12 0
BBX 17 35 -1 -4
BITMAP
001000
003800
007C00
00CE00
018200
020100
000000
00FF80
003C00
003C00
003800
003800
003800
003800
007000
007000
007000
007000
00F000
00E000
00E000
00E000
00E000
01C000
01C000
01C000
01C000
03C000
038000
038000
078000
070000
0E0000
3C0000
F00000
ENDCHAR
STARTCHAR jcircumflex
ENCODING 309
SWIDTH 309 0
DWIDTH 10 0
BBX 14 32 -2 -8
BITMAP
0040
00E0
01F0
0338
0608
0804
0000
0038
03F0
0070
0070
0070
0070
00E0
00E0
00E0
00E0
00C0
01C0
01C0
01C0
01C0
0380
0380
0380
0380
0300
0700
0700
C600
E600
7800
ENDCHAR
STARTCHAR Kcommaaccent
ENCODING 310
SWIDTH 650 0
DWIDTH 22 0
BBX 26 34 1 -10
BITMAP
07FC7FC0
01E01E00
01E03800
01C07000
01C0C000
01C18000
01C30000
03860000
038C0000
03B00000
03F00000
03F00000
07F80000
07380000
073C0000
071C0000
0F1E0000
0E0F0000
0E0F0000
0E078000
0E038000
1E03C000
1E01F000
FF807800
00000000
00300000
00780000
00380000
00380000
00300000
00300000
00600000
00C00000
00800000
ENDCHAR
STARTCHAR kcommaaccent
ENCODING 311
SWIDTH 545 0
DWIDTH 18 0
BBX 17 35 3 -10
BITMAP
038000
1F8000
070000
070000
070000
070000
0E0000
0E0000
0E0380
0E0F80
0C3F00
1C7000
1CC000
1D8000
1D0000
3F8000
3B8000
3B8000
3BC000
71C000
71C100
70E200
70F600
E07C00
E03800
000000
018000
03C000
01C000
01C000
018000
018000
030000
060000
040000
ENDCHAR
STARTCHAR kgreenlandic
ENCODING 312
SWIDTH 545 0
DWIDTH 18 0
BBX 17 16 3 0
BITMAP
0E0F80
0C3F00
1C7000
1CC000
1D8000
1D0000
3F8000
3B8000
3B8000
3BC000
71C000
71C100
70E200
70F600
E07C00
E03800
ENDCHAR
STARTCHAR Lacute
ENCODING 313
SWIDTH 565 0
DWIDTH 19 0
BBX 19 31 1 0
BITMAP
000800
001C00
003800
007000
00C000
010000
000000
07FC00
00E000
00E000
01E000
01C000
01C000
01C000
01C000
038000
038000
038000
038000
078000
070000
070000
070000
070000
0F0000
0E0020
0E0040
0E0040
1E00C0
1E03C0
FFFF80
ENDCHAR
STARTCHAR lacute
ENCODING 314
SWIDTH 306 0
DWIDTH 10 0
BBX 10 32 4 0
BITMAP
0080
01C0
0380
0700
0C00
1000
0000
0300
3F00
0700
0700
0E00
0E00
0E00
0E00
1C00
1C00
1C00
1C00
3800
3800
3800
3800
3000
7000
7000
7000
6200
E400
EC00
F800
6000
ENDCHAR
STARTCHAR Lcommaaccent
ENCODING 315
SWIDTH 565 0
DWIDTH 19 0
BBX 19 34 1 -10
BITMAP
07FC00
00E000
00E000
01E000
01C000
01C000
01C000
01C000
038000
038000
038000
038000
078000
070000
070000
070000
070000
0F0000
0E0020
0E0040
0E0040
1E00C0
1E03C0
FFFF80
000000
00C000
01E000
00E000
00E000
00C000
00C000
018000
030000
020000
ENDCHAR
STARTCHAR lcommaaccent
ENCODING 316
SWIDTH 306 0
DWIDTH 10 0
BBX 8 35 4 -10
BITMAP
03
3F
07
07
0E
0E
0E
0E
1C
1C
1C
1C
38
38
38
38
30
70
70
70
62
E4
EC
F8
60
00
30
78
38
38
30
30
60
C0
80
ENDCHAR
STARTCHAR Lcaron
ENCODING 317
SWIDTH 753 0
DWIDTH 25 0
BBX 27 25 1 0
BITMAP
000000C0
07FC01E0
00E000E0
00E000E0
01E000C0
01C000C0
01C00180
01C00100
01C00200
03800000
03800000
03800000
03800000
07800000
07000000
07000000
07000000
07000000
0F000000
0E002000
0E004000
0E004000
1E00C000
1E03C000
FFFF8000
ENDCHAR
STARTCHAR lcaron
ENCODING 318
SWIDTH 507 0
DWIDTH 17 0
BBX 16 25 4 0
BITMAP
0306
3F0F
0707
0707
0E06
0E06
0E0C
0E08
1C10
1C00
1C00
1C00
3800
3800
3800
3800
3000
7000
7000
7000
6200
E400
EC00
F800
6000
ENDCHAR
STARTCHAR Ldot
ENCODING 319
SWIDTH 802 0
DWIDTH 27 0
BBX 25 24 1 0
BITMAP
07FC0000
00E00000
00E00000
01E00000
01C00000
01C00000
01C00000
01C00000
03800000
03800000
03800000
03800000
07800000
07000000
07000300
07000780
07000780
0F000300
0E002000
0E004000
0E004000
1E00C000
1E03C000
FFFF8000
ENDCHAR
STARTCHAR ldot
ENCODING 320
SWIDTH 556 0
DWIDTH 19 0
BBX 14 25 4 0
BITMAP
0300
3F00
0700
0700
0E00
0E00
0E00
0E00
1C00
1C00
1C00
1C00
3800
3800
3800
3818
303C
703C
7018
7000
6200
E400
EC00
F800
6000
ENDCHAR
STARTCHAR Lslash
ENCODING 321
SWIDTH 571 0
DWIDTH 19 0
BBX 19 24 1 0
BITMAP
07FC00
00E000
00E000
01E000
01C000
01C000
01C000
01C400
03CC00
039800
03E000
03C000
038000
0F0000
1F0000
270000
470000
0F0000
0E0020
0E0060
0E0040
0E00C0
1E03C0
FFFF80
ENDCHAR
STARTCHAR lslash
ENCODING 322
SWIDTH 318 0
DWIDTH 11 0
BBX 11 25 3 0
BITMAP
0180
1F80
0380
0380
0700
0700
0700
0700
0E20
0EC0
0F80
0E00
3C00
7C00
9C00
1C00
3800
3800
3800
3800
7100
7200
7600
7C00
3000
ENDCHAR
STARTCHAR Nacute
ENCODING 323
SWIDTH 763 0
DWIDTH 25 0
BBX 29 31 1 0
BITMAP
00002000
00007000
0000E000
0001C000
00030000
00040000
00000000
07E007F8
00F001C0
00F00180
00F80180
00B80180
013C0180
011C0100
011C0300
010E0300
030E0300
030F0200
02070200
02078600
02038600
0603C600
0601C400
0601C400
0401EC00
0C00EC00
0C00F800
0C007800
0C007800
1C003800
FF003800
ENDCHAR
STARTCHAR nacute
ENCODING 324
SWIDTH 618 0
DWIDTH 21 0
BBX 18 24 3 0
BITMAP
000800
001C00
003800
007000
00C000
010000
000000
070700
7E1F80
0E6380
0E4380
0E8380
1D0300
1E0700
1E0700
1C0700
3C0E00
380E00
380E00
380C40
701C80
701D80
701F00
E00C00
ENDCHAR
STARTCHAR Ncommaaccent
ENCODING 325
SWIDTH 763 0
DWIDTH 25 0
BBX 29 34 1 -10
BITMAP
07E007F8
00F001C0
00F00180
00F80180
00B80180
013C0180
011C0100
011C0300
010E0300
030E0300
030F0200
02070200
02078600
02038600
0603C600
0601C400
0601C400
0401EC00
0C00EC00
0C00F800
0C007800
0C007800
1C003800
FF003800
00000000
00060000
000F0000
00070000
00070000
00060000
00060000
000C0000
00180000
00100000
ENDCHAR
STARTCHAR ncommaaccent
ENCODING 326
SWIDTH 618 0
DWIDTH 21 0
BBX 18 27 3 -10
BITMAP
070700
7E1F80
0E6380
0E4380
0E8380
1D0300
1E0700
1E0700
1C0700
3C0E00
380E00
380E00
380C40
701C80
701D80
701F00
E00C00
000000
00C000
01E000
00E000
00E000
00C000
00C000
018000
030000
020000
ENDCHAR
STARTCHAR Ncaron
ENCODING 327
SWIDTH 763 0
DWIDTH 25 0
BBX 29 31 1 0
BITMAP
00100800
00083000
000E6000
0007C000
00038000
00010000
00000000
07E007F8
00F001C0
00F00180
00F80180
00B80180
013C0180
011C0100
011C0300
010E0300
030E0300
030F0200
02070200
02078600
02038600
0603C600
0601C400
0601C400
0401EC00
0C00EC00
0C00F800
0C007800
0C007800
1C003800
FF003800
ENDCHAR
STARTCHAR ncaron
ENCODING 328
SWIDTH 618 0
DWIDTH 21 0
BBX 18 24 3 0
BITMAP
040200
020C00
039800
01F000
00E000
004000
000000
070700
7E1F80
0E6380
0E4380
0E8380
1D0300
1E0700
1E0700
1C0700
3C0E00
380E00
380E00
380C40
701C80
701D80
701F00
E00C00
ENDCHAR
STARTCHAR napostrophe
ENCODING 329
SWIDTH 823 0
DWIDTH 28 0
BBX 23 25 5 0
BITMAP
300000
780000
380000
380000
300000
300000
600000
400000
803838
03F0FC
00731C
00721C
00741C
00E818
00F038
00F038
00E038
01E070
01C070
01C070
01C062
0380E4
0380EC
0380F8
070060
ENDCHAR
STARTCHAR Eng
ENCODING 330
SWIDTH 763 0
DWIDTH 25 0
BBX 29 32 1 -8
BITMAP
07E007F8
00F001C0
00F00180
00F80180
00B80180
013C0180
011C0100
011C0300
010E0300
030E0300
030F0200
02070200
02078600
02038600
0603C600
0601C400
0601C400
0401EC00
0C00FC00
0C00FC00
0C007C00
0C007C00
1C003800
FF003800
00003800
00003800
00003000
00007000
00007000
000C6000
000E6000
00078000
ENDCHAR
STARTCHAR eng
ENCODING 331
SWIDTH 618 0
DWIDTH 21 0
BBX 17 25 3 -8
BITMAP
070700
7E1F80
0E6380
0E4380
0E8380
1D0300
1E0700
1E0700
1C0700
3C0E00
380E00
380E00
380E00
700E00
700E00
701C00
E01C00
001C00
001C00
001800
003800
003800
063000
073000
03C000
ENDCHAR
STARTCHAR Omacron
ENCODING 332
SWIDTH 753 0
DWIDTH 25 0
BBX 23 27 4 0
BITMAP
00FF80
01FF00
000000
003F00
01E0E0
038070
070038
0E001C
1E001C
3C001C
3C001C
38001E
78001E
78001E
70001E
F0001E
F0003C
F0003C
F00038
F00038
700078
700070
7800E0
3801E0
1C03C0
0E0700
01F800
ENDCHAR
STARTCHAR omacron
ENCODING 333
SWIDTH 537 0
DWIDTH 18 0
BBX 15 20 3 0
BITMAP
07FC
0FF8
0000
01F0
0718
1C0C
1C0E
380E
700E
700E
701E
F01E
E01C
E01C
E03C
E038
E078
7070
38E0
1F00
ENDCHAR
STARTCHAR Obreve
ENCODING 334
SWIDTH 753 0
DWIDTH 25 0
BBX 23 30 4 0
BITMAP
008080
008180
00C300
007E00
007C00
000000
003F00
01E0E0
038070
070038
0E001C
1E001C
3C001C
3C001C
38001E
78001E
78001E
70001E
F0001E
F0003C
F0003C
F00038
F00038
700078
700070
7800E0
3801E0
1C03C0
0E0700
01F800
ENDCHAR
STARTCHAR obreve
ENCODING 335
SWIDTH 537 0
DWIDTH 18 0
BBX 15 23 3 0
BITMAP
0808
0818
0C30
07E0
07C0
0000
01F0
0718
1C0C
1C0E
380E
700E
700E
701E
F01E
E01C
E01C
E03C
E038
E078
7070
38E0
1F00
ENDCHAR
STARTCHAR Ohungarumlaut
ENCODING 336
SWIDTH 753 0
DWIDTH 25 0
BBX 23 32 4 0
BITMAP
001880
0019C0
003980
003380
003300
006200
004200
000000
003F00
01E0E0
038070
070038
0E001C
1E001C
3C001C
3C001C
38001E
78001E
78001E
70001E
F0001E
F0003C
F0003C
F00038
F00038
700078
700070
7800E0
3801E0
1C03C0
0E0700
01F800
ENDCHAR
STARTCHAR ohungarumlaut
ENCODING 337
SWIDTH 537 0
DWIDTH 18 0
BBX 15 25 3 0
BITMAP
0188
019C
0398
0338
0330
0620
0420
0000
01F0
0718
1C0C
1C0E
380E
700E
700E
701E
F01E
E01C
E01C
E03C
E038
E078
7070
38E0
1F00
ENDCHAR
STARTCHAR OE
ENCODING 338
SWIDTH 1020 0
DWIDTH 34 0
BBX 33 24 4 0
BITMAP
001FFFFF80
00F01C0380
03C01C0180
07001C0100
0E00180100
1E00380100
3C00380000
3C00380000
3800380C00
7800380800
7000701800
F0007FF800
F000703800
F000701000
F000701000
F000E00000
7000E00000
7000E00000
7800E00400
3801E00400
3C01E00C00
1E01E01800
0703E03800
00FFFFF800
ENDCHAR
STARTCHAR oe
ENCODING 339
SWIDTH 806 0
DWIDTH 27 0
BBX 26 17 3 0
BITMAP
01F00F00
071C7180
1E06C1C0
1C0781C0
380781C0
78070380
70070700
70070E00
F00E7000
E00F8000
E00E0000
E01E0000
E01E0100
E03F0300
70770E00
38E7FC00
1F01E000
ENDCHAR
STARTCHAR Racute
ENCODING 340
SWIDTH 640 0
DWIDTH 21 0
BBX 21 31 2 0
BITMAP
000100
000380
000700
000E00
001800
002000
000000
0FFF80
01E1E0
01C0F0
01C070
01C078
038078
038078
038070
038070
0380E0
0701C0
070600
07FF00
070700
0F0780
0E0380
0E0380
0E0380
0E0380
1C0380
1C0380
1C0380
1C01C0
FF80F0
ENDCHAR
STARTCHAR racute
ENCODING 341
SWIDTH 402 0
DWIDTH 13 0
BBX 13 24 3 0
BITMAP
0020
0070
00E0
01C0
0300
0400
0000
0E38
7E78
0CF8
0D10
1E00
1E00
1C00
1C00
3800
3800
3800
3000
7000
7000
7000
6000
E000
ENDCHAR
STARTCHAR Rcommaaccent
ENCODING 342
SWIDTH 640 0
DWIDTH 21 0
BBX 21 34 2 -10
BITMAP
0FFF80
01E1E0
01C0F0
01C070
01C078
038078
038078
038070
038070
0380E0
0701C0
070600
07FF00
070700
0F0780
0E0380
0E0380
0E0380
0E0380
1C0380
1C0380
1C0380
1C01C0
FF80F0
000000
006000
00F000
007000
007000
006000
006000
00C000
018000
010000
ENDCHAR
STARTCHAR rcommaaccent
ENCODING 343
SWIDTH 402 0
DWIDTH 13 0
BBX 13 27 3 -10
BITMAP
0E38
7E78
0CF8
0D10
1E00
1E00
1C00
1C00
3800
3800
3800
3000
7000
7000
7000
6000
E000
0000
1800
3C00
1C00
1C00
1800
1800
3000
6000
4000
ENDCHAR
STARTCHAR Rcaron
ENCODING 344
SWIDTH 640 0
DWIDTH 21 0
BBX 21 31 2 0
BITMAP
008040
004180
007300
003E00
001C00
000800
000000
0FFF80
01E1E0
01C0F0
01C070
01C078
038078
038078
038070
038070
0380E0
0701C0
070600
07FF00
070700
0F0780
0E0380
0E0380
0E0380
0E0380
1C0380
1C0380
1C0380
1C01C0
FF80F0
ENDCHAR
STARTCHAR rcaron
ENCODING 345
SWIDTH 402 0
DWIDTH 13 0
BBX 13 24 3 0
BITMAP
2010
1060
1CC0
0F80
0700
0200
0000
0E38
7E78
0CF8
0D10
1E00
1E00
1C00
1C00
3800
3800
3800
3000
7000
7000
7000
6000
E000
ENDCHAR
STARTCHAR Sacute
ENCODING 346
SWIDTH 533 0
DWIDTH 18 0
BBX 17 31 2 0
BITMAP
000400
000E00
001C00
003800
006000
008000
000000
007E00
018380
030180
070180
0E0180
0E0100
0E0000
0F0000
0F8000
07C000
03F000
01F800
007C00
003E00
001E00
000F00
400700
400700
400700
600600
E00E00
F00C00
7C3800
07C000
ENDCHAR
STARTCHAR sacute
ENCODING 347
SWIDTH 389 0
DWIDTH 13 0
BBX 13 24 2 0
BITMAP
0020
0070
00E0
01C0
0300
0400
0000
03C0
0C70
0838
1830
1800
1C00
0E00
0F00
0780
03C0
01C0
01E0
60E0
E0E0
F0C0
7180
1E00
ENDCHAR
STARTCHAR Scircumflex
ENCODING 348
SWIDTH 533 0
DWIDTH 18 0
BBX 17 31 2 0
BITMAP
002000
007000
00F800
019C00
030400
040200
000000
007E00
018380
030180
070180
0E0180
0E0100
0E0000
0F0000
0F8000
07C000
03F000
01F800
007C00
003E00
001E00
000F00
400700
400700
400700
600600
E00E00
F00C00
7C3800
07C000
ENDCHAR
STARTCHAR scircumflex
ENCODING 349
SWIDTH 389 0
DWIDTH 13 0
BBX 13 24 2 0
BITMAP
0080
01C0
03E0
0670
0C10
1008
0000
03C0
0C70
0838
1830
1800
1C00
0E00
0F00
0780
03C0
01C0
01E0
60E0
E0E0
F0C0
7180
1E00
ENDCHAR
STARTCHAR Scedilla
ENCODING 350
SWIDTH 533 0
DWIDTH 18 0
BBX 17 32 2 -8
BITMAP
007E00
018380
030180
070180
0E0180
0E0100
0E0000
0F0000
0F8000
07C000
03F000
01F800
007C00
003E00
001E00
000F00
400700
400700
400700
600600
E00E00
F00C00
7C3800
07C000
00C000
008000
018000
01C000
00E000
00E000
00C000
078000
ENDCHAR
STARTCHAR scedilla
ENCODING 351
SWIDTH 389 0
DWIDTH 13 0
BBX 13 25 2 -8
BITMAP
03C0
0C70
0838
1830
1800
1C00
0E00
0F00
0780
03C0
01C0
01E0
60E0
E0E0
F0C0
7180
1E00
0600
0400
0C00
0E00
0700
0700
0600
3C00
ENDCHAR
STARTCHAR Scaron
ENCODING 352
SWIDTH 533 0
DWIDTH 18 0
BBX 18 30 2 0
BITMAP
008000
0040C0
007380
003F00
001C00
000800
007E00
018380
030180
070180
0E0180
0E0100
0E0000
0F0000
0F8000
07C000
03F000
01F800
007C00
003E00
001E00
000F00
400700
400700
400700
600600
E00E00
F00C00
7C3800
07C000
ENDCHAR
STARTCHAR scaron
ENCODING 353
SWIDTH 389 0
DWIDTH 13 0
BBX 15 24 2 0
BITMAP
0C02
060C
0318
03F0
01E0
0080
0000
03C0
0C70
0838
1830
1800
1C00
0E00
0F00
0780
03C0
01C0
01E0
60E0
E0E0
F0C0
7180
1E00
ENDCHAR
STARTCHAR Tcommaaccent
ENCODING 354
SWIDTH 606 0
DWIDTH 20 0
BBX 20 32 5 -8
BITMAP
7FFFF0
707070
607030
40F020
C0E020
80E020
00E000
01E000
01C000
01C000
01C000
01C000
03C000
038000
038000
038000
038000
078000
070000
070000
070000
0F0000
0F0000
7FE000
018000
010000
030000
038000
01C000
01C000
018000
0F0000
ENDCHAR
STARTCHAR tcommaaccent
ENCODING 355
SWIDTH 341 0
DWIDTH 11 0
BBX 11 29 4 -8
BITMAP
0200
0600
0E00
0C00
FFE0
1C00
1C00
3800
3800
3800
3800
3000
7000
7000
7000
7100
E200
E200
EC00
F800
6000
1800
1000
3000
3800
1C00
1C00
1800
F000
ENDCHAR
STARTCHAR Tcaron
ENCODING 356
SWIDTH 606 0
DWIDTH 20 0
BBX 20 31 5 0
BITMAP
040200
020C00
039800
01F000
00E000
004000
000000
7FFFF0
707070
607030
40F020
C0E020
80E020
00E000
01E000
01C000
01C000
01C000
01C000
03C000
038000
038000
038000
038000
078000
070000
070000
070000
0F0000
0F0000
7FE000
ENDCHAR
STARTCHAR tcaron
ENCODING 357
SWIDTH 540 0
DWIDTH 17 0
BBX 16 25 4 0
BITMAP
0006
000F
0007
0007
0206
0606
0E0C
0C08
FFF0
1C00
1C00
3800
3800
3800
3800
3000
7000
7000
7000
7100
E200
E200
EC00
F800
6000
ENDCHAR
STARTCHAR Tbar
ENCODING 358
SWIDTH 606 0
DWIDTH 20 0
BBX 20 24 5 0
BITMAP
7FFFF0
707070
607030
40F020
C0E020
80E020
00E000
01E000
01C000
01C000
01C000
1FFF80
1FFF80
038000
038000
038000
038000
078000
070000
070000
070000
0F0000
0F0000
7FE000
ENDCHAR
STARTCHAR tbar
ENCODING 359
SWIDTH 341 0
DWIDTH 11 0
BBX 14 21 3 0
BITMAP
0100
0300
0700
0600
7FF0
0E00
0E00
1C00
1C00
1C00
1C00
1800
FFFC
FFFC
3800
3880
7100
7100
7600
7C00
3000
ENDCHAR
STARTCHAR Utilde
ENCODING 360
SWIDTH 794 0
DWIDTH 26 0
BBX 25 29 6 0
BITMAP
00604000
01FF8000
013F8000
02020000
00000000
FF81FF80
1C003C00
1C003800
1C003800
3C003800
38007800
38007000
38007000
38007000
7000F000
7000E000
7000E000
7000E000
7000E000
E001C000
E001C000
E001C000
E0038000
E0038000
E0038000
70070000
700E0000
383C0000
0FF00000
ENDCHAR
STARTCHAR utilde
ENCODING 361
SWIDTH 618 0
DWIDTH 21 0
BBX 17 22 4 0
BITMAP
030200
0FFC00
09FC00
101000
000000
0C0380
FC0700
1C0700
1C0700
380E00
380E00
380E00
301E00
701C00
703C00
703C00
605C00
E09880
E13900
E33B00
FC3E00
701800
ENDCHAR
STARTCHAR Umacron
ENCODING 362
SWIDTH 794 0
DWIDTH 26 0
BBX 25 27 6 0
BITMAP
007FC000
00FF8000
00000000
FF81FF80
1C003C00
1C003800
1C003800
3C003800
38007800
38007000
38007000
38007000
7000F000
7000E000
7000E000
7000E000
7000E000
E001C000
E001C000
E001C000
E0038000
E0038000
E0038000
70070000
700E0000
383C0000
0FF00000
ENDCHAR
STARTCHAR umacron
ENCODING 363
SWIDTH 618 0
DWIDTH 21 0
BBX 17 20 4 0
BITMAP
07FC00
0FF800
000000
0C0380
FC0700
1C0700
1C0700
380E00
380E00
380E00
301E00
701C00
703C00
703C00
605C00
E09880
E13900
E33B00
FC3E00
701800
ENDCHAR
STARTCHAR Ubreve
ENCODING 364
SWIDTH 794 0
DWIDTH 26 0
BBX 25 30 6 0
BITMAP
00808000
00818000
00C30000
007E0000
007C0000
00000000
FF81FF80
1C003C00
1C003800
1C003800
3C003800
38007800
38007000
38007000
38007000
7000F000
7000E000
7000E000
7000E000
7000E000
E001C000
E001C000
E001C000
E0038000
E0038000
E0038000
70070000
700E0000
383C0000
0FF00000
ENDCHAR
STARTCHAR ubreve
ENCODING 365
SWIDTH 618 0
DWIDTH 21 0
BBX 17 23 4 0
BITMAP
040400
040C00
061800
03F000
03E000
000000
0C0380
FC0700
1C0700
1C0700
380E00
380E00
380E00
301E00
701C00
703C00
703C00
605C00
E09880
E13900
E33B00
FC3E00
701800
ENDCHAR
STARTCHAR Uring
ENCODING 366
SWIDTH 794 0
DWIDTH 26 0
BBX 25 32 6 0
BITMAP
003C0000
00620000
00430000
00C30000
00C20000
00460000
003C0000
00000000
FF81FF80
1C003C00
1C003800
1C003800
3C003800
38007800
38007000
38007000
38007000
7000F000
7000E000
7000E000
7000E000
7000E000
E001C000
E001C000
E001C000
E0038000
E0038000
E0038000
70070000
700E0000
383C0000
0FF00000
ENDCHAR
STARTCHAR uring
ENCODING 367
SWIDTH 618 0
DWIDTH 21 0
BBX 17 25 4 0
BITMAP
01E000
031000
021800
061800
061000
023000
01E000
000000
0C0380
FC0700
1C0700
1C0700
380E00
380E00
380E00
301E00
701C00
703C00
703C00
605C00
E09880
E13900
E33B00
FC3E00
701800
ENDCHAR
STARTCHAR Uhungarumlaut
ENCODING 368
SWIDTH 794 0
DWIDTH 26 0
BBX 25 32 6 0
BITMAP
00188000
0019C000
00398000
00338000
00330000
00620000
00420000
00000000
FF81FF80
1C003C00
1C003800
1C003800
3C003800
38007800
38007000
38007000
38007000
7000F000
7000E000
7000E000
7000E000
7000E000
E001C000
E001C000
E001C000
E0038000
E0038000
E0038000
70070000
700E0000
383C0000
0FF00000
ENDCHAR
STARTCHAR uhungarumlaut
ENCODING 369
SWIDTH 618 0
DWIDTH 21 0
BBX 17 25 4 0
BITMAP
018800
019C00
039800
033800
033000
062000
042000
000000
0C0380
FC0700
1C0700
1C0700
380E00
380E00
380E00
301E00
701C00
703C00
703C00
605C00
E09880
E13900
E33B00
FC3E00
701800
ENDCHAR
STARTCHAR Uogonek
ENCODING 370
SWIDTH 794 0
DWIDTH 26 0
BBX 25 31 6 -7
BITMAP
FF81FF80
1C003C00
1C003800
1C003800
3C003800
38007800
38007000
38007000
38007000
7000F000
7000E000
7000E000
7000E000
7000E000
E001C000
E001C000
E001C000
E0038000
E0038000
E0038000
70070000
700E0000
383C0000
0FF00000
00600000
00800000
01800000
03000000
03000000
03100000
01E00000
ENDCHAR
STARTCHAR uogonek
ENCODING 371
SWIDTH 618 0
DWIDTH 21 0
BBX 17 24 4 -7
BITMAP
0C0380
FC0700
1C0700
1C0700
380E00
380E00
380E00
301E00
701C00
703C00
703C00
605C00
E09880
E13900
E33B00
FC3E00
701800
00C000
010000
030000
060000
060000
062000
03C000
ENDCHAR
STARTCHAR Wcircumflex
ENCODING 372
SWIDTH 946 0
DWIDTH 32 0
BBX 33 31 4 0
BITMAP
0000800000
0001C00000
0003E00000
0006700000
000C100000
0010080000
0000000000
FF80007F80
3C00E00E00
3C00E00C00
1C01E01800
1C01E01800
1C02E03000
1C02E03000
1C04E02000
1C04E06000
1C08E04000
1C08E0C000
1E10E08000
1E10E18000
1E20E18000
1E20E30000
1E40730000
1E40720000
0E80760000
0E80740000
0F007C0000
0F00780000
0E00780000
0E00700000
0C00700000
ENDCHAR
STARTCHAR wcircumflex
ENCODING 373
SWIDTH 785 0
DWIDTH 26 0
BBX 24 24 4 0
BITMAP
000800
001C00
003E00
006700
00C100
010080
000000
1C0706
FC0E06
3C0E07
380E07
380E07
381C06
381C06
701C04
703C0C
703808
705818
E07810
E0B820
E13840
E23880
FC1F00
700E00
ENDCHAR
STARTCHAR Ycircumflex
ENCODING 374
SWIDTH 591 0
DWIDTH 20 0
BBX 22 31 4 0
BITMAP
001000
003800
007C00
00CE00
018200
020100
000000
FF03FC
3C0070
1C0060
1C00C0
0E0180
0E0380
0E0300
0E0600
070C00
071800
071800
03B000
03E000
03C000
03C000
038000
038000
038000
038000
070000
070000
070000
070000
7FF000
ENDCHAR
STARTCHAR ycircumflex
ENCODING 375
SWIDTH 468 0
DWIDTH 16 0
BBX 18 32 0 -8
BITMAP
002000
007000
00F800
019C00
030400
040200
000000
0100C0
0F81C0
1F81C0
038180
038180
038180
038300
038300
038600
038600
018C00
01C800
01D800
01D000
01F000
01E000
01C000
01C000
018000
010000
030000
420000
E40000
FC0000
700000
ENDCHAR
STARTCHAR Ydieresis
ENCODING 376
SWIDTH 591 0
DWIDTH 20 0
BBX 22 28 4 0
BITMAP
018300
03C780
03C780
018300
FF03FC
3C0070
1C0060
1C00C0
0E0180
0E0380
0E0300
0E0600
070C00
071800
071800
03B000
03E000
03C000
03C000
038000
038000
038000
038000
070000
070000
070000
070000
7FF000
ENDCHAR
STARTCHAR Zacute
ENCODING 377
SWIDTH 622 0
DWIDTH 21 0
BBX 24 31 1 0
BITMAP
000040
0000E0
0001C0
000380
000600
000800
000000
01FFFF
01C01E
03003C
030078
0200F0
0201F0
0001E0
0003C0
000780
000F00
001E00
003C00
007800
007000
00F000
01E000
03C000
078000
0F0008
0F0010
1E0010
3C0030
7800E0
FFFFE0
ENDCHAR
STARTCHAR zacute
ENCODING 378
SWIDTH 468 0
DWIDTH 16 0
BBX 16 24 1 0
BITMAP
0008
001C
0038
0070
00C0
0100
0000
0FFF
0FFE
180C
1018
2030
0060
00C0
0180
0300
0600
0E02
1C06
3804
7F0C
7FFC
CFF8
C1F0
ENDCHAR
STARTCHAR Zdotaccent
ENCODING 379
SWIDTH 622 0
DWIDTH 21 0
BBX 24 29 1 0
BITMAP
000600
000F00
000F00
000600
000000
01FFFF
01C01E
03003C
030078
0200F0
0201F0
0001E0
0003C0
000780
000F00
001E00
003C00
007800
007000
00F000
01E000
03C000
078000
0F0008
0F0010
1E0010
3C0030
7800E0
FFFFE0
ENDCHAR
STARTCHAR zdotaccent
ENCODING 380
SWIDTH 468 0
DWIDTH 16 0
BBX 16 22 1 0
BITMAP
00C0
01E0
01E0
00C0
0000
0FFF
0FFE
180C
1018
2030
0060
00C0
0180
0300
0600
0E02
1C06
3804
7F0C
7FFC
CFF8
C1F0
ENDCHAR
STARTCHAR Zcaron
ENCODING 381
SWIDTH 622 0
DWIDTH 21 0
BBX 24 29 1 0
BITMAP
003030
001CE0
000FC0
000700
000200
01FFFF
01C01E
03003C
030078
0200F0
0201F0
0001E0
0003C0
000780
000F00
001E00
003C00
007800
007000
00F000
01E000
03C000
078000
0F0008
0F0010
1E0010
3C0030
7800E0
FFFFE0
ENDCHAR
STARTCHAR zcaron
ENCODING 382
SWIDTH 468 0
DWIDTH 16 0
BBX 16 24 1 0
BITMAP
0203
0306
019C
00F8
00F0
0040
0000
0FFF
0FFE
180C
1018
2030
0060
00C0
0180
0300
0600
0E02
1C06
3804
7F0C
7FFC
CFF8
C1F0
ENDCHAR
STARTCHAR uni0186
ENCODING 390
SWIDTH 661 0
DWIDTH 22 0
BBX 21 24 4 0
BITMAP
03F800
0F0700
0C01C0
1800E0
1800E0
100070
200070
000078
000078
000078
000078
000078
000078
000070
0000F0
0000F0
0001E0
4001E0
4001C0
400380
C00780
E00E00
F03C00
1FE000
ENDCHAR
STARTCHAR uni0189
ENCODING 393
SWIDTH 770 0
DWIDTH 26 0
BBX 26 24 1 0
BITMAP
07FFE000
00F07800
00E01E00
00E00F00
01E00700
01C00380
01C00380
01C00380
01C003C0
03C003C0
038003C0
3FFC03C0
038003C0
07800380
07000780
07000700
07000F00
07000F00
0F001E00
0E003C00
0E007800
0E00F000
1E03C000
FFFE0000
ENDCHAR
STARTCHAR uni018E
ENCODING 398
SWIDTH 596 0
DWIDTH 20 0
BBX 22 24 1 0
BITMAP
0FFFFC
0E01E0
0C01C0
0801C0
1801C0
100180
000380
000380
000380
040380
040300
0E0700
0FFF00
0C0700
080E00
080E00
000E00
000E00
400E00
400C00
401C00
C01C00
E01C00
FFFF80
ENDCHAR
STARTCHAR florin
ENCODING 402
SWIDTH 530 0
DWIDTH 18 0
BBX 19 28 2 -4
BITMAP
000780
000CE0
0018E0
001840
003800
003000
003000
007000
007000
007000
00E000
07FF00
00E000
00E000
01C000
01C000
01C000
018000
038000
038000
030000
030000
030000
070000
060000
C60000
EC0000
780000
ENDCHAR
STARTCHAR uni0197
ENCODING 407
SWIDTH 345 0
DWIDTH 12 0
BBX 14 24 1 0
BITMAP
07FC
01E0
01E0
01C0
01C0
01C0
01C0
03C0
0380
0380
0380
FFFC
FFFC
0700
0700
0700
0F00
0E00
0E00
0E00
0E00
1E00
1E00
FF80
ENDCHAR
STARTCHAR uni019A
ENCODING 410
SWIDTH 306 0
DWIDTH 10 0
BBX 14 25 1 0
BITMAP
0060
07E0
00E0
00E0
01C0
01C0
01C0
01C0
0380
0380
0380
FFFC
FFFC
0700
0700
0700
0600
0E00
0E00
0E00
0C40
1C80
1D80
1F00
0C00
ENDCHAR
STARTCHAR uni019D
ENCODING 413
SWIDTH 763 0
DWIDTH 25 0
BBX 32 32 -2 -8
BITMAP
00FC00FF
001E0038
001E0030
001F0030
00170030
00278030
00238020
00238060
0021C060
0061C060
0061E040
0040E040
0040F0C0
004070C0
00C078C0
00C03880
00C03880
00C03D80
01C01D80
01C01F00
01C00F00
01C00F00
03800700
03800700
03800000
03800000
03000000
07000000
07000000
C6000000
E6000000
78000000
ENDCHAR
STARTCHAR uni019F
ENCODING 415
SWIDTH 753 0
DWIDTH 25 0
BBX 23 24 4 0
BITMAP
003F00
01E0E0
038070
070038
0E001C
1E001C
3C001C
3C001C
38001E
78001E
78001E
FFFFFE
FFFFFE
F0003C
F0003C
F00038
F00038
700078
700070
7800E0
3801E0
1C03C0
0E0700
01F800
ENDCHAR
STARTCHAR Ohorn
ENCODING 416
SWIDTH 753 0
DWIDTH 25 0
BBX 26 24 4 0
BITMAP
003F0180
01E0E3C0
038071C0
070039C0
0E001D80
1E001D80
3C001F00
3C001E00
38001E00
78001E00
78001E00
70001E00
F0001E00
F0003C00
F0003C00
F0003800
F0003800
70007800
70007000
7800E000
3801E000
1C03C000
0E070000
01F80000
ENDCHAR
STARTCHAR ohorn
ENCODING 417
SWIDTH 537 0
DWIDTH 18 0
BBX 19 17 3 0
BITMAP
01F0C0
0719E0
1C0CE0
1C0EE0
380EC0
700EC0
700F80
701F00
F01E00
E01C00
E01C00
E03C00
E03800
E07800
707000
38E000
1F0000
ENDCHAR
STARTCHAR Uhorn
ENCODING 431
SWIDTH 794 0
DWIDTH 26 0
BBX 27 24 6 0
BITMAP
FF81FFC0
1C003DE0
1C0038E0
1C0038E0
3C0038C0
380078C0
38007180
38007100
38007200
7000F000
7000E000
7000E000
7000E000
7000E000
E001C000
E001C000
E001C000
E0038000
E0038000
E0038000
70070000
700E0000
383C0000
0FF00000
ENDCHAR
STARTCHAR uhorn
ENCODING 432
SWIDTH 618 0
DWIDTH 21 0
BBX 20 17 4 0
BITMAP
0C03E0
FC07F0
1C0770
1C0770
380E60
380E60
380EC0
301E80
701D00
703C00
703C00
605C00
E09880
E13900
E33B00
FC3E00
701800
ENDCHAR
STARTCHAR uni01B5
ENCODING 437
SWIDTH 622 0
DWIDTH 21 0
BBX 24 24 1 0
BITMAP
01FFFF
01C01E
03003C
030078
0200F0
0201F0
0001E0
0003C0
000780
000F00
001E00
07FFE0
07FFE0
007000
00F000
01E000
03C000
078000
0F0008
0F0010
1E0010
3C0030
7800E0
FFFFE0
ENDCHAR
STARTCHAR uni01B6
ENCODING 438
SWIDTH 468 0
DWIDTH 16 0
BBX 16 17 1 0
BITMAP
0FFF
0FFE
180C
1018
2030
0060
00C0
7FFE
7FFE
0600
0E02
1C06
3804
7F0C
7FFC
CFF8
C1F0
ENDCHAR
STARTCHAR uni01BB
ENCODING 443
SWIDTH 530 0
DWIDTH 18 0
BBX 18 23 1 0
BITMAP
007E00
01C300
078180
0701C0
0F01C0
0E01C0
0401C0
0001C0
000380
000780
FFFFC0
FFFFC0
003800
007000
01C000
038000
060000
0C0000
180000
300100
700200
FFFE00
FFFE00
ENDCHAR
STARTCHAR uni01BC
ENCODING 444
SWIDTH 530 0
DWIDTH 18 0
BBX 18 23 2 0
BITMAP
03FFC0
03FF80
020000
060000
060000
060000
040000
0C0000
0C0000
0CF000
0BFC00
0C1E00
180E00
000F00
000700
000700
000700
000600
600E00
E00C00
701C00
383000
0FC000
ENDCHAR
STARTCHAR uni01C0
ENCODING 448
SWIDTH 270 0
DWIDTH 9 0
BBX 2 24 6 0
BITMAP
C0
C0
C0
C0
C0
C0
C0
C0
C0
C0
C0
C0
C0
C0
C0
C0
C0
C0
C0
C0
C0
C0
C0
C0
ENDCHAR
STARTCHAR uni01C2
ENCODING 450
SWIDTH 570 0
DWIDTH 19 0
BBX 16 24 3 -3
BITMAP
0180
0180
0180
0180
0180
0180
0180
0180
FFFF
FFFF
0180
0180
0180
0180
0180
FFFF
FFFF
0180
0180
0180
0180
0180
0180
0180
ENDCHAR
STARTCHAR uni01C3
ENCODING 451
SWIDTH 240 0
DWIDTH 8 0
BBX 9 24 2 0
BITMAP
0300
0780
0780
0700
0F00
0F00
0E00
0E00
0E00
0C00
0C00
0C00
1800
1800
1800
1000
1000
0000
0000
0000
7000
F000
F000
6000
ENDCHAR
STARTCHAR uni01CD
ENCODING 461
SWIDTH 624 0
DWIDTH 21 0
BBX 23 31 -1 0
BITMAP
002010
001060
001CC0
000F80
000700
000200
000000
0001C0
0001C0
0003C0
0003C0
0007C0
0005C0
000DE0
0008E0
0018E0
0030E0
0030E0
0060E0
0040E0
00C0E0
00FFE0
018070
010070
030070
060070
060070
0C0070
0C0070
180078
FF03FE
ENDCHAR
STARTCHAR uni01CE
ENCODING 462
SWIDTH 561 0
DWIDTH 19 0
BBX 18 24 2 0
BITMAP
020100
010600
01CC00
00F800
007000
002000
000000
007DC0
01C380
070380
0E0380
1C0700
1C0700
380700
380F00
700E00
701E00
E01E00
E02E00
E04C40
E09C80
E31D80
7E1F00
300C00
ENDCHAR
STARTCHAR uni01CF
ENCODING 463
SWIDTH 345 0
DWIDTH 12 0
BBX 14 31 1 0
BITMAP
0804
0418
0730
03E0
01C0
0080
0000
07FC
01E0
01E0
01C0
01C0
01C0
01C0
03C0
0380
0380
0380
0380
0700
0700
0700
0700
0F00
0E00
0E00
0E00
0E00
1E00
1E00
FF80
ENDCHAR
STARTCHAR uni01D0
ENCODING 464
SWIDTH 317 0
DWIDTH 11 0
BBX 10 24 3 0
BITMAP
8040
4180
7300
3E00
1C00
0800
0000
0700
7E00
0E00
0E00
0E00
1C00
1C00
1C00
1800
3800
3800
3800
3100
7200
7600
7C00
3000
ENDCHAR
STARTCHAR uni01D1
ENCODING 465
SWIDTH 753 0
DWIDTH 25 0
BBX 23 31 4 0
BITMAP
010080
008300
00E600
007C00
003800
001000
000000
003F00
01E0E0
038070
070038
0E001C
1E001C
3C001C
3C001C
38001E
78001E
78001E
70001E
F0001E
F0003C
F0003C
F00038
F00038
700078
700070
7800E0
3801E0
1C03C0
0E0700
01F800
ENDCHAR
STARTCHAR uni01D2
ENCODING 466
SWIDTH 537 0
DWIDTH 18 0
BBX 15 24 3 0
BITMAP
0804
0418
0730
03E0
01C0
0080
0000
01F0
0718
1C0C
1C0E
380E
700E
700E
701E
F01E
E01C
E01C
E03C
E038
E078
7070
38E0
1F00
ENDCHAR
STARTCHAR uni01D3
ENCODING 467
SWIDTH 794 0
DWIDTH 26 0
BBX 25 31 6 0
BITMAP
00804000
00418000
00730000
003E0000
001C0000
00080000
00000000
FF81FF80
1C003C00
1C003800
1C003800
3C003800
38007800
38007000
38007000
38007000
7000F000
7000E000
7000E000
7000E000
7000E000
E001C000
E001C000
E001C000
E0038000
E0038000
E0038000
70070000
700E0000
383C0000
0FF00000
ENDCHAR
STARTCHAR uni01D4
ENCODING 468
SWIDTH 618 0
DWIDTH 21 0
BBX 17 24 4 0
BITMAP
080400
041800
073000
03E000
01C000
008000
000000
0C0380
FC0700
1C0700
1C0700
380E00
380E00
380E00
301E00
701C00
703C00
703C00
605C00
E09880
E13900
E33B00
FC3E00
701800
ENDCHAR
STARTCHAR uni01D5
ENCODING 469
SWIDTH 794 0
DWIDTH 26 0
BBX 24 31 6 0
BITMAP
007FC0
00FF80
000000
00C180
01E3C0
01E3C0
00C180
FF81FF
1C0038
1C0038
180078
380070
380070
380070
3800F0
3000E0
7000E0
7000E0
7001E0
7001C0
7001C0
E001C0
E003C0
E00380
E00380
E00380
E00700
600F00
701E00
383C00
0FE000
ENDCHAR
STARTCHAR uni01D6
ENCODING 470
SWIDTH 618 0
DWIDTH 21 0
BBX 17 26 4 0
BITMAP
03FE00
07FC00
000000
030600
078F00
078F00
030600
000000
000000
0C0380
FC0700
1C0700
1C0700
380F00
380E00
380E00
301E00
701C00
703C00
703C00
605C00
E09880
E13900
E33B00
FC3E00
701800
ENDCHAR
STARTCHAR uni01D7
ENCODING 471
SWIDTH 794 0
DWIDTH 26 0
BBX 24 35 6 0
BITMAP
000100
000380
000700
000E00
001800
002000
000000
00C180
01E3C0
01E3C0
00C180
FF81FF
1C0038
1C0038
180078
380070
380070
380070
3800F0
3000E0
7000E0
7000E0
7001E0
7001C0
7001C0
E001C0
E003C0
E00380
E00380
E00380
E00700
600F00
701E00
383C00
0FE000
ENDCHAR
STARTCHAR uni01D8
ENCODING 472
SWIDTH 618 0
DWIDTH 21 0
BBX 17 30 4 0
BITMAP
000400
000E00
001C00
003800
006000
008000
000000
030600
078F00
078F00
030600
000000
000000
0C0380
FC0700
1C0700
1C0700
380F00
380E00
380E00
301E00
701C00
703C00
703C00
605C00
E09880
E13900
E33B00
FC3E00
701800
ENDCHAR
STARTCHAR uni01D9
ENCODING 473
SWIDTH 794 0
DWIDTH 26 0
BBX 24 35 6 0
BITMAP
008040
004180
007300
003E00
001C00
000800
000000
00C180
01E3C0
01E3C0
00C180
FF81FF
1C0038
1C0038
180078
380070
380070
380070
3800F0
3000E0
7000E0
7000E0
7001E0
7001C0
7001C0
E001C0
E003C0
E00380
E00380
E00380
E00700
600F00
701E00
383C00
0FE000
ENDCHAR
STARTCHAR uni01DA
ENCODING 474
SWIDTH 618 0
DWIDTH 21 0
BBX 17 30 4 0
BITMAP
040200
020C00
039800
01F000
00E000
004000
000000
030600
078F00
078F00
030600
000000
000000
0C0380
FC0700
1C0700
1C0700
380F00
380E00
380E00
301E00
701C00
703C00
703C00
605C00
E09880
E13900
E33B00
FC3E00
701800
ENDCHAR
STARTCHAR uni01DB
ENCODING 475
SWIDTH 794 0
DWIDTH 26 0
BBX 24 35 6 0
BITMAP
008000
01C000
00E000
007000
001800
000400
000000
00C180
01E3C0
01E3C0
00C180
FF81FF
1C0038
1C0038
180078
380070
380070
380070
3800F0
3000E0
7000E0
7000E0
7001E0
7001C0
7001C0
E001C0
E003C0
E00380
E00380
E00380
E00700
600F00
701E00
383C00
0FE000
ENDCHAR
STARTCHAR uni01DC
ENCODING 476
SWIDTH 618 0
DWIDTH 21 0
BBX 17 30 4 0
BITMAP
020000
070000
038000
01C000
006000
001000
000000
030600
078F00
078F00
030600
000000
000000
0C0380
FC0700
1C0700
1C0700
380F00
380E00
380E00
301E00
701C00
703C00
703C00
605C00
E09880
E13900
E33B00
FC3E00
701800
ENDCHAR
STARTCHAR uni01DD
ENCODING 477
SWIDTH 453 0
DWIDTH 15 0
BBX 14 17 3 0
BITMAP
00E0
07F8
0C38
103C
201C
201C
001C
007C
03DC
1E18
3838
7030
E070
E060
E0C0
6380
3C00
ENDCHAR
STARTCHAR uni01DE
ENCODING 478
SWIDTH 624 0
DWIDTH 21 0
BBX 23 31 -1 0
BITMAP
001FF0
003FE0
000000
000C18
001E3C
001E3C
000C18
000180
0003C0
0003C0
0007C0
0005C0
000DC0
0009C0
0019C0
0011C0
0031E0
0020E0
0060E0
00C0E0
00C0E0
01FFE0
0100E0
0300E0
0200F0
060070
0C0070
0C0070
180070
380070
FE03FE
ENDCHAR
STARTCHAR uni01DF
ENCODING 479
SWIDTH 561 0
DWIDTH 19 0
BBX 18 26 2 0
BITMAP
00FF80
01FF00
000000
00C180
01E3C0
01E3C0
00C180
000000
000000
007DC0
01C380
070380
0E0380
1C0780
1C0700
380700
380F00
700E00
701E00
E01E00
E02E00
E04C40
E09C80
E31D80
7E1F00
300C00
ENDCHAR
STARTCHAR uni01E0
ENCODING 480
SWIDTH 624 0
DWIDTH 21 0
BBX 23 32 -1 0
BITMAP
003FE0
007FC0
000000
000600
000F00
000F00
000600
000000
0001C0
0001C0
0003C0
0003C0
0007C0
0005C0
000DE0
0008E0
0018E0
0030E0
0030E0
0060E0
0040E0
00C0E0
00FFE0
018070
010070
030070
060070
060070
0C0070
0C0070
180078
FF03FE
ENDCHAR
STARTCHAR uni01E1
ENCODING 481
SWIDTH 561 0
DWIDTH 19 0
BBX 18 25 2 0
BITMAP
01FF00
03FE00
000000
003000
007800
007800
003000
000000
007DC0
01C380
070380
0E0380
1C0700
1C0700
380700
380F00
700E00
701E00
E01E00
E02E00
E04C40
E09C80
E31D80
7E1F00
300C00
ENDCHAR
STARTCHAR uni01E2
ENCODING 482
SWIDTH 880 0
DWIDTH 29 0
BBX 34 27 -2 0
BITMAP
00003FE000
00007FC000
0000000000
0001FFFFC0
00003701C0
00003F00C0
00006F0080
0000CE0080
0000CE0080
00018E0000
00031E0000
00061C0200
00061C0200
000C1C0600
001FFFFE00
00103C0E00
0030380400
0060380400
00C0380000
00C0780000
0180780000
0380700100
0300700300
0600700200
0E00F00600
1C00F00E00
FF87FFFE00
ENDCHAR
STARTCHAR uni01E3
ENCODING 483
SWIDTH 779 0
DWIDTH 26 0
BBX 26 21 2 0
BITMAP
001FF000
003FE000
00000000
00008000
007D9E00
01E3F180
0703C1C0
0E0381C0
1C0781C0
18078380
38070700
300F1C00
700F6000
701F8000
E03E0000
E06E0100
E0CE0100
E08F0200
F3070C00
7E07F800
3001C000
ENDCHAR
STARTCHAR uni01E4
ENCODING 484
SWIDTH 709 0
DWIDTH 24 0
BBX 26 24 4 0
BITMAP
001FE000
01E07C00
03803800
07001800
0E001800
1C001000
1C001000
38000000
38000000
78000000
70000000
70000000
70000000
F0000000
F007FC00
F000F000
F000E000
7000E000
7000E000
780FFFC0
380FFFC0
1C01C000
0F03C000
01FC0000
ENDCHAR
STARTCHAR uni01E5
ENCODING 485
SWIDTH 499 0
DWIDTH 17 0
BBX 19 25 1 -8
BITMAP
00F0E0
070FC0
0E0600
0E0700
1E0700
1C0700
1C0F00
1C0E00
0C0E00
0E1C00
03F000
0C0000
1C0000
1E0000
0FC000
07F000
1DFC00
701E00
FFFFE0
FFFFE0
E00700
E00600
700E00
3C3C00
0FE000
ENDCHAR
STARTCHAR Gcaron
ENCODING 486
SWIDTH 709 0
DWIDTH 24 0
BBX 22 31 4 0
BITMAP
010080
008300
00E600
007C00
003800
001000
000000
001FE0
01E07C
038038
070018
0E0018
1C0010
1C0010
380000
380000
780000
700000
700000
700000
F00000
F007FC
F000F0
F000E0
7000E0
7000E0
7801E0
3801C0
1C01C0
0F03C0
01FC00
ENDCHAR
STARTCHAR gcaron
ENCODING 487
SWIDTH 499 0
DWIDTH 17 0
BBX 19 32 1 -8
BITMAP
020100
010600
01CC00
00F800
007000
002000
000000
00F0E0
070FC0
0E0600
0E0700
1E0700
1C0700
1C0F00
1C0E00
0C0E00
0E1C00
03F000
0C0000
1C0000
1E0000
0FC000
07F000
1DFC00
701E00
600F00
E00700
E00700
E00600
700E00
3C3C00
0FE000
ENDCHAR
STARTCHAR uni01E8
ENCODING 488
SWIDTH 650 0
DWIDTH 22 0
BBX 26 31 1 0
BITMAP
00402000
0020C000
00398000
001F0000
000E0000
00040000
00000000
07FC7FC0
01E01E00
01E03800
01C07000
01C0C000
01C18000
01C30000
03860000
038C0000
03B00000
03F00000
03F00000
07F80000
07380000
073C0000
071C0000
0F1E0000
0E0F0000
0E0F0000
0E078000
0E038000
1E03C000
1E01F000
FF807800
ENDCHAR
STARTCHAR uni01E9
ENCODING 489
SWIDTH 545 0
DWIDTH 18 0
BBX 17 32 3 0
BITMAP
201000
106000
1CC000
0F8000
070000
020000
000000
038000
1F8000
070000
070000
070000
070000
0E0000
0E0000
0E0380
0E0F80
0C3F00
1C7000
1CC000
1D8000
1D0000
3F8000
3B8000
3B8000
3BC000
71C000
71C100
70E200
70F600
E07C00
E03800
ENDCHAR
STARTCHAR uni01EA
ENCODING 490
SWIDTH 753 0
DWIDTH 25 0
BBX 23 31 4 -7
BITMAP
003F00
01E0E0
038070
070038
0E001C
1E001C
3C001C
3C001C
38001E
78001E
78001E
70001E
F0001E
F0003C
F0003C
F00038
F00038
700078
700070
7800E0
3801E0
1C03C0
0E0700
01F800
001800
002000
006000
00C000
00C000
00C400
007800
ENDCHAR
STARTCHAR uni01EB
ENCODING 491
SWIDTH 537 0
DWIDTH 18 0
BBX 15 24 3 -7
BITMAP
01F0
0718
1C0C
1C0E
380E
700E
700E
701E
F01E
E01C
E01C
E03C
E038
E078
7070
38E0
1F00
0300
0400
0C00
1800
1800
1880
0F00
ENDCHAR
STARTCHAR uni01EC
ENCODING 492
SWIDTH 753 0
DWIDTH 25 0
BBX 23 34 4 -7
BITMAP
00FF80
01FF00
000000
003F00
01E0E0
038070
070038
0E001C
1E001C
3C001C
3C001C
38001E
78001E
78001E
70001E
F0001E
F0003C
F0003C
F00038
F00038
700078
700070
7800E0
3801E0
1C03C0
0E0700
01F800
001800
002000
006000
00C000
00C000
00C400
007800
ENDCHAR
STARTCHAR uni01ED
ENCODING 493
SWIDTH 537 0
DWIDTH 18 0
BBX 15 27 3 -7
BITMAP
07FC
0FF8
0000
01F0
0718
1C0C
1C0E
380E
700E
700E
701E
F01E
E01C
E01C
E03C
E038
E078
7070
38E0
1F00
0300
0400
0C00
1800
1800
1880
0F00
ENDCHAR
STARTCHAR uni01F0
ENCODING 496
SWIDTH 309 0
DWIDTH 10 0
BBX 14 32 -2 -8
BITMAP
0804
0418
0730
03E0
01C0
0080
0000
0038
03F0
0070
0070
0070
0070
00E0
00E0
00E0
00E0
00C0
01C0
01C0
01C0
01C0
0380
0380
0380
0380
0300
0700
0700
C600
E600
7800
ENDCHAR
STARTCHAR uni01F4
ENCODING 500
SWIDTH 709 0
DWIDTH 24 0
BBX 22 31 4 0
BITMAP
000100
000380
000700
000E00
001800
002000
000000
001FE0
01E07C
038038
070018
0E0018
1C0010
1C0010
380000
380000
780000
700000
700000
700000
F00000
F007FC
F000F0
F000E0
7000E0
7000E0
7801E0
3801C0
1C01C0
0F03C0
01FC00
ENDCHAR
STARTCHAR uni01F5
ENCODING 501
SWIDTH 499 0
DWIDTH 17 0
BBX 19 32 1 -8
BITMAP
000400
000E00
001C00
003800
006000
008000
000000
00F0E0
070FC0
0E0600
0E0700
1E0700
1C0700
1C0F00
1C0E00
0C0E00
0E1C00
03F000
0C0000
1C0000
1E0000
0FC000
07F000
1DFC00
701E00
600F00
E00700
E00700
E00600
700E00
3C3C00
0FE000
ENDCHAR
STARTCHAR uni01F8
ENCODING 504
SWIDTH 763 0
DWIDTH 25 0
BBX 29 31 1 0
BITMAP
00100000
00380000
001C0000
000E0000
00030000
00008000
00000000
07E007F8
00F001C0
00F00180
00F80180
00B80180
013C0180
011C0100
011C0300
010E0300
030E0300
030F0200
02070200
02078600
02038600
0603C600
0601C400
0601C400
0401EC00
0C00EC00
0C00F800
0C007800
0C007800
1C003800
FF003800
ENDCHAR
STARTCHAR uni01F9
ENCODING 505
SWIDTH 618 0
DWIDTH 21 0
BBX 18 24 3 0
BITMAP
020000
070000
038000
01C000
006000
001000
000000
070700
7E1F80
0E6380
0E4380
0E8380
1D0300
1E0700
1E0700
1C0700
3C0E00
380E00
380E00
380C40
701C80
701D80
701F00
E00C00
ENDCHAR
STARTCHAR Aringacute
ENCODING 506
SWIDTH 624 0
DWIDTH 21 0
BBX 23 36 -1 0
BITMAP
000020
000070
0000E0
0001C0
000300
000400
000000
0001E0
000310
000618
000618
000630
0003E0
0001C0
0003C0
0007E0
0005E0
000DE0
0009E0
0018E0
0010E0
0030E0
0020E0
0060F0
00C0F0
00C0F0
01FFF0
010070
030070
020070
060070
0C0078
0C0078
180038
380078
FE03FE
ENDCHAR
STARTCHAR aringacute
ENCODING 507
SWIDTH 561 0
DWIDTH 19 0
BBX 18 32 2 0
BITMAP
000200
000700
000E00
001C00
003000
004000
000000
003800
006400
004600
00C600
00C600
004C00
003800
000000
007D80
01C380
070300
0E0300
1C0700
1C0700
380700
380E00
700E00
701E00
E01E00
E02E00
E04C40
E09C80
E31D80
7E1F00
300C00
ENDCHAR
STARTCHAR AEacute
ENCODING 508
SWIDTH 880 0
DWIDTH 29 0
BBX 34 31 -2 0
BITMAP
0000008000
000001C000
0000038000
0000070000
00000C0000
0000100000
0000000000
0001FFFFC0
00003701C0
00003F00C0
00006F0080
0000CE0080
0000CE0080
00018E0000
00031E0000
00061C0200
00061C0200
000C1C0600
001FFFFE00
00103C0E00
0030380400
0060380400
00C0380000
00C0780000
0180780000
0380700100
0300700300
0600700200
0E00F00600
1C00F00E00
FF87FFFE00
ENDCHAR
STARTCHAR aeacute
ENCODING 509
SWIDTH 779 0
DWIDTH 26 0
BBX 26 25 2 0
BITMAP
00002000
00007000
0000E000
0001C000
00030000
00040000
00000000
00008000
007D9E00
01E3F180
0703C1C0
0E0381C0
1C0781C0
18078380
38070700
300F1C00
700F6000
701F8000
E03E0000
E06E0100
E0CE0100
E08F0200
F3070C00
7E07F800
3001C000
ENDCHAR
STARTCHAR Oslashacute
ENCODING 510
SWIDTH 753 0
DWIDTH 25 0
BBX 23 33 4 -1
BITMAP
000080
0001C0
000380
000700
000C00
001000
000000
000008
003F9C
01E0F0
038070
070078
0E00FC
1E019C
3C011C
3C031C
38061E
780C1E
78081E
70181E
F0301E
F0603C
F0403C
F0C038
F18038
730078
720070
7C00E0
3C01E0
1C03C0
3E0700
63F800
400000
ENDCHAR
STARTCHAR oslashacute
ENCODING 511
SWIDTH 537 0
DWIDTH 18 0
BBX 16 26 3 -1
BITMAP
0008
001C
0038
0070
00C0
0100
0000
0002
01F3
070E
0E0E
1C1F
3837
3867
7047
70C7
F18F
E30E
E60E
E41E
E81C
F838
7078
70E0
CF00
4000
ENDCHAR
STARTCHAR Scommaaccent
ENCODING 536
SWIDTH 533 0
DWIDTH 18 0
BBX 17 34 2 -10
BITMAP
007E00
018380
030180
070180
0E0180
0E0100
0E0000
0F0000
0F8000
07C000
03F000
01F800
007C00
003E00
001E00
000F00
400700
400700
400700
600600
E00E00
F00C00
7C3800
07C000
000000
018000
03C000
01C000
01C000
018000
018000
030000
060000
040000
ENDCHAR
STARTCHAR scommaaccent
ENCODING 537
SWIDTH 389 0
DWIDTH 13 0
BBX 13 27 2 -10
BITMAP
03C0
0C70
0838
1830
1800
1C00
0E00
0F00
0780
03C0
01C0
01E0
60E0
E0E0
F0C0
7180
1E00
0000
0600
0F00
0700
0700
0600
0600
0C00
1800
1000
ENDCHAR
STARTCHAR Tcommaaccent
ENCODING 538
SWIDTH 606 0
DWIDTH 20 0
BBX 20 34 5 -10
BITMAP
7FFFF0
707070
607030
40F020
C0E020
80E020
00E000
01E000
01C000
01C000
01C000
01C000
03C000
038000
038000
038000
038000
078000
070000
070000
070000
0F0000
0F0000
7FE000
000000
018000
03C000
01C000
01C000
018000
018000
030000
060000
040000
ENDCHAR
STARTCHAR tcommaaccent
ENCODING 539
SWIDTH 341 0
DWIDTH 11 0
BBX 11 31 4 -10
BITMAP
0200
0600
0E00
0C00
FFE0
1C00
1C00
3800
3800
3800
3800
3000
7000
7000
7000
7100
E200
E200
EC00
F800
6000
0000
1800
3C00
1C00
1C00
1800
1800
3000
6000
4000
ENDCHAR
STARTCHAR uni021E
ENCODING 542
SWIDTH 775 0
DWIDTH 26 0
BBX 28 31 2 0
BITMAP
00100800
00083000
000E6000
0007C000
00038000
00010000
00000000
07FC1FF0
01E00780
01E00780
01C00700
01C00700
01C00700
01C00700
03C00F00
03800E00
03800E00
03800E00
03FFFE00
07001C00
07001C00
07001C00
07001C00
0F003C00
0E003800
0E003800
0E003800
0E003800
1E007800
1E007800
FF83FE00
ENDCHAR
STARTCHAR uni021F
ENCODING 543
SWIDTH 607 0
DWIDTH 20 0
BBX 17 32 3 0
BITMAP
100800
083000
0E6000
07C000
038000
010000
000000
038000
1F8000
078000
070000
070000
070000
070000
0E0000
0E0700
0E1F80
0E6380
0CC380
1C8380
1D0700
1E0700
1A0700
3C0E00
3C0E00
381C00
381C00
781880
703900
703B00
703E00
E01800
ENDCHAR
STARTCHAR uni0226
ENCODING 550
SWIDTH 624 0
DWIDTH 21 0
BBX 23 29 -1 0
BITMAP
000600
000F00
000F00
000600
000000
0001C0
0001C0
0003C0
0003C0
0007C0
0005C0
000DE0
0008E0
0018E0
0030E0
0030E0
0060E0
0040E0
00C0E0
00FFE0
018070
010070
030070
060070
060070
0C0070
0C0070
180078
FF03FE
ENDCHAR
STARTCHAR uni0227
ENCODING 551
SWIDTH 561 0
DWIDTH 19 0
BBX 18 22 2 0
BITMAP
003000
007800
007800
003000
000000
007DC0
01C380
070380
0E0380
1C0700
1C0700
380700
380F00
700E00
701E00
E01E00
E02E00
E04C40
E09C80
E31D80
7E1F00
300C00
ENDCHAR
STARTCHAR uni0228
ENCODING 552
SWIDTH 596 0
DWIDTH 20 0
BBX 22 32 1 -8
BITMAP
07FFFC
00E01C
00E00C
00E008
00C008
01C008
01C000
01C000
01C040
01C040
0380C0
03FFC0
0381C0
030080
070080
070000
070000
070000
060020
0E0060
0E0040
0E00C0
1E01C0
FFFFC0
003000
002000
006000
007000
003800
003800
003000
01E000
ENDCHAR
STARTCHAR uni0229
ENCODING 553
SWIDTH 453 0
DWIDTH 15 0
BBX 14 25 3 -8
BITMAP
00F0
0718
0C1C
181C
381C
3038
7070
61E0
EF00
F800
E000
E010
E010
F020
70C0
7F80
1C00
0600
0400
0C00
0E00
0700
0700
0600
3C00
ENDCHAR
STARTCHAR uni022A
ENCODING 554
SWIDTH 753 0
DWIDTH 25 0
BBX 23 31 4 0
BITMAP
007FC0
00FF80
000000
003060
0078F0
0078F0
003060
003F00
01E0E0
038070
070038
0E001C
1C001C
3C001C
3C001C
38001E
78001E
78001E
70001E
F0001E
F0003C
F0003C
F00038
F00038
700078
700070
7000E0
3801E0
1C0380
0E0700
01F800
ENDCHAR
STARTCHAR uni022B
ENCODING 555
SWIDTH 537 0
DWIDTH 18 0
BBX 16 26 3 0
BITMAP
03FE
07FC
0000
0306
078F
078F
0306
0000
0000
01F0
0718
1C0C
1C0E
380E
700E
700E
701E
F01E
E01C
E01C
E03C
E038
E078
6070
30E0
1F00
ENDCHAR
STARTCHAR uni022C
ENCODING 556
SWIDTH 753 0
DWIDTH 25 0
BBX 23 31 4 0
BITMAP
007FC0
00FF80
000000
001E30
007FE0
0047C0
008000
003F00
01E0E0
038070
070038
0E001C
1E001C
3C001C
3C001C
38001E
78001E
78001E
70001E
F0001E
F0003C
F0003C
F00038
F00038
700078
700070
7800E0
3801E0
1C03C0
0E0700
01F800
ENDCHAR
STARTCHAR uni022D
ENCODING 557
SWIDTH 537 0
DWIDTH 18 0
BBX 15 26 3 0
BITMAP
07FC
0FF8
0000
0382
07C4
087C
0830
0000
0000
01F0
0718
1C0C
1C0E
380E
700E
700E
701E
F01E
E01C
E01C
E03C
E038
E078
7070
38E0
1F00
ENDCHAR
STARTCHAR uni022E
ENCODING 558
SWIDTH 753 0
DWIDTH 25 0
BBX 23 29 4 0
BITMAP
001800
003C00
003C00
001800
000000
003F00
01E0E0
038070
070038
0E001C
1E001C
3C001C
3C001C
38001E
78001E
78001E
70001E
F0001E
F0003C
F0003C
F00038
F00038
700078
700070
7800E0
3801E0
1C03C0
0E0700
01F800
ENDCHAR
STARTCHAR uni022F
ENCODING 559
SWIDTH 537 0
DWIDTH 18 0
BBX 15 22 3 0
BITMAP
0180
03C0
03C0
0180
0000
01F0
0718
1C0C
1C0E
380E
700E
700E
701E
F01E
E01C
E01C
E03C
E038
E078
7070
38E0
1F00
ENDCHAR
STARTCHAR uni0230
ENCODING 560
SWIDTH 753 0
DWIDTH 25 0
BBX 23 32 4 0
BITMAP
007FC0
00FF80
000000
001800
003C00
003C00
001800
000000
003F00
01E0E0
038070
070038
0E001C
1E001C
3C001C
3C001C
38001E
78001E
78001E
70001E
F0001E
F0003C
F0003C
F00038
F00038
700078
700070
7800E0
3801E0
1C03C0
0E0700
01F800
ENDCHAR
STARTCHAR uni0231
ENCODING 561
SWIDTH 537 0
DWIDTH 18 0
BBX 15 25 3 0
BITMAP
0FF8
1FF0
0000
0180
03C0
03C0
0180
0000
01F0
0718
1C0C
1C0E
380E
700E
700E
701E
F01E
E01C
E01C
E03C
E038
E078
7070
38E0
1F00
ENDCHAR
STARTCHAR uni0232
ENCODING 562
SWIDTH 591 0
DWIDTH 20 0
BBX 22 27 4 0
BITMAP
01FF00
03FE00
000000
FF03FC
3C0070
1C0060
1C00C0
0E0180
0E0380
0E0300
0E0600
070C00
071800
071800
03B000
03E000
03C000
03C000
038000
038000
038000
038000
070000
070000
070000
070000
7FF000
ENDCHAR
STARTCHAR uni0233
ENCODING 563
SWIDTH 468 0
DWIDTH 16 0
BBX 18 28 0 -8
BITMAP
03FE00
07FC00
000000
0100C0
0F81C0
1F81C0
038180
038180
038180
038300
038300
038600
038600
018C00
01C800
01D800
01D000
01F000
01E000
01C000
01C000
018000
010000
030000
420000
E40000
FC0000
700000
ENDCHAR
STARTCHAR uni0250
ENCODING 592
SWIDTH 561 0
DWIDTH 19 0
BBX 18 17 2 0
BITMAP
0C0300
3E1F80
6E31C0
4E41C0
8C81C0
1D01C0
1E01C0
1E0380
1C0380
3C0700
380700
380E00
380E00
701C00
703800
70E000
EF8000
ENDCHAR
STARTCHAR uni0259
ENCODING 601
SWIDTH 453 0
DWIDTH 15 0
BBX 14 17 3 0
BITMAP
00E0
07F8
0C38
103C
201C
201C
001C
007C
03DC
1E18
3838
7030
E070
E060
E0C0
6380
3C00
ENDCHAR
STARTCHAR uni025F
ENCODING 607
SWIDTH 315 0
DWIDTH 11 0
BBX 20 33 -2 -17
BITMAP
0001E0
000270
000670
000600
000600
000C00
000C00
000C00
001C00
001C00
001C00
001800
003800
003800
003800
003800
003000
007000
007000
007000
007000
00F000
00E000
00E000
0FFC00
00E000
01C000
01C000
018000
418000
E38000
730000
3C0000
ENDCHAR
STARTCHAR uni0265
ENCODING 613
SWIDTH 607 0
DWIDTH 20 0
BBX 17 25 3 -9
BITMAP
0C0380
3E0700
6E0700
4E0700
8C0F00
1C0E00
1C0E00
381E00
381E00
702C00
703C00
705C00
E09C00
E19800
E33800
FC3800
703800
003800
007000
007000
007000
007000
00F000
00FC00
00E000
ENDCHAR
STARTCHAR uni0275
ENCODING 629
SWIDTH 537 0
DWIDTH 18 0
BBX 15 17 3 0
BITMAP
01F0
0718
1C0C
1C0E
380E
700E
700E
FFFE
FFFE
E01C
E01C
E03C
E038
E078
7070
38E0
1F00
ENDCHAR
STARTCHAR uni0279
ENCODING 633
SWIDTH 402 0
DWIDTH 13 0
BBX 13 17 3 0
BITMAP
0038
0030
0070
0070
0070
0060
00E0
00E0
00E0
01C0
01C0
03C0
03C0
4580
F980
F3F0
E380
ENDCHAR
STARTCHAR uni0287
ENCODING 647
SWIDTH 341 0
DWIDTH 11 0
BBX 11 21 4 0
BITMAP
00C0
03E0
06E0
08E0
08E0
11C0
01C0
01C0
01C0
0180
0380
0380
0380
0380
0700
0700
FFE0
0600
0E00
0C00
0800
ENDCHAR
STARTCHAR uni0289
ENCODING 649
SWIDTH 618 0
DWIDTH 21 0
BBX 17 17 4 0
BITMAP
0C0380
FC0700
1C0700
1C0700
380E00
380E00
380E00
FFFF80
FFFF80
703C00
703C00
605C00
E09880
E13900
E33B00
FC3E00
701800
ENDCHAR
STARTCHAR uni028C
ENCODING 652
SWIDTH 510 0
DWIDTH 17 0
BBX 15 17 4 0
BITMAP
001C
007E
008E
010E
020E
040E
081C
181C
101C
301C
6018
6038
6038
E038
E038
E07E
4078
ENDCHAR
STARTCHAR uni028D
ENCODING 653
SWIDTH 785 0
DWIDTH 26 0
BBX 24 17 4 0
BITMAP
00700E
00F83F
011C47
021C87
041D07
081E07
181A0E
101C0E
303C0E
20380E
60381C
60381C
E0701C
E0701C
E0703C
60703F
60E038
ENDCHAR
STARTCHAR uni028E
ENCODING 654
SWIDTH 468 0
DWIDTH 16 0
BBX 18 25 0 0
BITMAP
000380
000FC0
0009C0
001080
003000
002000
006000
00E000
00E000
01E000
03E000
02E000
06E000
04E000
0C6000
187000
187000
307000
307000
607000
607000
607000
E07E00
E07C00
C02000
ENDCHAR
STARTCHAR uni029E
ENCODING 670
SWIDTH 545 0
DWIDTH 18 0
BBX 17 25 3 -9
BITMAP
0E0380
1F0380
378700
238700
41C700
01C700
01EE00
00EE00
00EE00
00FE00
005C00
00DC00
019C00
071C00
7E1800
F83800
E03800
003800
003800
007000
007000
007000
007000
00FC00
00E000
ENDCHAR
STARTCHAR uni02BB
ENCODING 699
SWIDTH 216 0
DWIDTH 7 0
BBX 5 9 6 16
BITMAP
08
10
20
60
60
E0
E0
F0
60
ENDCHAR
STARTCHAR afii57929
ENCODING 700
SWIDTH 216 0
DWIDTH 7 0
BBX 5 9 5 16
BITMAP
30
78
38
38
30
30
60
40
80
ENDCHAR
STARTCHAR afii64937
ENCODING 701
SWIDTH 216 0
DWIDTH 7 0
BBX 5 9 5 16
BITMAP
60
F0
E0
E0
60
60
30
10
08
ENDCHAR
STARTCHAR circumflex
ENCODING 710
SWIDTH 400 0
DWIDTH 13 0
BBX 10 6 7 18
BITMAP
0400
0E00
1F00
3380
6080
8040
ENDCHAR
STARTCHAR caron
ENCODING 711
SWIDTH 400 0
DWIDTH 13 0
BBX 10 6 8 18
BITMAP
8040
4180
7300
3E00
1C00
0800
ENDCHAR
STARTCHAR uni02C8
ENCODING 712
SWIDTH 216 0
DWIDTH 7 0
BBX 4 9 6 16
BITMAP
70
70
E0
E0
E0
C0
C0
C0
80
ENDCHAR
STARTCHAR macron
ENCODING 713
SWIDTH 400 0
DWIDTH 13 0
BBX 10 2 8 20
BITMAP
7FC0
FF80
ENDCHAR
STARTCHAR uni02CA
ENCODING 714
SWIDTH 400 0
DWIDTH 13 0
BBX 7 6 9 18
BITMAP
04
0E
1C
38
60
80
ENDCHAR
STARTCHAR uni02CB
ENCODING 715
SWIDTH 400 0
DWIDTH 13 0
BBX 7 6 6 18
BITMAP
40
E0
70
38
0C
02
ENDCHAR
STARTCHAR uni02CD
ENCODING 717
SWIDTH 400 0
DWIDTH 13 0
BBX 10 2 8 -3
BITMAP
7FC0
FF80
ENDCHAR
STARTCHAR uni02CE
ENCODING 718
SWIDTH 400 0
DWIDTH 13 0
BBX 7 6 6 -7
BITMAP
40
E0
70
38
0C
02
ENDCHAR
STARTCHAR uni02CF
ENCODING 719
SWIDTH 400 0
DWIDTH 13 0
BBX 7 6 9 -7
BITMAP
04
0E
1C
38
60
80
ENDCHAR
STARTCHAR breve
ENCODING 728
SWIDTH 400 0
DWIDTH 13 0
BBX 9 5 9 19
BITMAP
8080
8180
C300
7E00
7C00
ENDCHAR
STARTCHAR dotaccent
ENCODING 729
SWIDTH 402 0
DWIDTH 13 0
BBX 4 4 9 19
BITMAP
60
F0
F0
60
ENDCHAR
STARTCHAR ring
ENCODING 730
SWIDTH 400 0
DWIDTH 13 0
BBX 8 7 7 18
BITMAP
3C
62
43
C3
C2
46
3C
ENDCHAR
STARTCHAR ogonek
ENCODING 731
SWIDTH 350 0
DWIDTH 12 0
BBX 6 7 4 -7
BITMAP
18
20
60
C0
C0
C4
78
ENDCHAR
STARTCHAR tilde
ENCODING 732
SWIDTH 400 0
DWIDTH 13 0
BBX 12 4 6 19
BITMAP
1810
7FE0
4FE0
8080
ENDCHAR
STARTCHAR hungarumlaut
ENCODING 733
SWIDTH 400 0
DWIDTH 13 0
BBX 9 7 7 18
BITMAP
3100
3380
7300
6700
6600
C400
8400
ENDCHAR
STARTCHAR uni02EE
ENCODING 750
SWIDTH 402 0
DWIDTH 13 0
BBX 11 9 5 16
BITMAP
30C0
39E0
38E0
38E0
30C0
30C0
6180
4100
8200
ENDCHAR
STARTCHAR uni037E
ENCODING 894
SWIDTH 265 0
DWIDTH 9 0
BBX 8 21 1 -4
BITMAP
06
0F
0F
0E
00
00
00
00
00
00
00
08
1C
3C
1C
1C
18
10
20
40
80
ENDCHAR
STARTCHAR tonos
ENCODING 900
SWIDTH 400 0
DWIDTH 13 0
BBX 7 6 9 18
BITMAP
04
0E
1C
38
60
80
ENDCHAR
STARTCHAR dieresistonos
ENCODING 901
SWIDTH 400 0
DWIDTH 13 0
BBX 11 11 7 19
BITMAP
0080
01C0
0380
0700
0C00
1000
0000
60C0
F1E0
F1E0
60C0
ENDCHAR
STARTCHAR anoteleia
ENCODING 903
SWIDTH 265 0
DWIDTH 9 0
BBX 4 4 4 6
BITMAP
60
F0
F0
60
ENDCHAR
STARTCHAR mu
ENCODING 956
SWIDTH 618 0
DWIDTH 21 0
BBX 19 24 2 -7
BITMAP
0380E0
3F01C0
0701C0
0701C0
060380
060380
0E0380
0E0780
0C0700
0C0F00
1C0F00
1C1700
182620
384E40
38CEC0
3F0F80
2C0600
600000
600000
600000
600000
E00000
E00000
E00000
ENDCHAR
STARTCHAR uni1E00
ENCODING 7680
SWIDTH 624 0
DWIDTH 21 0
BBX 23 32 -1 -8
BITMAP
0001C0
0001C0
0003C0
0003C0
0007C0
0005C0
000DE0
0008E0
0018E0
0030E0
0030E0
0060E0
0040E0
00C0E0
00FFE0
018070
010070
030070
060070
060070
0C0070
0C0070
180078
FF03FE
000000
001E00
003100
002180
006180
006100
002300
001E00
ENDCHAR
STARTCHAR uni1E01
ENCODING 7681
SWIDTH 561 0
DWIDTH 19 0
BBX 18 25 2 -8
BITMAP
007DC0
01C380
070380
0E0380
1C0700
1C0700
380700
380F00
700E00
701E00
E01E00
E02E00
E04C40
E09C80
E31D80
7E1F00
300C00
000000
01E000
031000
021800
061800
061000
023000
01E000
ENDCHAR
STARTCHAR uni1E02
ENCODING 7682
SWIDTH 632 0
DWIDTH 21 0
BBX 20 29 2 0
BITMAP
001800
003C00
003C00
001800
000000
0FFF80
01C1E0
01C0E0
01C070
038070
038070
038070
038070
0380E0
0701C0
070780
07FC00
070F00
0703C0
0E01C0
0E01E0
0E01E0
0E01E0
0E01E0
1C01C0
1C03C0
1C0780
1C0E00
FFF000
ENDCHAR
STARTCHAR uni1E03
ENCODING 7683
SWIDTH 559 0
DWIDTH 19 0
BBX 17 30 3 0
BITMAP
030000
078000
078000
030000
000000
038000
1F8000
070000
070000
070000
070000
060000
0E0000
0E0E00
0E3F00
0C4300
1C8380
1D0380
1F0380
1A0380
3C0380
3C0700
380700
380600
380E00
780C00
781C00
783800
5C7000
C7C000
ENDCHAR
STARTCHAR uni1E04
ENCODING 7684
SWIDTH 632 0
DWIDTH 21 0
BBX 20 29 2 -5
BITMAP
0FFF80
01C1E0
01C0E0
01C070
038070
038070
038070
038070
0380E0
0701C0
070780
07FC00
070F00
0703C0
0E01C0
0E01E0
0E01E0
0E01E0
0E01E0
1C01C0
1C03C0
1C0780
1C0E00
FFF000
000000
006000
00F000
00F000
006000
ENDCHAR
STARTCHAR uni1E05
ENCODING 7685
SWIDTH 559 0
DWIDTH 19 0
BBX 17 30 3 -5
BITMAP
038000
1F8000
070000
070000
070000
070000
060000
0E0000
0E0E00
0E3F00
0C4300
1C8380
1D0380
1F0380
1A0380
3C0380
3C0700
380700
380600
380E00
780C00
781C00
783800
5C7000
C7C000
000000
030000
078000
078000
030000
ENDCHAR
STARTCHAR uni1E06
ENCODING 7686
SWIDTH 632 0
DWIDTH 21 0
BBX 20 27 2 -3
BITMAP
0FFF80
01C1E0
01C0E0
01C070
038070
038070
038070
038070
0380E0
0701C0
070780
07FC00
070F00
0703C0
0E01C0
0E01E0
0E01E0
0E01E0
0E01E0
1C01C0
1C03C0
1C0780
1C0E00
FFF000
000000
03FE00
07FC00
ENDCHAR
STARTCHAR uni1E07
ENCODING 7687
SWIDTH 559 0
DWIDTH 19 0
BBX 17 28 3 -3
BITMAP
038000
1F8000
070000
070000
070000
070000
060000
0E0000
0E0E00
0E3F00
0C4300
1C8380
1D0380
1F0380
1A0380
3C0380
3C0700
380700
380600
380E00
780C00
781C00
783800
5C7000
C7C000
000000
1FF000
3FE000
ENDCHAR
STARTCHAR uni1E08
ENCODING 7688
SWIDTH 661 0
DWIDTH 22 0
BBX 21 39 4 -8
BITMAP
000400
000E00
001C00
003800
006000
008000
000000
003FC0
01E078
038038
0F0018
0E0010
1C0010
3C0010
3C0000
780000
780000
700000
F00000
F00000
F00000
F00000
F00000
F00000
700020
700040
7800C0
3800C0
1C0180
0F0780
01FE00
004000
008000
00C000
01E000
006000
007000
006000
03C000
ENDCHAR
STARTCHAR uni1E09
ENCODING 7689
SWIDTH 441 0
DWIDTH 15 0
BBX 14 32 3 -8
BITMAP
0020
0070
00E0
01C0
0300
0400
0000
00F0
073C
0C1C
181C
3810
3000
7000
6000
6000
E000
E000
E010
E010
E020
70C0
7F80
1E00
0C00
1800
1800
1E00
0E00
0600
0E00
7800
ENDCHAR
STARTCHAR uni1E0A
ENCODING 7690
SWIDTH 763 0
DWIDTH 25 0
BBX 26 29 1 0
BITMAP
00060000
000F0000
000F0000
00060000
00000000
07FFE000
00F07800
00E01E00
00E00700
01E00700
01C00380
01C00380
01C00380
03C003C0
038003C0
038003C0
038003C0
038003C0
07800380
07000780
07000780
07000F00
07000F00
0F001E00
0E001C00
0E007800
0E00F000
1E03C000
FFFE0000
ENDCHAR
STARTCHAR uni1E0B
ENCODING 7691
SWIDTH 587 0
DWIDTH 20 0
BBX 18 30 3 0
BITMAP
000600
000F00
000F00
000600
000000
0000C0
000FC0
0001C0
0001C0
000380
000380
000380
000380
00FF00
038700
060700
0C0F00
1C0E00
380E00
381E00
701E00
701C00
603C00
E05C00
E05C00
E09880
E13900
E33B00
7C3E00
301800
ENDCHAR
STARTCHAR uni1E0C
ENCODING 7692
SWIDTH 763 0
DWIDTH 25 0
BBX 26 29 1 -5
BITMAP
07FFE000
00F07800
00E01E00
00E00700
01E00700
01C00380
01C00380
01C00380
03C003C0
038003C0
038003C0
038003C0
038003C0
07800380
07000780
07000780
07000F00
07000F00
0F001E00
0E001C00
0E007800
0E00F000
1E03C000
FFFE0000
00000000
00180000
003C0000
003C0000
00180000
ENDCHAR
STARTCHAR uni1E0D
ENCODING 7693
SWIDTH 587 0
DWIDTH 20 0
BBX 18 30 3 -5
BITMAP
0000C0
000FC0
0001C0
0001C0
000380
000380
000380
000380
00FF00
038700
060700
0C0F00
1C0E00
380E00
381E00
701E00
701C00
603C00
E05C00
E05C00
E09880
E13900
E33B00
7C3E00
301800
000000
018000
03C000
03C000
018000
ENDCHAR
STARTCHAR uni1E0E
ENCODING 7694
SWIDTH 763 0
DWIDTH 25 0
BBX 26 27 1 -3
BITMAP
07FFE000
00F07800
00E01E00
00E00700
01E00700
01C00380
01C00380
01C00380
03C003C0
038003C0
038003C0
038003C0
038003C0
07800380
07000780
07000780
07000F00
07000F00
0F001E00
0E001C00
0E007800
0E00F000
1E03C000
FFFE0000
00000000
00FF8000
01FF0000
ENDCHAR
STARTCHAR uni1E0F
ENCODING 7695
SWIDTH 587 0
DWIDTH 20 0
BBX 18 28 3 -3
BITMAP
0000C0
000FC0
0001C0
0001C0
000380
000380
000380
000380
00FF00
038700
060700
0C0F00
1C0E00
380E00
381E00
701E00
701C00
603C00
E05C00
E05C00
E09880
E13900
E33B00
7C3E00
301800
000000
0FF800
1FF000
ENDCHAR
STARTCHAR uni1E10
ENCODING 7696
SWIDTH 763 0
DWIDTH 25 0
BBX 26 32 1 -8
BITMAP
07FFE000
00F07800
00E01E00
00E00700
01E00700
01C00380
01C00380
01C00380
03C003C0
038003C0
038003C0
038003C0
038003C0
07800380
07000780
07000780
07000F00
07000F00
0F001E00
0E001C00
0E007800
0E00F000
1E03C000
FFFE0000
000C0000
00080000
00180000
001C0000
000E0000
000E0000
000C0000
00780000
ENDCHAR
STARTCHAR uni1E11
ENCODING 7697
SWIDTH 587 0
DWIDTH 20 0
BBX 18 33 3 -8
BITMAP
0000C0
000FC0
0001C0
0001C0
000380
000380
000380
000380
00FF00
038700
060700
0C0F00
1C0E00
380E00
381E00
701E00
701C00
603C00
E05C00
E05C00
E09880
E13900
E33B00
7C3E00
301800
00C000
008000
018000
01C000
00E000
00E000
00C000
078000
ENDCHAR
STARTCHAR uni1E12
ENCODING 7698
SWIDTH 763 0
DWIDTH 25 0
BBX 26 31 1 -7
BITMAP
07FFE000
00F07800
00E01E00
00E00700
01E00700
01C00380
01C00380
01C00380
03C003C0
038003C0
038003C0
038003C0
038003C0
07800380
07000780
07000780
07000F00
07000F00
0F001E00
0E001C00
0E007800
0E00F000
1E03C000
FFFE0000
00000000
00080000
001C0000
003E0000
00670000
00C10000
01008000
ENDCHAR
STARTCHAR uni1E13
ENCODING 7699
SWIDTH 587 0
DWIDTH 20 0
BBX 18 32 3 -7
BITMAP
0000C0
000FC0
0001C0
0001C0
000380
000380
000380
000380
00FF00
038700
060700
0C0F00
1C0E00
380E00
381E00
701E00
701C00
603C00
E05C00
E05C00
E09880
E13900
E33B00
7C3E00
301800
000000
008000
01C000
03E000
067000
0C1000
100800
ENDCHAR
STARTCHAR uni1E14
ENCODING 7700
SWIDTH 596 0
DWIDTH 20 0
BBX 22 34 1 0
BITMAP
004000
00E000
007000
003800
000C00
000200
000000
007FC0
00FF80
000000
07FFFC
00E01C
00E00C
00E008
00C008
01C008
01C000
01C000
01C040
01C040
0380C0
03FFC0
0381C0
030080
070080
070000
070000
070000
060020
0E0060
0E0040
0E00C0
1E01C0
FFFFC0
ENDCHAR
STARTCHAR uni1E15
ENCODING 7701
SWIDTH 453 0
DWIDTH 15 0
BBX 14 27 3 0
BITMAP
0400
0E00
0700
0380
00C0
0020
0000
07FC
0FF8
0000
00F0
0718
0C1C
181C
381C
3038
7070
61E0
EF00
F800
E000
E010
E010
F020
70C0
7F80
1C00
ENDCHAR
STARTCHAR uni1E16
ENCODING 7702
SWIDTH 596 0
DWIDTH 20 0
BBX 22 34 1 0
BITMAP
000100
000380
000700
000E00
001800
002000
000000
007FC0
00FF80
000000
07FFFC
00E01C
00E00C
00E008
00C008
01C008
01C000
01C000
01C040
01C040
0380C0
03FFC0
0381C0
030080
070080
070000
070000
070000
060020
0E0060
0E0040
0E00C0
1E01C0
FFFFC0
ENDCHAR
STARTCHAR uni1E17
ENCODING 7703
SWIDTH 453 0
DWIDTH 15 0
BBX 14 27 3 0
BITMAP
0010
0038
0070
00E0
0180
0200
0000
07FC
0FF8
0000
00F0
0718
0C1C
181C
381C
3038
7070
61E0
EF00
F800
E000
E010
E010
F020
70C0
7F80
1C00
ENDCHAR
STARTCHAR uni1E18
ENCODING 7704
SWIDTH 596 0
DWIDTH 20 0
BBX 22 31 1 -7
BITMAP
07FFFC
00E01C
00E00C
00E008
00C008
01C008
01C000
01C000
01C040
01C040
0380C0
03FFC0
0381C0
030080
070080
070000
070000
070000
060020
0E0060
0E0040
0E00C0
1E01C0
FFFFC0
000000
002000
007000
00F800
019C00
030400
040200
ENDCHAR
STARTCHAR uni1E19
ENCODING 7705
SWIDTH 453 0
DWIDTH 15 0
BBX 14 24 3 -7
BITMAP
00F0
0718
0C1C
181C
381C
3038
7070
61E0
EF00
F800
E000
E010
E010
F020
70C0
7F80
1C00
0000
0400
0E00
1F00
3380
6080
8040
ENDCHAR
STARTCHAR uni1E1A
ENCODING 7706
SWIDTH 596 0
DWIDTH 20 0
BBX 22 29 1 -5
BITMAP
07FFFC
00E01C
00E00C
00E008
00C008
01C008
01C000
01C000
01C040
01C040
0380C0
03FFC0
0381C0
030080
070080
070000
070000
070000
060020
0E0060
0E0040
0E00C0
1E01C0
FFFFC0
000000
018100
07FE00
04FE00
080800
ENDCHAR
STARTCHAR uni1E1B
ENCODING 7707
SWIDTH 453 0
DWIDTH 15 0
BBX 15 22 2 -5
BITMAP
0078
038C
060E
0C0E
1C0E
181C
3838
30F0
7780
7C00
7000
7008
7008
7810
3860
3FC0
0E00
0000
1810
7FE0
4FE0
8080
ENDCHAR
STARTCHAR uni1E1C
ENCODING 7708
SWIDTH 596 0
DWIDTH 20 0
BBX 22 38 1 -8
BITMAP
008080
008180
00C300
007E00
007C00
000000
07FFFC
00E01C
00E00C
00E008
00C008
01C008
01C000
01C000
01C040
01C040
0380C0
03FFC0
0381C0
030080
070080
070000
070000
070000
060020
0E0060
0E0040
0E00C0
1E01C0
FFFFC0
003000
002000
006000
007000
003800
003800
003000
01E000
ENDCHAR
STARTCHAR uni1E1D
ENCODING 7709
SWIDTH 453 0
DWIDTH 15 0
BBX 14 31 3 -8
BITMAP
0808
0818
0C30
07E0
07C0
0000
00F0
0718
0C1C
181C
381C
3038
7070
61E0
EF00
F800
E000
E010
E010
F020
70C0
7F80
1C00
0600
0400
0C00
0E00
0700
0700
0600
3C00
ENDCHAR
STARTCHAR uni1E1E
ENCODING 7710
SWIDTH 571 0
DWIDTH 19 0
BBX 21 29 2 0
BITMAP
001800
003C00
003C00
001800
000000
0FFFF8
01C038
01C018
01C010
01C010
038010
038000
038000
038000
038080
070080
070180
07FF80
070300
0F0100
0E0100
0E0000
0E0000
0E0000
1C0000
1C0000
1C0000
1C0000
FF8000
ENDCHAR
STARTCHAR uni1E1F
ENCODING 7711
SWIDTH 315 0
DWIDTH 11 0
BBX 20 38 -2 -8
BITMAP
001800
003C00
003C00
001800
000000
0003C0
000CE0
001C70
001820
001800
003800
003800
007000
03FF00
007000
007000
00F000
00E000
00E000
00E000
00E000
00C000
01C000
01C000
01C000
01C000
018000
038000
038000
038000
030000
030000
030000
060000
060000
E60000
E40000
780000
ENDCHAR
STARTCHAR uni1E20
ENCODING 7712
SWIDTH 709 0
DWIDTH 24 0
BBX 22 27 4 0
BITMAP
00FF80
01FF00
000000
001FE0
01E07C
038038
070018
0E0018
1C0010
1C0010
380000
380000
780000
700000
700000
700000
F00000
F007FC
F000F0
F000E0
7000E0
7000E0
7801E0
3801C0
1C01C0
0F03C0
01FC00
ENDCHAR
STARTCHAR uni1E21
ENCODING 7713
SWIDTH 499 0
DWIDTH 17 0
BBX 19 28 1 -8
BITMAP
01FF00
03FE00
000000
00F0E0
070FC0
0E0600
0E0700
1E0700
1C0700
1C0F00
1C0E00
0C0E00
0E1C00
03F000
0C0000
1C0000
1E0000
0FC000
07F000
1DFC00
701E00
600F00
E00700
E00700
E00600
700E00
3C3C00
0FE000
ENDCHAR
STARTCHAR uni1E22
ENCODING 7714
SWIDTH 775 0
DWIDTH 26 0
BBX 28 29 2 0
BITMAP
00030000
00078000
00078000
00030000
00000000
07FC1FF0
01E00780
01E00780
01C00700
01C00700
01C00700
01C00700
03C00F00
03800E00
03800E00
03800E00
03FFFE00
07001C00
07001C00
07001C00
07001C00
0F003C00
0E003800
0E003800
0E003800
0E003800
1E007800
1E007800
FF83FE00
ENDCHAR
STARTCHAR uni1E23
ENCODING 7715
SWIDTH 607 0
DWIDTH 20 0
BBX 17 30 3 0
BITMAP
030000
078000
078000
030000
000000
038000
1F8000
078000
070000
070000
070000
070000
0E0000
0E0700
0E1F80
0E6380
0CC380
1C8380
1D0700
1E0700
1A0700
3C0E00
3C0E00
381C00
381C00
781880
703900
703B00
703E00
E01800
ENDCHAR
STARTCHAR uni1E24
ENCODING 7716
SWIDTH 775 0
DWIDTH 26 0
BBX 28 29 2 -5
BITMAP
07FC1FF0
01E00780
01E00780
01C00700
01C00700
01C00700
01C00700
03C00F00
03800E00
03800E00
03800E00
03FFFE00
07001C00
07001C00
07001C00
07001C00
0F003C00
0E003800
0E003800
0E003800
0E003800
1E007800
1E007800
FF83FE00
00000000
000C0000
001E0000
001E0000
000C0000
ENDCHAR
STARTCHAR uni1E25
ENCODING 7717
SWIDTH 607 0
DWIDTH 20 0
BBX 17 30 3 -5
BITMAP
038000
1F8000
078000
070000
070000
070000
070000
0E0000
0E0700
0E1F80
0E6380
0CC380
1C8380
1D0700
1E0700
1A0700
3C0E00
3C0E00
381C00
381C00
781880
703900
703B00
703E00
E01800
000000
018000
03C000
03C000
018000
ENDCHAR
STARTCHAR uni1E26
ENCODING 7718
SWIDTH 775 0
DWIDTH 26 0
BBX 28 29 2 0
BITMAP
00183000
003C7800
003C7800
00183000
00000000
07FC1FF0
01E00780
01E00780
01C00700
01C00700
01C00700
01C00700
03C00F00
03800E00
03800E00
03800E00
03FFFE00
07001C00
07001C00
07001C00
07001C00
0F003C00
0E003800
0E003800
0E003800
0E003800
1E007800
1E007800
FF83FE00
ENDCHAR
STARTCHAR uni1E27
ENCODING 7719
SWIDTH 607 0
DWIDTH 20 0
BBX 17 30 3 0
BITMAP
183000
3C7800
3C7800
183000
000000
038000
1F8000
078000
070000
070000
070000
070000
0E0000
0E0700
0E1F80
0E6380
0CC380
1C8380
1D0700
1E0700
1A0700
3C0E00
3C0E00
381C00
381C00
781880
703900
703B00
703E00
E01800
ENDCHAR
STARTCHAR uni1E28
ENCODING 7720
SWIDTH 775 0
DWIDTH 26 0
BBX 28 32 2 -8
BITMAP
07FC1FF0
01E00780
01E00780
01C00700
01C00700
01C00700
01C00700
03C00F00
03800E00
03800E00
03800E00
03FFFE00
07001C00
07001C00
07001C00
07001C00
0F003C00
0E003800
0E003800
0E003800
0E003800
1E007800
1E007800
FF83FE00
000C0000
00080000
00180000
001C0000
000E0000
000E0000
000C0000
00780000
ENDCHAR
STARTCHAR uni1E29
ENCODING 7721
SWIDTH 607 0
DWIDTH 20 0
BBX 17 33 3 -8
BITMAP
038000
1F8000
078000
070000
070000
070000
070000
0E0000
0E0700
0E1F80
0E6380
0CC380
1C8380
1D0700
1E0700
1A0700
3C0E00
3C0E00
381C00
381C00
781880
703900
703B00
703E00
E01800
00C000
008000
018000
01C000
00E000
00E000
00C000
078000
ENDCHAR
STARTCHAR uni1E2A
ENCODING 7722
SWIDTH 775 0
DWIDTH 26 0
BBX 28 30 2 -6
BITMAP
07FC1FF0
01E00780
01E00780
01C00700
01C00700
01C00700
01C00700
03C00F00
03800E00
03800E00
03800E00
03FFFE00
07001C00
07001C00
07001C00
07001C00
0F003C00
0E003800
0E003800
0E003800
0E003800
1E007800
1E007800
FF83FE00
00000000
00808000
00818000
00C30000
007E0000
007C0000
ENDCHAR
STARTCHAR uni1E2B
ENCODING 7723
SWIDTH 607 0
DWIDTH 20 0
BBX 17 31 3 -6
BITMAP
038000
1F8000
078000
070000
070000
070000
070000
0E0000
0E0700
0E1F80
0E6380
0CC380
1C8380
1D0700
1E0700
1A0700
3C0E00
3C0E00
381C00
381C00
781880
703900
703B00
703E00
E01800
000000
101000
103000
186000
0FC000
0F8000
ENDCHAR
STARTCHAR uni1E2C
ENCODING 7724
SWIDTH 345 0
DWIDTH 12 0
BBX 14 29 1 -5
BITMAP
07FC
01E0
01E0
01C0
01C0
01C0
01C0
03C0
0380
0380
0380
0380
0700
0700
0700
0700
0F00
0E00
0E00
0E00
0E00
1E00
1E00
FF80
0000
1810
7FE0
4FE0
8080
ENDCHAR
STARTCHAR uni1E2D
ENCODING 7725
SWIDTH 317 0
DWIDTH 11 0
BBX 12 29 1 -5
BITMAP
00C0
01E0
01E0
00C0
0000
0000
0000
01C0
1F80
0380
0380
0380
0700
0700
0700
0600
0E00
0E00
0E00
0C40
1C80
1D80
1F00
0C00
0000
1810
7FE0
4FE0
8080
ENDCHAR
STARTCHAR uni1E2E
ENCODING 7726
SWIDTH 345 0
DWIDTH 12 0
BBX 15 35 2 0
BITMAP
0010
0038
0070
00E0
0180
0200
0000
060C
0F1E
0F1E
060C
0FFC
01E0
01C0
01C0
01C0
0380
0380
0380
0380
0780
0700
0700
0700
0700
0E00
0E00
0E00
0E00
1E00
1C00
1C00
1C00
1C00
FF80
ENDCHAR
STARTCHAR uni1E2F
ENCODING 7727
SWIDTH 317 0
DWIDTH 11 0
BBX 11 30 4 0
BITMAP
0080
01C0
0380
0700
0C00
1000
0000
60C0
F1E0
F1E0
60C0
0000
0000
0E00
FE00
1C00
1C00
1C00
3800
3800
3800
3800
7000
7000
7000
6200
E400
EC00
F800
6000
ENDCHAR
STARTCHAR uni1E30
ENCODING 7728
SWIDTH 650 0
DWIDTH 22 0
BBX 26 31 1 0
BITMAP
00008000
0001C000
00038000
00070000
000C0000
00100000
00000000
07FC7FC0
01E01E00
01E03800
01C07000
01C0C000
01C18000
01C30000
03860000
038C0000
03B00000
03F00000
03F00000
07F80000
07380000
073C0000
071C0000
0F1E0000
0E0F0000
0E0F0000
0E078000
0E038000
1E03C000
1E01F000
FF807800
ENDCHAR
STARTCHAR uni1E31
ENCODING 7729
SWIDTH 545 0
DWIDTH 18 0
BBX 17 32 3 0
BITMAP
002000
007000
00E000
01C000
030000
040000
000000
038000
1F8000
070000
070000
070000
070000
0E0000
0E0000
0E0380
0E0F80
0C3F00
1C7000
1CC000
1D8000
1D0000
3F8000
3B8000
3B8000
3BC000
71C000
71C100
70E200
70F600
E07C00
E03800
ENDCHAR
STARTCHAR uni1E32
ENCODING 7730
SWIDTH 650 0
DWIDTH 22 0
BBX 26 29 1 -5
BITMAP
07FC7FC0
01E01E00
01E03800
01C07000
01C0C000
01C18000
01C30000
03860000
038C0000
03B00000
03F00000
03F00000
07F80000
07380000
073C0000
071C0000
0F1E0000
0E0F0000
0E0F0000
0E078000
0E038000
1E03C000
1E01F000
FF807800
00000000
00300000
00780000
00780000
00300000
ENDCHAR
STARTCHAR uni1E33
ENCODING 7731
SWIDTH 545 0
DWIDTH 18 0
BBX 17 30 3 -5
BITMAP
038000
1F8000
070000
070000
070000
070000
0E0000
0E0000
0E0380
0E0F80
0C3F00
1C7000
1CC000
1D8000
1D0000
3F8000
3B8000
3B8000
3BC000
71C000
71C100
70E200
70F600
E07C00
E03800
000000
018000
03C000
03C000
018000
ENDCHAR
STARTCHAR uni1E34
ENCODING 7732
SWIDTH 650 0
DWIDTH 22 0
BBX 26 27 1 -3
BITMAP
07FC7FC0
01E01E00
01E03800
01C07000
01C0C000
01C18000
01C30000
03860000
038C0000
03B00000
03F00000
03F00000
07F80000
07380000
073C0000
071C0000
0F1E0000
0E0F0000
0E0F0000
0E078000
0E038000
1E03C000
1E01F000
FF807800
00000000
01FF0000
03FE0000
ENDCHAR
STARTCHAR uni1E35
ENCODING 7733
SWIDTH 545 0
DWIDTH 18 0
BBX 17 28 3 -3
BITMAP
038000
1F8000
070000
070000
070000
070000
0E0000
0E0000
0E0380
0E0F80
0C3F00
1C7000
1CC000
1D8000
1D0000
3F8000
3B8000
3B8000
3BC000
71C000
71C100
70E200
70F600
E07C00
E03800
000000
1FF000
3FE000
ENDCHAR
STARTCHAR uni1E36
ENCODING 7734
SWIDTH 565 0
DWIDTH 19 0
BBX 19 29 1 -5
BITMAP
07FC00
00E000
00E000
01E000
01C000
01C000
01C000
01C000
038000
038000
038000
038000
078000
070000
070000
070000
070000
0F0000
0E0020
0E0040
0E0040
1E00C0
1E03C0
FFFF80
000000
00C000
01E000
01E000
00C000
ENDCHAR
STARTCHAR uni1E37
ENCODING 7735
SWIDTH 306 0
DWIDTH 10 0
BBX 8 30 4 -5
BITMAP
03
3F
07
07
0E
0E
0E
0E
1C
1C
1C
1C
38
38
38
38
30
70
70
70
62
E4
EC
F8
60
00
30
78
78
30
ENDCHAR
STARTCHAR uni1E38
ENCODING 7736
SWIDTH 565 0
DWIDTH 19 0
BBX 19 32 1 -5
BITMAP
03FE00
07FC00
000000
07FC00
00E000
00E000
01E000
01C000
01C000
01C000
01C000
038000
038000
038000
038000
078000
070000
070000
070000
070000
0F0000
0E0020
0E0040
0E0040
1E00C0
1E03C0
FFFF80
000000
00C000
01E000
01E000
00C000
ENDCHAR
STARTCHAR uni1E39
ENCODING 7737
SWIDTH 306 0
DWIDTH 10 0
BBX 10 33 4 -5
BITMAP
7FC0
FF80
0000
0300
3F00
0700
0700
0E00
0E00
0E00
0E00
1C00
1C00
1C00
1C00
3800
3800
3800
3800
3000
7000
7000
7000
6200
E400
EC00
F800
6000
0000
3000
7800
7800
3000
ENDCHAR
STARTCHAR uni1E3A
ENCODING 7738
SWIDTH 565 0
DWIDTH 19 0
BBX 19 27 1 -3
BITMAP
07FC00
00E000
00E000
01E000
01C000
01C000
01C000
01C000
038000
038000
038000
038000
078000
070000
070000
070000
070000
0F0000
0E0020
0E0040
0E0040
1E00C0
1E03C0
FFFF80
000000
07FC00
0FF800
ENDCHAR
STARTCHAR uni1E3B
ENCODING 7739
SWIDTH 306 0
DWIDTH 10 0
BBX 10 28 2 -3
BITMAP
00C0
0FC0
01C0
01C0
0380
0380
0380
0380
0700
0700
0700
0700
0E00
0E00
0E00
0E00
0C00
1C00
1C00
1C00
1880
3900
3B00
3E00
1800
0000
7FC0
FF80
ENDCHAR
STARTCHAR uni1E3C
ENCODING 7740
SWIDTH 565 0
DWIDTH 19 0
BBX 19 31 1 -7
BITMAP
07FC00
00E000
00E000
01E000
01C000
01C000
01C000
01C000
038000
038000
038000
038000
078000
070000
070000
070000
070000
0F0000
0E0020
0E0040
0E0040
1E00C0
1E03C0
FFFF80
000000
004000
00E000
01F000
033800
060800
080400
ENDCHAR
STARTCHAR uni1E3D
ENCODING 7741
SWIDTH 306 0
DWIDTH 10 0
BBX 10 32 2 -7
BITMAP
00C0
0FC0
01C0
01C0
0380
0380
0380
0380
0700
0700
0700
0700
0E00
0E00
0E00
0E00
0C00
1C00
1C00
1C00
1880
3900
3B00
3E00
1800
0000
0400
0E00
1F00
3380
6080
8040
ENDCHAR
STARTCHAR uni1E3E
ENCODING 7742
SWIDTH 920 0
DWIDTH 31 0
BBX 34 31 1 0
BITMAP
0000040000
00000E0000
00001C0000
0000380000
0000600000
0000800000
0000000000
07F0001FC0
00F0003E00
00F0003C00
00B8007C00
00B800DC00
01B800B800
01B801B800
0138013800
011C033800
031C023800
031C047000
031C0C7000
021C087000
020E187000
060E107000
060E20E000
060E60E000
040E40E000
0C07C0E000
0C0780C000
0C0701C000
0C0701C000
1C0601C000
FF040FF800
ENDCHAR
STARTCHAR uni1E3F
ENCODING 7743
SWIDTH 912 0
DWIDTH 30 0
BBX 27 24 4 0
BITMAP
00004000
0000E000
0001C000
00038000
00060000
00080000
00000000
0E0E0380
7E3F0FC0
1C4731C0
1C8721C0
1D0641C0
1A068180
3E0F8380
3C0F0380
380E0380
380E0700
701C0700
701C0700
701C0620
60380E40
E0380EC0
E0380F80
C0300600
ENDCHAR
STARTCHAR uni1E40
ENCODING 7744
SWIDTH 920 0
DWIDTH 31 0
BBX 34 29 1 0
BITMAP
0000600000
0000F00000
0000F00000
0000600000
0000000000
07F0001FC0
00F0003E00
00F0003C00
00B8007C00
00B800DC00
01B800B800
01B801B800
0138013800
011C033800
031C023800
031C047000
031C0C7000
021C087000
020E187000
060E107000
060E20E000
060E60E000
040E40E000
0C07C0E000
0C0780C000
0C0701C000
0C0701C000
1C0601C000
FF040FF800
ENDCHAR
STARTCHAR uni1E41
ENCODING 7745
SWIDTH 912 0
DWIDTH 30 0
BBX 27 22 4 0
BITMAP
00060000
000F0000
000F0000
00060000
00000000
0E0E0380
7E3F0FC0
1C4731C0
1C8721C0
1D0641C0
1A068180
3E0F8380
3C0F0380
380E0380
380E0700
701C0700
701C0700
701C0620
60380E40
E0380EC0
E0380F80
C0300600
ENDCHAR
STARTCHAR uni1E42
ENCODING 7746
SWIDTH 920 0
DWIDTH 31 0
BBX 34 29 1 -5
BITMAP
07F0001FC0
00F0003E00
00F0003C00
00B8007C00
00B800DC00
01B800B800
01B801B800
0138013800
011C033800
031C023800
031C047000
031C0C7000
021C087000
020E187000
060E107000
060E20E000
060E60E000
040E40E000
0C07C0E000
0C0780C000
0C0701C000
0C0701C000
1C0601C000
FF040FF800
0000000000
0001800000
0003C00000
0003C00000
0001800000
ENDCHAR
STARTCHAR uni1E43
ENCODING 7747
SWIDTH 912 0
DWIDTH 30 0
BBX 27 22 4 -5
BITMAP
0E0E0380
7E3F0FC0
1C4731C0
1C8721C0
1D0641C0
1A068180
3E0F8380
3C0F0380
380E0380
380E0700
701C0700
701C0700
701C0620
60380E40
E0380EC0
E0380F80
C0300600
00000000
000C0000
001E0000
001E0000
000C0000
ENDCHAR
STARTCHAR uni1E44
ENCODING 7748
SWIDTH 763 0
DWIDTH 25 0
BBX 29 29 1 0
BITMAP
00030000
00078000
00078000
00030000
00000000
07E007F8
00F001C0
00F00180
00F80180
00B80180
013C0180
011C0100
011C0300
010E0300
030E0300
030F0200
02070200
02078600
02038600
0603C600
0601C400
0601C400
0401EC00
0C00EC00
0C00F800
0C007800
0C007800
1C003800
FF003800
ENDCHAR
STARTCHAR uni1E45
ENCODING 7749
SWIDTH 618 0
DWIDTH 21 0
BBX 18 22 3 0
BITMAP
006000
00F000
00F000
006000
000000
070700
7E1F80
0E6380
0E4380
0E8380
1D0300
1E0700
1E0700
1C0700
3C0E00
380E00
380E00
380C40
701C80
701D80
701F00
E00C00
ENDCHAR
STARTCHAR uni1E46
ENCODING 7750
SWIDTH 763 0
DWIDTH 25 0
BBX 29 29 1 -5
BITMAP
07E007F8
00F001C0
00F00180
00F80180
00B80180
013C0180
011C0100
011C0300
010E0300
030E0300
030F0200
02070200
02078600
02038600
0603C600
0601C400
0601C400
0401EC00
0C00EC00
0C00F800
0C007800
0C007800
1C003800
FF003800
00000000
00060000
000F0000
000F0000
00060000
ENDCHAR
STARTCHAR uni1E47
ENCODING 7751
SWIDTH 618 0
DWIDTH 21 0
BBX 18 22 3 -5
BITMAP
070700
7E1F80
0E6380
0E4380
0E8380
1D0300
1E0700
1E0700
1C0700
3C0E00
380E00
380E00
380C40
701C80
701D80
701F00
E00C00
000000
00C000
01E000
01E000
00C000
ENDCHAR
STARTCHAR uni1E48
ENCODING 7752
SWIDTH 763 0
DWIDTH 25 0
BBX 29 27 1 -3
BITMAP
07E007F8
00F001C0
00F00180
00F80180
00B80180
013C0180
011C0100
011C0300
010E0300
030E0300
030F0200
02070200
02078600
02038600
0603C600
0601C400
0601C400
0401EC00
0C00EC00
0C00F800
0C007800
0C007800
1C003800
FF003800
00000000
007FC000
00FF8000
ENDCHAR
STARTCHAR uni1E49
ENCODING 7753
SWIDTH 618 0
DWIDTH 21 0
BBX 18 20 3 -3
BITMAP
070700
7E1F80
0E6380
0E4380
0E8380
1D0300
1E0700
1E0700
1C0700
3C0E00
380E00
380E00
380C40
701C80
701D80
701F00
E00C00
000000
07FC00
0FF800
ENDCHAR
STARTCHAR uni1E4A
ENCODING 7754
SWIDTH 763 0
DWIDTH 25 0
BBX 29 31 1 -7
BITMAP
07E007F8
00F001C0
00F00180
00F80180
00B80180
013C0180
011C0100
011C0300
010E0300
030E0300
030F0200
02070200
02078600
02038600
0603C600
0601C400
0601C400
0401EC00
0C00EC00
0C00F800
0C007800
0C007800
1C003800
FF003800
00000000
00040000
000E0000
001F0000
00338000
00608000
00804000
ENDCHAR
STARTCHAR uni1E4B
ENCODING 7755
SWIDTH 618 0
DWIDTH 21 0
BBX 18 24 3 -7
BITMAP
070700
7E1F80
0E6380
0E4380
0E8380
1D0300
1E0700
1E0700
1C0700
3C0E00
380E00
380E00
380C40
701C80
701D80
701F00
E00C00
000000
004000
00E000
01F000
033800
060800
080400
ENDCHAR
STARTCHAR uni1E4C
ENCODING 7756
SWIDTH 753 0
DWIDTH 25 0
BBX 23 35 4 0
BITMAP
000080
0001C0
000380
000700
000C00
001000
000000
001E30
007FE0
0047C0
008000
003F00
01E0E0
038070
070038
0E001C
1E001C
3C001C
3C001C
38001E
78001E
78001E
70001E
F0001E
F0003C
F0003C
F00038
F00038
700078
700070
7800E0
3801E0
1C03C0
0E0700
01F800
ENDCHAR
STARTCHAR uni1E4D
ENCODING 7757
SWIDTH 537 0
DWIDTH 18 0
BBX 15 30 3 0
BITMAP
0008
001C
0038
0070
00C0
0100
0000
0382
07C4
087C
0830
0000
0000
01F0
0718
1C0C
1C0E
380E
700E
700E
701E
F01E
E01C
E01C
E03C
E038
E078
7070
38E0
1F00
ENDCHAR
STARTCHAR uni1E4E
ENCODING 7758
SWIDTH 753 0
DWIDTH 25 0
BBX 23 33 4 0
BITMAP
00C180
01E3C0
01E3C0
00C180
000000
001E30
007FE0
0047C0
008000
003F00
01E0E0
038070
070038
0E001C
1E001C
3C001C
3C001C
38001E
78001E
78001E
70001E
F0001E
F0003C
F0003C
F00038
F00038
700078
700070
7800E0
3801E0
1C03C0
0E0700
01F800
ENDCHAR
STARTCHAR uni1E4F
ENCODING 7759
SWIDTH 537 0
DWIDTH 18 0
BBX 15 28 3 0
BITMAP
0C18
1E3C
1E3C
0C18
0000
0382
07C4
087C
0830
0000
0000
01F0
0718
1C0C
1C0E
380E
700E
700E
701E
F01E
E01C
E01C
E03C
E038
E078
7070
38E0
1F00
ENDCHAR
STARTCHAR uni1E50
ENCODING 7760
SWIDTH 753 0
DWIDTH 25 0
BBX 23 34 4 0
BITMAP
008000
01C000
00E000
007000
001800
000400
000000
00FF80
01FF00
000000
003F00
01E0E0
038070
070038
0E001C
1E001C
3C001C
3C001C
38001E
78001E
78001E
70001E
F0001E
F0003C
F0003C
F00038
F00038
700078
700070
7800E0
3801E0
1C03C0
0E0700
01F800
ENDCHAR
STARTCHAR uni1E51
ENCODING 7761
SWIDTH 537 0
DWIDTH 18 0
BBX 15 27 3 0
BITMAP
0400
0E00
0700
0380
00C0
0020
0000
07FC
0FF8
0000
01F0
0718
1C0C
1C0E
380E
700E
700E
701E
F01E
E01C
E01C
E03C
E038
E078
7070
38E0
1F00
ENDCHAR
STARTCHAR uni1E52
ENCODING 7762
SWIDTH 753 0
DWIDTH 25 0
BBX 23 34 4 0
BITMAP
000100
000380
000700
000E00
001800
002000
000000
00FF80
01FF00
000000
003F00
01E0E0
038070
070038
0E001C
1E001C
3C001C
3C001C
38001E
78001E
78001E
70001E
F0001E
F0003C
F0003C
F00038
F00038
700078
700070
7800E0
3801E0
1C03C0
0E0700
01F800
ENDCHAR
STARTCHAR uni1E53
ENCODING 7763
SWIDTH 537 0
DWIDTH 18 0
BBX 15 27 3 0
BITMAP
0010
0038
0070
00E0
0180
0200
0000
07FC
0FF8
0000
01F0
0718
1C0C
1C0E
380E
700E
700E
701E
F01E
E01C
E01C
E03C
E038
E078
7070
38E0
1F00
ENDCHAR
STARTCHAR uni1E54
ENCODING 7764
SWIDTH 614 0
DWIDTH 20 0
BBX 21 31 2 0
BITMAP
000100
000380
000700
000E00
001800
002000
000000
0FFE00
01C1C0
01C0E0
01C070
01C070
038078
038078
038078
038070
038070
0700F0
0700E0
0701C0
070780
0FFC00
0E0000
0E0000
0E0000
0E0000
1C0000
1C0000
1C0000
1C0000
FF8000
ENDCHAR
STARTCHAR uni1E55
ENCODING 7765
SWIDTH 590 0
DWIDTH 20 0
BBX 18 32 3 -8
BITMAP
000400
000E00
001C00
003800
006000
008000
000000
070700
3F1F80
0E3380
0E41C0
0E81C0
0F81C0
0D01C0
1E01C0
1E0380
1C0380
1C0300
3C0700
380600
380E00
381C00
3C3800
77E000
700000
700000
700000
600000
E00000
E00000
E00000
C00000
ENDCHAR
STARTCHAR uni1E56
ENCODING 7766
SWIDTH 614 0
DWIDTH 20 0
BBX 21 29 2 0
BITMAP
001800
003C00
003C00
001800
000000
0FFE00
01C1C0
01C0E0
01C070
01C070
038078
038078
038078
038070
038070
0700F0
0700E0
0701C0
070780
0FFC00
0E0000
0E0000
0E0000
0E0000
1C0000
1C0000
1C0000
1C0000
FF8000
ENDCHAR
STARTCHAR uni1E57
ENCODING 7767
SWIDTH 590 0
DWIDTH 20 0
BBX 18 30 3 -8
BITMAP
006000
00F000
00F000
006000
000000
070700
3F1F80
0E3380
0E41C0
0E81C0
0F81C0
0D01C0
1E01C0
1E0380
1C0380
1C0300
3C0700
380600
380E00
381C00
3C3800
77E000
700000
700000
700000
600000
E00000
E00000
E00000
C00000
ENDCHAR
STARTCHAR uni1E58
ENCODING 7768
SWIDTH 640 0
DWIDTH 21 0
BBX 21 29 2 0
BITMAP
001800
003C00
003C00
001800
000000
0FFF80
01E1E0
01C0F0
01C070
01C078
038078
038078
038070
038070
0380E0
0701C0
070600
07FF00
070700
0F0780
0E0380
0E0380
0E0380
0E0380
1C0380
1C0380
1C0380
1C01C0
FF80F0
ENDCHAR
STARTCHAR uni1E59
ENCODING 7769
SWIDTH 402 0
DWIDTH 13 0
BBX 13 22 3 0
BITMAP
0300
0780
0780
0300
0000
0E38
7E78
0CF8
0D10
1E00
1E00
1C00
1C00
3800
3800
3800
3000
7000
7000
7000
6000
E000
ENDCHAR
STARTCHAR uni1E5A
ENCODING 7770
SWIDTH 640 0
DWIDTH 21 0
BBX 21 29 2 -5
BITMAP
0FFF80
01E1E0
01C0F0
01C070
01C078
038078
038078
038070
038070
0380E0
0701C0
070600
07FF00
070700
0F0780
0E0380
0E0380
0E0380
0E0380
1C0380
1C0380
1C0380
1C01C0
FF80F0
000000
006000
00F000
00F000
006000
ENDCHAR
STARTCHAR uni1E5B
ENCODING 7771
SWIDTH 402 0
DWIDTH 13 0
BBX 13 22 3 -5
BITMAP
0E38
7E78
0CF8
0D10
1E00
1E00
1C00
1C00
3800
3800
3800
3000
7000
7000
7000
6000
E000
0000
1800
3C00
3C00
1800
ENDCHAR
STARTCHAR uni1E5C
ENCODING 7772
SWIDTH 640 0
DWIDTH 21 0
BBX 21 32 2 -5
BITMAP
007FC0
00FF80
000000
0FFF80
01E1E0
01C0F0
01C070
01C078
038078
038078
038070
038070
0380E0
0701C0
070600
07FF00
070700
0F0780
0E0380
0E0380
0E0380
0E0380
1C0380
1C0380
1C0380
1C01C0
FF80F0
000000
006000
00F000
00F000
006000
ENDCHAR
STARTCHAR uni1E5D
ENCODING 7773
SWIDTH 402 0
DWIDTH 13 0
BBX 13 25 3 -5
BITMAP
1FF0
3FE0
0000
0E38
7E78
0CF8
0D10
1E00
1E00
1C00
1C00
3800
3800
3800
3000
7000
7000
7000
6000
E000
0000
1800
3C00
3C00
1800
ENDCHAR
STARTCHAR uni1E5E
ENCODING 7774
SWIDTH 640 0
DWIDTH 21 0
BBX 21 27 2 -3
BITMAP
0FFF80
01E1E0
01C0F0
01C070
01C078
038078
038078
038070
038070
0380E0
0701C0
070600
07FF00
070700
0F0780
0E0380
0E0380
0E0380
0E0380
1C0380
1C0380
1C0380
1C01C0
FF80F0
000000
03FE00
07FC00
ENDCHAR
STARTCHAR uni1E5F
ENCODING 7775
SWIDTH 402 0
DWIDTH 13 0
BBX 15 20 1 -3
BITMAP
038E
1F9E
033E
0344
0780
0780
0700
0700
0E00
0E00
0E00
0C00
1C00
1C00
1C00
1800
3800
0000
7FC0
FF80
ENDCHAR
STARTCHAR uni1E60
ENCODING 7776
SWIDTH 533 0
DWIDTH 18 0
BBX 17 29 2 0
BITMAP
006000
00F000
00F000
006000
000000
007E00
018380
030180
070180
0E0180
0E0100
0E0000
0F0000
0F8000
07C000
03F000
01F800
007C00
003E00
001E00
000F00
400700
400700
400700
600600
E00E00
F00C00
7C3800
07C000
ENDCHAR
STARTCHAR uni1E61
ENCODING 7777
SWIDTH 389 0
DWIDTH 13 0
BBX 13 22 2 0
BITMAP
0300
0780
0780
0300
0000
03C0
0C70
0838
1830
1800
1C00
0E00
0F00
0780
03C0
01C0
01E0
60E0
E0E0
F0C0
7180
1E00
ENDCHAR
STARTCHAR uni1E62
ENCODING 7778
SWIDTH 533 0
DWIDTH 18 0
BBX 17 29 2 -5
BITMAP
007E00
018380
030180
070180
0E0180
0E0100
0E0000
0F0000
0F8000
07C000
03F000
01F800
007C00
003E00
001E00
000F00
400700
400700
400700
600600
E00E00
F00C00
7C3800
07C000
000000
018000
03C000
03C000
018000
ENDCHAR
STARTCHAR uni1E63
ENCODING 7779
SWIDTH 389 0
DWIDTH 13 0
BBX 13 22 2 -5
BITMAP
03C0
0C70
0838
1830
1800
1C00
0E00
0F00
0780
03C0
01C0
01E0
60E0
E0E0
F0C0
7180
1E00
0000
0600
0F00
0F00
0600
ENDCHAR
STARTCHAR uni1E64
ENCODING 7780
SWIDTH 533 0
DWIDTH 18 0
BBX 17 36 2 0
BITMAP
003000
007800
007800
003000
000000
000400
000E00
001C00
003800
006000
008000
000000
007E00
018380
030180
070180
0E0180
0E0100
0E0000
0F0000
0F8000
07C000
03F000
01F800
007C00
003E00
001E00
000F00
400700
400700
400700
600600
E00E00
F00C00
7C3800
07C000
ENDCHAR
STARTCHAR uni1E65
ENCODING 7781
SWIDTH 389 0
DWIDTH 13 0
BBX 13 29 2 0
BITMAP
0180
03C0
03C0
0180
0000
0020
0070
00E0
01C0
0300
0400
0000
03C0
0C70
0838
1830
1800
1C00
0E00
0F00
0780
03C0
01C0
01E0
60E0
E0E0
F0C0
7180
1E00
ENDCHAR
STARTCHAR uni1E66
ENCODING 7782
SWIDTH 533 0
DWIDTH 18 0
BBX 18 35 2 0
BITMAP
003000
007800
007800
003000
000000
008000
0040C0
007380
003F00
001C00
000800
007E00
018380
030180
070180
0E0180
0E0100
0E0000
0F0000
0F8000
07C000
03F000
01F800
007C00
003E00
001E00
000F00
400700
400700
400700
600600
E00E00
F00C00
7C3800
07C000
ENDCHAR
STARTCHAR uni1E67
ENCODING 7783
SWIDTH 389 0
DWIDTH 13 0
BBX 15 29 2 0
BITMAP
00C0
01E0
01E0
00C0
0000
0C02
060C
0318
03F0
01E0
0080
0000
03C0
0C70
0838
1830
1800
1C00
0E00
0F00
0780
03C0
01C0
01E0
60E0
E0E0
F0C0
7180
1E00
ENDCHAR
STARTCHAR uni1E68
ENCODING 7784
SWIDTH 533 0
DWIDTH 18 0
BBX 17 34 2 -5
BITMAP
00C000
01E000
01E000
00C000
000000
007E00
018380
030180
070180
0E0180
0E0100
0E0000
0F0000
0F8000
07C000
03F000
01F800
007C00
003E00
001E00
000F00
400700
400700
400700
600600
E00E00
F00C00
7C3800
07C000
000000
018000
03C000
03C000
018000
ENDCHAR
STARTCHAR uni1E69
ENCODING 7785
SWIDTH 389 0
DWIDTH 13 0
BBX 13 27 2 -5
BITMAP
0300
0780
0780
0300
0000
03C0
0C70
0838
1830
1800
1C00
0E00
0F00
0780
03C0
01C0
01E0
60E0
E0E0
F0C0
7180
1E00
0000
0600
0F00
0F00
0600
ENDCHAR
STARTCHAR uni1E6A
ENCODING 7786
SWIDTH 606 0
DWIDTH 20 0
BBX 20 29 5 0
BITMAP
006000
00F000
00F000
006000
000000
7FFFF0
707070
607030
40F020
C0E020
80E020
00E000
01E000
01C000
01C000
01C000
01C000
03C000
038000
038000
038000
038000
078000
070000
070000
070000
0F0000
0F0000
7FE000
ENDCHAR
STARTCHAR uni1E6B
ENCODING 7787
SWIDTH 341 0
DWIDTH 11 0
BBX 11 26 4 0
BITMAP
0C00
1E00
1E00
0C00
0000
0200
0600
0E00
0C00
FFE0
1C00
1C00
3800
3800
3800
3800
3000
7000
7000
7000
7100
E200
E200
EC00
F800
6000
ENDCHAR
STARTCHAR uni1E6C
ENCODING 7788
SWIDTH 606 0
DWIDTH 20 0
BBX 20 29 5 -5
BITMAP
7FFFF0
707070
607030
40F020
C0E020
80E020
00E000
01E000
01C000
01C000
01C000
01C000
03C000
038000
038000
038000
038000
078000
070000
070000
070000
0F0000
0F0000
7FE000
000000
018000
03C000
03C000
018000
ENDCHAR
STARTCHAR uni1E6D
ENCODING 7789
SWIDTH 341 0
DWIDTH 11 0
BBX 11 26 4 -5
BITMAP
0200
0600
0E00
0C00
FFE0
1C00
1C00
3800
3800
3800
3800
3000
7000
7000
7000
7100
E200
E200
EC00
F800
6000
0000
1800
3C00
3C00
1800
ENDCHAR
STARTCHAR uni1E6E
ENCODING 7790
SWIDTH 606 0
DWIDTH 20 0
BBX 20 27 5 -3
BITMAP
7FFFF0
707070
607030
40F020
C0E020
80E020
00E000
01E000
01C000
01C000
01C000
01C000
03C000
038000
038000
038000
038000
078000
070000
070000
070000
0F0000
0F0000
7FE000
000000
1FF000
3FE000
ENDCHAR
STARTCHAR uni1E6F
ENCODING 7791
SWIDTH 341 0
DWIDTH 11 0
BBX 13 24 2 -3
BITMAP
0080
0180
0380
0300
3FF8
0700
0700
0E00
0E00
0E00
0E00
0C00
1C00
1C00
1C00
1C40
3880
3880
3B00
3E00
1800
0000
7FC0
FF80
ENDCHAR
STARTCHAR uni1E70
ENCODING 7792
SWIDTH 606 0
DWIDTH 20 0
BBX 20 31 5 -7
BITMAP
7FFFF0
707070
607030
40F020
C0E020
80E020
00E000
01E000
01C000
01C000
01C000
01C000
03C000
038000
038000
038000
038000
078000
070000
070000
070000
0F0000
0F0000
7FE000
000000
010000
038000
07C000
0CE000
182000
201000
ENDCHAR
STARTCHAR uni1E71
ENCODING 7793
SWIDTH 341 0
DWIDTH 11 0
BBX 13 28 2 -7
BITMAP
0080
0180
0380
0300
3FF8
0700
0700
0E00
0E00
0E00
0E00
0C00
1C00
1C00
1C00
1C40
3880
3880
3B00
3E00
1800
0000
0400
0E00
1F00
3380
6080
8040
ENDCHAR
STARTCHAR uni1E72
ENCODING 7794
SWIDTH 794 0
DWIDTH 26 0
BBX 25 29 6 -5
BITMAP
FF81FF80
1C003C00
1C003800
1C003800
3C003800
38007800
38007000
38007000
38007000
7000F000
7000E000
7000E000
7000E000
7000E000
E001C000
E001C000
E001C000
E0038000
E0038000
E0038000
70070000
700E0000
383C0000
0FF00000
00000000
060C0000
0F1E0000
0F1E0000
060C0000
ENDCHAR
STARTCHAR uni1E73
ENCODING 7795
SWIDTH 618 0
DWIDTH 21 0
BBX 17 22 4 -5
BITMAP
0C0380
FC0700
1C0700
1C0700
380E00
380E00
380E00
301E00
701C00
703C00
703C00
605C00
E09880
E13900
E33B00
FC3E00
701800
000000
183000
3C7800
3C7800
183000
ENDCHAR
STARTCHAR uni1E74
ENCODING 7796
SWIDTH 794 0
DWIDTH 26 0
BBX 25 29 6 -5
BITMAP
FF81FF80
1C003C00
1C003800
1C003800
3C003800
38007800
38007000
38007000
38007000
7000F000
7000E000
7000E000
7000E000
7000E000
E001C000
E001C000
E001C000
E0038000
E0038000
E0038000
70070000
700E0000
383C0000
0FF00000
00000000
01810000
07FE0000
04FE0000
08080000
ENDCHAR
STARTCHAR uni1E75
ENCODING 7797
SWIDTH 618 0
DWIDTH 21 0
BBX 17 22 4 -5
BITMAP
0C0380
FC0700
1C0700
1C0700
380E00
380E00
380E00
301E00
701C00
703C00
703C00
605C00
E09880
E13900
E33B00
FC3E00
701800
000000
060400
1FF800
13F800
202000
ENDCHAR
STARTCHAR uni1E76
ENCODING 7798
SWIDTH 794 0
DWIDTH 26 0
BBX 25 31 6 -7
BITMAP
FF81FF80
1C003C00
1C003800
1C003800
3C003800
38007800
38007000
38007000
38007000
7000F000
7000E000
7000E000
7000E000
7000E000
E001C000
E001C000
E001C000
E0038000
E0038000
E0038000
70070000
700E0000
383C0000
0FF00000
00000000
00400000
00E00000
01F00000
03380000
06080000
08040000
ENDCHAR
STARTCHAR uni1E77
ENCODING 7799
SWIDTH 618 0
DWIDTH 21 0
BBX 17 24 4 -7
BITMAP
0C0380
FC0700
1C0700
1C0700
380E00
380E00
380E00
301E00
701C00
703C00
703C00
605C00
E09880
E13900
E33B00
FC3E00
701800
000000
008000
01C000
03E000
067000
0C1000
100800
ENDCHAR
STARTCHAR uni1E78
ENCODING 7800
SWIDTH 794 0
DWIDTH 26 0
BBX 25 36 6 0
BITMAP
00010000
00038000
00070000
000E0000
00180000
00200000
00000000
00604000
01FF8000
013F8000
02020000
00000000
FF81FF80
1C003C00
1C003800
1C003800
3C003800
38007800
38007000
38007000
38007000
7000F000
7000E000
7000E000
7000E000
7000E000
E001C000
E001C000
E001C000
E0038000
E0038000
E0038000
70070000
700E0000
383C0000
0FF00000
ENDCHAR
STARTCHAR uni1E79
ENCODING 7801
SWIDTH 618 0
DWIDTH 21 0
BBX 17 29 4 0
BITMAP
000800
001C00
003800
007000
00C000
010000
000000
030200
0FFC00
09FC00
101000
000000
0C0380
FC0700
1C0700
1C0700
380E00
380E00
380E00
301E00
701C00
703C00
703C00
605C00
E09880
E13900
E33B00
FC3E00
701800
ENDCHAR
STARTCHAR uni1E7A
ENCODING 7802
SWIDTH 794 0
DWIDTH 26 0
BBX 25 32 6 0
BITMAP
00C18000
01E3C000
01E3C000
00C18000
00000000
007FC000
00FF8000
00000000
FF81FF80
1C003C00
1C003800
1C003800
3C003800
38007800
38007000
38007000
38007000
7000F000
7000E000
7000E000
7000E000
7000E000
E001C000
E001C000
E001C000
E0038000
E0038000
E0038000
70070000
700E0000
383C0000
0FF00000
ENDCHAR
STARTCHAR uni1E7B
ENCODING 7803
SWIDTH 618 0
DWIDTH 21 0
BBX 17 25 4 0
BITMAP
0C1800
1E3C00
1E3C00
0C1800
000000
07FC00
0FF800
000000
0C0380
FC0700
1C0700
1C0700
380E00
380E00
380E00
301E00
701C00
703C00
703C00
605C00
E09880
E13900
E33B00
FC3E00
701800
ENDCHAR
STARTCHAR uni1E7C
ENCODING 7804
SWIDTH 637 0
DWIDTH 21 0
BBX 23 29 4 0
BITMAP
00C080
03FF00
027F00
040400
000000
FF81FE
3C0038
1C0070
1C0060
1C00E0
1C00C0
1C0180
1C0180
1C0300
1C0300
0E0600
0E0400
0E0C00
0E0800
0E1800
0E1000
0E3000
0E6000
076000
07C000
078000
078000
070000
070000
ENDCHAR
STARTCHAR uni1E7D
ENCODING 7805
SWIDTH 510 0
DWIDTH 17 0
BBX 15 22 4 0
BITMAP
0C08
3FF0
27F0
4040
0000
3C04
FC0E
380E
380E
380C
380C
300C
7018
7010
7030
7020
E040
E080
E100
E200
FC00
7000
ENDCHAR
STARTCHAR uni1E7E
ENCODING 7806
SWIDTH 637 0
DWIDTH 21 0
BBX 23 29 4 -5
BITMAP
FF81FE
3C0038
1C0070
1C0060
1C00E0
1C00C0
1C0180
1C0180
1C0300
1C0300
0E0600
0E0400
0E0C00
0E0800
0E1800
0E1000
0E3000
0E6000
076000
07C000
078000
078000
070000
070000
000000
00C000
01E000
01E000
00C000
ENDCHAR
STARTCHAR uni1E7F
ENCODING 7807
SWIDTH 510 0
DWIDTH 17 0
BBX 15 22 4 -5
BITMAP
3C04
FC0E
380E
380E
380C
380C
300C
7018
7010
7030
7020
E040
E080
E100
E200
FC00
7000
0000
1800
3C00
3C00
1800
ENDCHAR
STARTCHAR Wgrave
ENCODING 7808
SWIDTH 946 0
DWIDTH 32 0
BBX 33 31 4 0
BITMAP
0008000000
001C000000
000E000000
0007000000
0001800000
0000400000
0000000000
FF80007F80
3C00E00E00
3C00E00C00
1C01E01800
1C01E01800
1C02E03000
1C02E03000
1C04E02000
1C04E06000
1C08E04000
1C08E0C000
1E10E08000
1E10E18000
1E20E18000
1E20E30000
1E40730000
1E40720000
0E80760000
0E80740000
0F007C0000
0F00780000
0E00780000
0E00700000
0C00700000
ENDCHAR
STARTCHAR wgrave
ENCODING 7809
SWIDTH 785 0
DWIDTH 26 0
BBX 24 24 4 0
BITMAP
008000
01C000
00E000
007000
001800
000400
000000
1C0706
FC0E06
3C0E07
380E07
380E07
381C06
381C06
701C04
703C0C
703808
705818
E07810
E0B820
E13840
E23880
FC1F00
700E00
ENDCHAR
STARTCHAR Wacute
ENCODING 7810
SWIDTH 946 0
DWIDTH 32 0
BBX 33 31 4 0
BITMAP
0000100000
0000380000
0000700000
0000E00000
0001800000
0002000000
0000000000
FF80007F80
3C00E00E00
3C00E00C00
1C01E01800
1C01E01800
1C02E03000
1C02E03000
1C04E02000
1C04E06000
1C08E04000
1C08E0C000
1E10E08000
1E10E18000
1E20E18000
1E20E30000
1E40730000
1E40720000
0E80760000
0E80740000
0F007C0000
0F00780000
0E00780000
0E00700000
0C00700000
ENDCHAR
STARTCHAR wacute
ENCODING 7811
SWIDTH 785 0
DWIDTH 26 0
BBX 24 24 4 0
BITMAP
000100
000380
000700
000E00
001800
002000
000000
1C0706
FC0E06
3C0E07
380E07
380E07
381C06
381C06
701C04
703C0C
703808
705818
E07810
E0B820
E13840
E23880
FC1F00
700E00
ENDCHAR
STARTCHAR Wdieresis
ENCODING 7812
SWIDTH 946 0
DWIDTH 32 0
BBX 33 29 4 0
BITMAP
0018300000
003C780000
003C780000
0018300000
0000000000
FF80007F80
3C00E00E00
3C00E00C00
1C01E01800
1C01E01800
1C02E03000
1C02E03000
1C04E02000
1C04E06000
1C08E04000
1C08E0C000
1E10E08000
1E10E18000
1E20E18000
1E20E30000
1E40730000
1E40720000
0E80760000
0E80740000
0F007C0000
0F00780000
0E00780000
0E00700000
0C00700000
ENDCHAR
STARTCHAR wdieresis
ENCODING 7813
SWIDTH 785 0
DWIDTH 26 0
BBX 24 22 4 0
BITMAP
00C180
01E3C0
01E3C0
00C180
000000
1C0706
FC0E06
3C0E07
380E07
380E07
381C06
381C06
701C04
703C0C
703808
705818
E07810
E0B820
E13840
E23880
FC1F00
700E00
ENDCHAR
STARTCHAR uni1E86
ENCODING 7814
SWIDTH 946 0
DWIDTH 32 0
BBX 33 29 4 0
BITMAP
0001800000
0003C00000
0003C00000
0001800000
0000000000
FF80007F80
3C00E00E00
3C00E00C00
1C01E01800
1C01E01800
1C02E03000
1C02E03000
1C04E02000
1C04E06000
1C08E04000
1C08E0C000
1E10E08000
1E10E18000
1E20E18000
1E20E30000
1E40730000
1E40720000
0E80760000
0E80740000
0F007C0000
0F00780000
0E00780000
0E00700000
0C00700000
ENDCHAR
STARTCHAR uni1E87
ENCODING 7815
SWIDTH 785 0
DWIDTH 26 0
BBX 24 22 4 0
BITMAP
001800
003C00
003C00
001800
000000
1C0706
FC0E06
3C0E07
380E07
380E07
381C06
381C06
701C04
703C0C
703808
705818
E07810
E0B820
E13840
E23880
FC1F00
700E00
ENDCHAR
STARTCHAR uni1E88
ENCODING 7816
SWIDTH 946 0
DWIDTH 32 0
BBX 33 29 4 -5
BITMAP
FF80007F80
3C00E00E00
3C00E00C00
1C01E01800
1C01E01800
1C02E03000
1C02E03000
1C04E02000
1C04E06000
1C08E04000
1C08E0C000
1E10E08000
1E10E18000
1E20E18000
1E20E30000
1E40730000
1E40720000
0E80760000
0E80740000
0F007C0000
0F00780000
0E00780000
0E00700000
0C00700000
0000000000
0006000000
000F000000
000F000000
0006000000
ENDCHAR
STARTCHAR uni1E89
ENCODING 7817
SWIDTH 785 0
DWIDTH 26 0
BBX 24 22 4 -5
BITMAP
1C0706
FC0E06
3C0E07
380E07
380E07
381C06
381C06
701C04
703C0C
703808
705818
E07810
E0B820
E13840
E23880
FC1F00
700E00
000000
00C000
01E000
01E000
00C000
ENDCHAR
STARTCHAR uni1E8A
ENCODING 7818
SWIDTH 632 0
DWIDTH 21 0
BBX 26 29 0 0
BITMAP
00060000
000F0000
000F0000
00060000
00000000
07FC3FC0
01E00F00
00E01C00
00701800
00703000
00786000
0038C000
0038C000
001D8000
001F0000
001E0000
000E0000
001E0000
00170000
00370000
00678000
00C38000
0183C000
0181C000
0301C000
0601E000
0E00E000
1C00F000
FF87FE00
ENDCHAR
STARTCHAR uni1E8B
ENCODING 7819
SWIDTH 516 0
DWIDTH 17 0
BBX 18 22 1 0
BITMAP
006000
00F000
00F000
006000
000000
008180
0783C0
1F8780
01CC00
01D800
01D000
00E000
00E000
00E000
00E000
016000
037000
027080
047100
FC3A00
F83E00
701800
ENDCHAR
STARTCHAR uni1E8C
ENCODING 7820
SWIDTH 632 0
DWIDTH 21 0
BBX 26 29 0 0
BITMAP
00306000
0078F000
0078F000
00306000
00000000
07FC3FC0
01E00F00
00E01C00
00701800
00703000
00786000
0038C000
0038C000
001D8000
001F0000
001E0000
000E0000
001E0000
00170000
00370000
00678000
00C38000
0183C000
0181C000
0301C000
0601E000
0E00E000
1C00F000
FF87FE00
ENDCHAR
STARTCHAR uni1E8D
ENCODING 7821
SWIDTH 516 0
DWIDTH 17 0
BBX 18 22 1 0
BITMAP
030600
078F00
078F00
030600
000000
008180
0783C0
1F8780
01CC00
01D800
01D000
00E000
00E000
00E000
00E000
016000
037000
027080
047100
FC3A00
F83E00
701800
ENDCHAR
STARTCHAR uni1E8E
ENCODING 7822
SWIDTH 591 0
DWIDTH 20 0
BBX 22 29 4 0
BITMAP
003000
007800
007800
003000
000000
FF03FC
3C0070
1C0060
1C00C0
0E0180
0E0380
0E0300
0E0600
070C00
071800
071800
03B000
03E000
03C000
03C000
038000
038000
038000
038000
070000
070000
070000
070000
7FF000
ENDCHAR
STARTCHAR uni1E8F
ENCODING 7823
SWIDTH 468 0
DWIDTH 16 0
BBX 18 30 0 -8
BITMAP
006000
00F000
00F000
006000
000000
0100C0
0F81C0
1F81C0
038180
038180
038180
038300
038300
038600
038600
018C00
01C800
01D800
01D000
01F000
01E000
01C000
01C000
018000
010000
030000
420000
E40000
FC0000
700000
ENDCHAR
STARTCHAR uni1E90
ENCODING 7824
SWIDTH 622 0
DWIDTH 21 0
BBX 24 31 1 0
BITMAP
000100
000380
0007C0
000CE0
001820
002010
000000
01FFFF
01C01E
03003C
030078
0200F0
0201F0
0001E0
0003C0
000780
000F00
001E00
003C00
007800
007000
00F000
01E000
03C000
078000
0F0008
0F0010
1E0010
3C0030
7800E0
FFFFE0
ENDCHAR
STARTCHAR uni1E91
ENCODING 7825
SWIDTH 468 0
DWIDTH 16 0
BBX 16 24 1 0
BITMAP
0040
00E0
01F0
0338
0608
0804
0000
0FFF
0FFE
180C
1018
2030
0060
00C0
0180
0300
0600
0E02
1C06
3804
7F0C
7FFC
CFF8
C1F0
ENDCHAR
STARTCHAR uni1E92
ENCODING 7826
SWIDTH 622 0
DWIDTH 21 0
BBX 24 29 1 -5
BITMAP
01FFFF
01C01E
03003C
030078
0200F0
0201F0
0001E0
0003C0
000780
000F00
001E00
003C00
007800
007000
00F000
01E000
03C000
078000
0F0008
0F0010
1E0010
3C0030
7800E0
FFFFE0
000000
006000
00F000
00F000
006000
ENDCHAR
STARTCHAR uni1E93
ENCODING 7827
SWIDTH 468 0
DWIDTH 16 0
BBX 16 22 1 -5
BITMAP
0FFF
0FFE
180C
1018
2030
0060
00C0
0180
0300
0600
0E02
1C06
3804
7F0C
7FFC
CFF8
C1F0
0000
0300
0780
0780
0300
ENDCHAR
STARTCHAR uni1E94
ENCODING 7828
SWIDTH 622 0
DWIDTH 21 0
BBX 24 27 1 -3
BITMAP
01FFFF
01C01E
03003C
030078
0200F0
0201F0
0001E0
0003C0
000780
000F00
001E00
003C00
007800
007000
00F000
01E000
03C000
078000
0F0008
0F0010
1E0010
3C0030
7800E0
FFFFE0
000000
03FE00
07FC00
ENDCHAR
STARTCHAR uni1E95
ENCODING 7829
SWIDTH 468 0
DWIDTH 16 0
BBX 16 20 1 -3
BITMAP
0FFF
0FFE
180C
1018
2030
0060
00C0
0180
0300
0600
0E02
1C06
3804
7F0C
7FFC
CFF8
C1F0
0000
1FF0
3FE0
ENDCHAR
STARTCHAR uni1E96
ENCODING 7830
SWIDTH 607 0
DWIDTH 20 0
BBX 17 28 3 -3
BITMAP
038000
1F8000
078000
070000
070000
070000
070000
0E0000
0E0700
0E1F80
0E6380
0CC380
1C8380
1D0700
1E0700
1A0700
3C0E00
3C0E00
381C00
381C00
781880
703900
703B00
703E00
E01800
000000
0FF800
1FF000
ENDCHAR
STARTCHAR uni1E97
ENCODING 7831
SWIDTH 341 0
DWIDTH 11 0
BBX 11 26 4 0
BITMAP
60C0
F1E0
F1E0
60C0
0000
0200
0600
0E00
0C00
FFE0
1C00
1C00
3800
3800
3800
3800
3000
7000
7000
7000
7100
E200
E200
EC00
F800
6000
ENDCHAR
STARTCHAR uni1E98
ENCODING 7832
SWIDTH 785 0
DWIDTH 26 0
BBX 24 25 4 0
BITMAP
003C00
006200
004300
00C300
00C200
004600
003C00
000000
1C0706
FC0E06
3C0E07
380E07
380E07
381C06
381C06
701C04
703C0C
703808
705818
E07810
E0B820
E13840
E23880
FC1F00
700E00
ENDCHAR
STARTCHAR uni1E99
ENCODING 7833
SWIDTH 468 0
DWIDTH 16 0
BBX 18 33 0 -8
BITMAP
00F000
018800
010C00
030C00
030800
011800
00F000
000000
0100C0
0F81C0
1F81C0
038180
038180
038180
038300
038300
038600
038600
018C00
01C800
01D800
01D000
01F000
01E000
01C000
01C000
018000
010000
030000
420000
E40000
FC0000
700000
ENDCHAR
STARTCHAR uni1EA0
ENCODING 7840
SWIDTH 624 0
DWIDTH 21 0
BBX 23 29 -1 -5
BITMAP
0001C0
0001C0
0003C0
0003C0
0007C0
0005C0
000DE0
0008E0
0018E0
0030E0
0030E0
0060E0
0040E0
00C0E0
00FFE0
018070
010070
030070
060070
060070
0C0070
0C0070
180078
FF03FE
000000
001800
003C00
003C00
001800
ENDCHAR
STARTCHAR uni1EA1
ENCODING 7841
SWIDTH 561 0
DWIDTH 19 0
BBX 18 22 2 -5
BITMAP
007DC0
01C380
070380
0E0380
1C0700
1C0700
380700
380F00
700E00
701E00
E01E00
E02E00
E04C40
E09C80
E31D80
7E1F00
300C00
000000
00C000
01E000
01E000
00C000
ENDCHAR
STARTCHAR uni1EA4
ENCODING 7844
SWIDTH 624 0
DWIDTH 21 0
BBX 23 36 -1 0
BITMAP
000020
000070
0000E0
0001C0
000300
000400
000000
000080
0001E0
0003F0
000E18
000808
000180
0003C0
0003C0
0007C0
0005C0
000DC0
0009C0
0019C0
0011C0
0031E0
0061E0
0060E0
00C0E0
0080E0
01FFE0
0100E0
0300F0
0200F0
0600F0
0C0070
0C0070
180070
380078
FE03FE
ENDCHAR
STARTCHAR uni1EA5
ENCODING 7845
SWIDTH 561 0
DWIDTH 19 0
BBX 18 31 2 0
BITMAP
000100
000380
000700
000E00
001800
002000
000000
000400
000E00
003F00
007300
00C1C0
008080
000000
007DC0
01C380
070380
0E0380
1C0700
1C0700
380700
380F00
700E00
701E00
E01E00
E02E00
E04C40
E09C80
E31D80
7E1F00
300C00
ENDCHAR
STARTCHAR uni1EA6
ENCODING 7846
SWIDTH 624 0
DWIDTH 21 0
BBX 23 36 -1 0
BITMAP
001000
003800
001C00
000E00
000300
000080
000000
000080
0001E0
0003F0
000E18
000808
000180
0003C0
0003C0
0007C0
0005C0
000DC0
0009C0
0019C0
0011C0
0031E0
0061E0
0060E0
00C0E0
0080E0
01FFE0
0100E0
0300F0
0200F0
0600F0
0C0070
0C0070
180070
380078
FE03FE
ENDCHAR
STARTCHAR uni1EA7
ENCODING 7847
SWIDTH 561 0
DWIDTH 19 0
BBX 18 31 2 0
BITMAP
008000
01C000
00E000
007000
001800
000400
000000
000400
000E00
003F00
007300
00C1C0
008080
000000
007DC0
01C380
070380
0E0380
1C0700
1C0700
380700
380F00
700E00
701E00
E01E00
E02E00
E04C40
E09C80
E31D80
7E1F00
300C00
ENDCHAR
STARTCHAR uni1EAA
ENCODING 7850
SWIDTH 624 0
DWIDTH 21 0
BBX 23 34 -1 0
BITMAP
000C08
003FF0
0027F0
004040
000000
000080
0001E0
0003F0
000E18
000808
000180
0003C0
0003C0
0007C0
0005C0
000DC0
0009C0
0019C0
0011C0
0031E0
0061E0
0060E0
00C0E0
0080E0
01FFE0
0100E0
0300F0
0200F0
0600F0
0C0070
0C0070
180070
380078
FE03FE
ENDCHAR
STARTCHAR uni1EAB
ENCODING 7851
SWIDTH 561 0
DWIDTH 19 0
BBX 18 29 2 0
BITMAP
00C080
03FF00
027F00
040400
000000
000400
000E00
003F00
007300
00C1C0
008080
000000
007DC0
01C380
070380
0E0380
1C0700
1C0700
380700
380F00
700E00
701E00
E01E00
E02E00
E04C40
E09C80
E31D80
7E1F00
300C00
ENDCHAR
STARTCHAR uni1EAC
ENCODING 7852
SWIDTH 624 0
DWIDTH 21 0
BBX 23 36 -1 -5
BITMAP
000100
000380
0007C0
000CE0
001820
002010
000000
0001C0
0001C0
0003C0
0003C0
0007C0
0005C0
000DE0
0008E0
0018E0
0030E0
0030E0
0060E0
0040E0
00C0E0
00FFE0
018070
010070
030070
060070
060070
0C0070
0C0070
180078
FF03FE
000000
001800
003C00
003C00
001800
ENDCHAR
STARTCHAR uni1EAD
ENCODING 7853
SWIDTH 561 0
DWIDTH 19 0
BBX 18 29 2 -5
BITMAP
001000
003800
007C00
00CE00
018200
020100
000000
007DC0
01C380
070380
0E0380
1C0700
1C0700
380700
380F00
700E00
701E00
E01E00
E02E00
E04C40
E09C80
E31D80
7E1F00
300C00
000000
00C000
01E000
01E000
00C000
ENDCHAR
STARTCHAR uni1EAE
ENCODING 7854
SWIDTH 624 0
DWIDTH 21 0
BBX 23 37 -1 0
BITMAP
000080
0001C0
000380
000700
000C00
001000
000000
002020
002060
0030C0
001F80
001F00
000000
0001C0
0001C0
0003C0
0003C0
0007C0
0005C0
000DE0
0008E0
0018E0
0030E0
0030E0
0060E0
0040E0
00C0E0
00FFE0
018070
010070
030070
060070
060070
0C0070
0C0070
180078
FF03FE
ENDCHAR
STARTCHAR uni1EAF
ENCODING 7855
SWIDTH 561 0
DWIDTH 19 0
BBX 18 30 2 0
BITMAP
000400
000E00
001C00
003800
006000
008000
000000
010100
010300
018600
00FC00
00F800
000000
007DC0
01C380
070380
0E0380
1C0700
1C0700
380700
380F00
700E00
701E00
E01E00
E02E00
E04C40
E09C80
E31D80
7E1F00
300C00
ENDCHAR
STARTCHAR uni1EB0
ENCODING 7856
SWIDTH 624 0
DWIDTH 21 0
BBX 23 37 -1 0
BITMAP
002000
007000
003800
001C00
000600
000100
000000
002020
002060
0030C0
001F80
001F00
000000
0001C0
0001C0
0003C0
0003C0
0007C0
0005C0
000DE0
0008E0
0018E0
0030E0
0030E0
0060E0
0040E0
00C0E0
00FFE0
018070
010070
030070
060070
060070
0C0070
0C0070
180078
FF03FE
ENDCHAR
STARTCHAR uni1EB1
ENCODING 7857
SWIDTH 561 0
DWIDTH 19 0
BBX 18 30 2 0
BITMAP
010000
038000
01C000
00E000
003000
000800
000000
010100
010300
018600
00FC00
00F800
000000
007DC0
01C380
070380
0E0380
1C0700
1C0700
380700
380F00
700E00
701E00
E01E00
E02E00
E04C40
E09C80
E31D80
7E1F00
300C00
ENDCHAR
STARTCHAR uni1EB4
ENCODING 7860
SWIDTH 624 0
DWIDTH 21 0
BBX 23 35 -1 0
BITMAP
003020
00FFC0
009FC0
010100
000000
002020
002060
0030C0
001F80
001F00
000000
0001C0
0001C0
0003C0
0003C0
0007C0
0005C0
000DE0
0008E0
0018E0
0030E0
0030E0
0060E0
0040E0
00C0E0
00FFE0
018070
010070
030070
060070
060070
0C0070
0C0070
180078
FF03FE
ENDCHAR
STARTCHAR uni1EB5
ENCODING 7861
SWIDTH 561 0
DWIDTH 19 0
BBX 18 28 2 0
BITMAP
018100
07FE00
04FE00
080800
000000
010100
010300
018600
00FC00
00F800
000000
007DC0
01C380
070380
0E0380
1C0700
1C0700
380700
380F00
700E00
701E00
E01E00
E02E00
E04C40
E09C80
E31D80
7E1F00
300C00
ENDCHAR
STARTCHAR uni1EB6
ENCODING 7862
SWIDTH 624 0
DWIDTH 21 0
BBX 23 35 -1 -5
BITMAP
002020
002060
0030C0
001F80
001F00
000000
0001C0
0001C0
0003C0
0003C0
0007C0
0005C0
000DE0
0008E0
0018E0
0030E0
0030E0
0060E0
0040E0
00C0E0
00FFE0
018070
010070
030070
060070
060070
0C0070
0C0070
180078
FF03FE
000000
001800
003C00
003C00
001800
ENDCHAR
STARTCHAR uni1EB7
ENCODING 7863
SWIDTH 561 0
DWIDTH 19 0
BBX 18 28 2 -5
BITMAP
020200
020600
030C00
01F800
01F000
000000
007DC0
01C380
070380
0E0380
1C0700
1C0700
380700
380F00
700E00
701E00
E01E00
E02E00
E04C40
E09C80
E31D80
7E1F00
300C00
000000
00C000
01E000
01E000
00C000
ENDCHAR
STARTCHAR uni1EB8
ENCODING 7864
SWIDTH 596 0
DWIDTH 20 0
BBX 22 29 1 -5
BITMAP
07FFFC
00E01C
00E00C
00E008
00C008
01C008
01C000
01C000
01C040
01C040
0380C0
03FFC0
0381C0
030080
070080
070000
070000
070000
060020
0E0060
0E0040
0E00C0
1E01C0
FFFFC0
000000
006000
00F000
00F000
006000
ENDCHAR
STARTCHAR uni1EB9
ENCODING 7865
SWIDTH 453 0
DWIDTH 15 0
BBX 14 22 3 -5
BITMAP
00F0
0718
0C1C
181C
381C
3038
7070
61E0
EF00
F800
E000
E010
E010
F020
70C0
7F80
1C00
0000
0C00
1E00
1E00
0C00
ENDCHAR
STARTCHAR uni1EBC
ENCODING 7868
SWIDTH 596 0
DWIDTH 20 0
BBX 22 29 1 0
BITMAP
006040
01FF80
013F80
020200
000000
07FFFC
00E01C
00E00C
00E008
00C008
01C008
01C000
01C000
01C040
01C040
0380C0
03FFC0
0381C0
030080
070080
070000
070000
070000
060020
0E0060
0E0040
0E00C0
1E01C0
FFFFC0
ENDCHAR
STARTCHAR uni1EBD
ENCODING 7869
SWIDTH 453 0
DWIDTH 15 0
BBX 14 22 3 0
BITMAP
0604
1FF8
13F8
2020
0000
00F0
0718
0C1C
181C
381C
3038
7070
61E0
EF00
F800
E000
E010
E010
F020
70C0
7F80
1C00
ENDCHAR
STARTCHAR uni1EBE
ENCODING 7870
SWIDTH 596 0
DWIDTH 20 0
BBX 22 36 1 0
BITMAP
000080
0001C0
000380
000700
000C00
001000
000000
000100
000780
000FC0
0038E0
006030
07FFFC
00E01C
00E00C
00E008
00C008
01C008
01C000
01C000
01C040
01C040
0380C0
03FFC0
0381C0
030080
070080
070000
070000
070000
060020
0E0060
0E0040
0E00C0
1E01C0
FFFFC0
ENDCHAR
STARTCHAR uni1EBF
ENCODING 7871
SWIDTH 453 0
DWIDTH 15 0
BBX 14 31 3 0
BITMAP
0008
001C
0038
0070
00C0
0100
0000
0020
00F0
01F0
0318
060C
0804
0000
00F0
0718
0C1C
181C
381C
3038
7070
61E0
EF00
F800
E000
E010
E010
F020
70C0
7F80
1C00
ENDCHAR
STARTCHAR uni1EC0
ENCODING 7872
SWIDTH 596 0
DWIDTH 20 0
BBX 22 36 1 0
BITMAP
004000
00E000
007000
003800
000C00
000200
000000
000100
000780
000FC0
0038E0
006030
07FFFC
00E01C
00E00C
00E008
00C008
01C008
01C000
01C000
01C040
01C040
0380C0
03FFC0
0381C0
030080
070080
070000
070000
070000
060020
0E0060
0E0040
0E00C0
1E01C0
FFFFC0
ENDCHAR
STARTCHAR uni1EC1
ENCODING 7873
SWIDTH 453 0
DWIDTH 15 0
BBX 14 31 3 0
BITMAP
0400
0E00
0700
0380
00C0
0020
0000
0020
00F0
01F0
0318
060C
0804
0000
00F0
0718
0C1C
181C
381C
3038
7070
61E0
EF00
F800
E000
E010
E010
F020
70C0
7F80
1C00
ENDCHAR
STARTCHAR uni1EC4
ENCODING 7876
SWIDTH 596 0
DWIDTH 20 0
BBX 22 34 1 0
BITMAP
003020
00FFC0
009FC0
010100
000000
000100
000780
000FC0
0038E0
006030
07FFFC
00E01C
00E00C
00E008
00C008
01C008
01C000
01C000
01C040
01C040
0380C0
03FFC0
0381C0
030080
070080
070000
070000
070000
060020
0E0060
0E0040
0E00C0
1E01C0
FFFFC0
ENDCHAR
STARTCHAR uni1EC5
ENCODING 7877
SWIDTH 453 0
DWIDTH 15 0
BBX 15 29 3 0
BITMAP
0302
0FFC
09FC
1010
0000
0020
00F0
01F0
0318
060C
0804
0000
00F0
0718
0C1C
181C
381C
3038
7070
61E0
EF00
F800
E000
E010
E010
F020
70C0
7F80
1C00
ENDCHAR
STARTCHAR uni1EC6
ENCODING 7878
SWIDTH 596 0
DWIDTH 20 0
BBX 22 36 1 -5
BITMAP
000400
000E00
001F00
003380
006080
008040
000000
07FFFC
00E01C
00E00C
00E008
00C008
01C008
01C000
01C000
01C040
01C040
0380C0
03FFC0
0381C0
030080
070080
070000
070000
070000
060020
0E0060
0E0040
0E00C0
1E01C0
FFFFC0
000000
006000
00F000
00F000
006000
ENDCHAR
STARTCHAR uni1EC7
ENCODING 7879
SWIDTH 453 0
DWIDTH 15 0
BBX 14 29 3 -5
BITMAP
0040
00E0
01F0
0338
0608
0804
0000
00F0
0718
0C1C
181C
381C
3038
7070
61E0
EF00
F800
E000
E010
E010
F020
70C0
7F80
1C00
0000
0C00
1E00
1E00
0C00
ENDCHAR
STARTCHAR uni1ECA
ENCODING 7882
SWIDTH 345 0
DWIDTH 12 0
BBX 14 29 1 -5
BITMAP
07FC
01E0
01E0
01C0
01C0
01C0
01C0
03C0
0380
0380
0380
0380
0700
0700
0700
0700
0F00
0E00
0E00
0E00
0E00
1E00
1E00
FF80
0000
0600
0F00
0F00
0600
ENDCHAR
STARTCHAR uni1ECB
ENCODING 7883
SWIDTH 317 0
DWIDTH 11 0
BBX 8 29 4 -5
BITMAP
06
0F
0F
06
00
00
00
0E
FC
1C
1C
1C
38
38
38
30
70
70
70
62
E4
EC
F8
60
00
30
78
78
30
ENDCHAR
STARTCHAR uni1ECC
ENCODING 7884
SWIDTH 753 0
DWIDTH 25 0
BBX 23 29 4 -5
BITMAP
003F00
01E0E0
038070
070038
0E001C
1E001C
3C001C
3C001C
38001E
78001E
78001E
70001E
F0001E
F0003C
F0003C
F00038
F00038
700078
700070
7800E0
3801E0
1C03C0
0E0700
01F800
000000
003000
007800
007800
003000
ENDCHAR
STARTCHAR uni1ECD
ENCODING 7885
SWIDTH 537 0
DWIDTH 18 0
BBX 15 22 3 -5
BITMAP
01F0
0718
1C0C
1C0E
380E
700E
700E
701E
F01E
E01C
E01C
E03C
E038
E078
7070
38E0
1F00
0000
0300
0780
0780
0300
ENDCHAR
STARTCHAR uni1ED0
ENCODING 7888
SWIDTH 753 0
DWIDTH 25 0
BBX 23 36 4 0
BITMAP
000080
0001C0
000380
000700
000C00
001000
000000
000200
000700
001F80
0030C0
004020
003F00
01E0E0
038070
070038
0E001C
1E001C
3C001C
3C001C
38001E
78001E
78001E
70001E
F0001E
F0003C
F0003C
F00038
F00038
700078
700070
7800E0
3801E0
1C03C0
0E0700
01F800
ENDCHAR
STARTCHAR uni1ED1
ENCODING 7889
SWIDTH 537 0
DWIDTH 18 0
BBX 15 31 3 0
BITMAP
0008
001C
0038
0070
00C0
0100
0000
0020
0070
00F8
0198
060C
0404
0000
01F0
0718
1C0C
1C0E
380E
700E
700E
701E
F01E
E01C
E01C
E03C
E038
E078
7070
38E0
1F00
ENDCHAR
STARTCHAR uni1ED2
ENCODING 7890
SWIDTH 753 0
DWIDTH 25 0
BBX 23 36 4 0
BITMAP
004000
00E000
007000
003800
000C00
000200
000000
000200
000700
001F80
0030C0
004020
003F00
01E0E0
038070
070038
0E001C
1E001C
3C001C
3C001C
38001E
78001E
78001E
70001E
F0001E
F0003C
F0003C
F00038
F00038
700078
700070
7800E0
3801E0
1C03C0
0E0700
01F800
ENDCHAR
STARTCHAR uni1ED3
ENCODING 7891
SWIDTH 537 0
DWIDTH 18 0
BBX 15 31 3 0
BITMAP
0400
0E00
0700
0380
00C0
0020
0000
0020
0070
00F8
0198
060C
0404
0000
01F0
0718
1C0C
1C0E
380E
700E
700E
701E
F01E
E01C
E01C
E03C
E038
E078
7070
38E0
1F00
ENDCHAR
STARTCHAR uni1ED6
ENCODING 7894
SWIDTH 753 0
DWIDTH 25 0
BBX 23 34 4 0
BITMAP
003020
00FFC0
009FC0
010100
000000
000200
000700
001F80
0030C0
004020
003F00
01E0E0
038070
070038
0E001C
1E001C
3C001C
3C001C
38001E
78001E
78001E
70001E
F0001E
F0003C
F0003C
F00038
F00038
700078
700070
7800E0
3801E0
1C03C0
0E0700
01F800
ENDCHAR
STARTCHAR uni1ED7
ENCODING 7895
SWIDTH 537 0
DWIDTH 18 0
BBX 15 29 3 0
BITMAP
0302
0FFC
09FC
1010
0000
0020
0070
00F8
0198
060C
0404
0000
01F0
0718
1C0C
1C0E
380E
700E
700E
701E
F01E
E01C
E01C
E03C
E038
E078
7070
38E0
1F00
ENDCHAR
STARTCHAR uni1ED8
ENCODING 7896
SWIDTH 753 0
DWIDTH 25 0
BBX 23 36 4 -5
BITMAP
000800
001C00
003E00
006700
00C100
010080
000000
003F00
01E0E0
038070
070038
0E001C
1E001C
3C001C
3C001C
38001E
78001E
78001E
70001E
F0001E
F0003C
F0003C
F00038
F00038
700078
700070
7800E0
3801E0
1C03C0
0E0700
01F800
000000
003000
007800
007800
003000
ENDCHAR
STARTCHAR uni1ED9
ENCODING 7897
SWIDTH 537 0
DWIDTH 18 0
BBX 15 29 3 -5
BITMAP
0040
00E0
01F0
0338
0608
0804
0000
01F0
0718
1C0C
1C0E
380E
700E
700E
701E
F01E
E01C
E01C
E03C
E038
E078
7070
38E0
1F00
0000
0300
0780
0780
0300
ENDCHAR
STARTCHAR uni1EDA
ENCODING 7898
SWIDTH 753 0
DWIDTH 25 0
BBX 26 31 4 0
BITMAP
00002000
00007000
0000E000
0001C000
00030000
00040000
00000000
003F0180
01E0E3C0
038071C0
070039C0
0E001D80
1E001D80
3C001F00
3C001E00
38001E00
78001E00
78001E00
70001E00
F0001E00
F0003C00
F0003C00
F0003800
F0003800
70007800
70007000
7800E000
3801E000
1C03C000
0E070000
01F80000
ENDCHAR
STARTCHAR uni1EDB
ENCODING 7899
SWIDTH 537 0
DWIDTH 18 0
BBX 19 24 3 0
BITMAP
000200
000700
000E00
001C00
003000
004000
000000
01F0C0
0719E0
1C0CE0
1C0EE0
380EC0
700EC0
700F80
701F00
F01E00
E01C00
E01C00
E03C00
E03800
E07800
707000
38E000
1F0000
ENDCHAR
STARTCHAR uni1EDC
ENCODING 7900
SWIDTH 753 0
DWIDTH 25 0
BBX 26 31 4 0
BITMAP
00100000
00380000
001C0000
000E0000
00030000
00008000
00000000
003F0180
01E0E3C0
038071C0
070039C0
0E001D80
1E001D80
3C001F00
3C001E00
38001E00
78001E00
78001E00
70001E00
F0001E00
F0003C00
F0003C00
F0003800
F0003800
70007800
70007000
7800E000
3801E000
1C03C000
0E070000
01F80000
ENDCHAR
STARTCHAR uni1EDD
ENCODING 7901
SWIDTH 537 0
DWIDTH 18 0
BBX 19 24 3 0
BITMAP
010000
038000
01C000
00E000
003000
000800
000000
01F0C0
0719E0
1C0CE0
1C0EE0
380EC0
700EC0
700F80
701F00
F01E00
E01C00
E01C00
E03C00
E03800
E07800
707000
38E000
1F0000
ENDCHAR
STARTCHAR uni1EE0
ENCODING 7904
SWIDTH 753 0
DWIDTH 25 0
BBX 26 29 4 0
BITMAP
000C0800
003FF000
0027F000
00404000
00000000
003F0180
01E0E3C0
038071C0
070039C0
0E001D80
1E001D80
3C001F00
3C001E00
38001E00
78001E00
78001E00
70001E00
F0001E00
F0003C00
F0003C00
F0003800
F0003800
70007800
70007000
7800E000
3801E000
1C03C000
0E070000
01F80000
ENDCHAR
STARTCHAR uni1EE1
ENCODING 7905
SWIDTH 537 0
DWIDTH 18 0
BBX 19 22 3 0
BITMAP
00C080
03FF00
027F00
040400
000000
01F0C0
0719E0
1C0CE0
1C0EE0
380EC0
700EC0
700F80
701F00
F01E00
E01C00
E01C00
E03C00
E03800
E07800
707000
38E000
1F0000
ENDCHAR
STARTCHAR uni1EE2
ENCODING 7906
SWIDTH 753 0
DWIDTH 25 0
BBX 26 29 4 -5
BITMAP
003F0180
01E0E3C0
038071C0
070039C0
0E001D80
1E001D80
3C001F00
3C001E00
38001E00
78001E00
78001E00
70001E00
F0001E00
F0003C00
F0003C00
F0003800
F0003800
70007800
70007000
7800E000
3801E000
1C03C000
0E070000
01F80000
00000000
00300000
00780000
00780000
00300000
ENDCHAR
STARTCHAR uni1EE3
ENCODING 7907
SWIDTH 537 0
DWIDTH 18 0
BBX 19 22 3 -5
BITMAP
01F0C0
0719E0
1C0CE0
1C0EE0
380EC0
700EC0
700F80
701F00
F01E00
E01C00
E01C00
E03C00
E03800
E07800
707000
38E000
1F0000
000000
030000
078000
078000
030000
ENDCHAR
STARTCHAR uni1EE4
ENCODING 7908
SWIDTH 794 0
DWIDTH 26 0
BBX 25 29 6 -5
BITMAP
FF81FF80
1C003C00
1C003800
1C003800
3C003800
38007800
38007000
38007000
38007000
7000F000
7000E000
7000E000
7000E000
7000E000
E001C000
E001C000
E001C000
E0038000
E0038000
E0038000
70070000
700E0000
383C0000
0FF00000
00000000
00600000
00F00000
00F00000
00600000
ENDCHAR
STARTCHAR uni1EE5
ENCODING 7909
SWIDTH 618 0
DWIDTH 21 0
BBX 17 22 4 -5
BITMAP
0C0380
FC0700
1C0700
1C0700
380E00
380E00
380E00
301E00
701C00
703C00
703C00
605C00
E09880
E13900
E33B00
FC3E00
701800
000000
018000
03C000
03C000
018000
ENDCHAR
STARTCHAR uni1EE8
ENCODING 7912
SWIDTH 794 0
DWIDTH 26 0
BBX 27 31 6 0
BITMAP
00004000
0000E000
0001C000
00038000
00060000
00080000
00000000
FF81FFC0
1C003DE0
1C0038E0
1C0038E0
3C0038C0
380078C0
38007180
38007100
38007200
7000F000
7000E000
7000E000
7000E000
7000E000
E001C000
E001C000
E001C000
E0038000
E0038000
E0038000
70070000
700E0000
383C0000
0FF00000
ENDCHAR
STARTCHAR uni1EE9
ENCODING 7913
SWIDTH 618 0
DWIDTH 21 0
BBX 20 24 4 0
BITMAP
000200
000700
000E00
001C00
003000
004000
000000
0C03E0
FC07F0
1C0770
1C0770
380E60
380E60
380EC0
301E80
701D00
703C00
703C00
605C00
E09880
E13900
E33B00
FC3E00
701800
ENDCHAR
STARTCHAR uni1EEA
ENCODING 7914
SWIDTH 794 0
DWIDTH 26 0
BBX 27 31 6 0
BITMAP
00100000
00380000
001C0000
000E0000
00030000
00008000
00000000
FF81FFC0
1C003DE0
1C0038E0
1C0038E0
3C0038C0
380078C0
38007180
38007100
38007200
7000F000
7000E000
7000E000
7000E000
7000E000
E001C000
E001C000
E001C000
E0038000
E0038000
E0038000
70070000
700E0000
383C0000
0FF00000
ENDCHAR
STARTCHAR uni1EEB
ENCODING 7915
SWIDTH 618 0
DWIDTH 21 0
BBX 20 24 4 0
BITMAP
010000
038000
01C000
00E000
003000
000800
000000
0C03E0
FC07F0
1C0770
1C0770
380E60
380E60
380EC0
301E80
701D00
703C00
703C00
605C00
E09880
E13900
E33B00
FC3E00
701800
ENDCHAR
STARTCHAR uni1EEE
ENCODING 7918
SWIDTH 794 0
DWIDTH 26 0
BBX 27 29 6 0
BITMAP
00181000
007FE000
004FE000
00808000
00000000
FF81FFC0
1C003DE0
1C0038E0
1C0038E0
3C0038C0
380078C0
38007180
38007100
38007200
7000F000
7000E000
7000E000
7000E000
7000E000
E001C000
E001C000
E001C000
E0038000
E0038000
E0038000
70070000
700E0000
383C0000
0FF00000
ENDCHAR
STARTCHAR uni1EEF
ENCODING 7919
SWIDTH 618 0
DWIDTH 21 0
BBX 20 22 4 0
BITMAP
00C080
03FF00
027F00
040400
000000
0C03E0
FC07F0
1C0770
1C0770
380E60
380E60
380EC0
301E80
701D00
703C00
703C00
605C00
E09880
E13900
E33B00
FC3E00
701800
ENDCHAR
STARTCHAR uni1EF0
ENCODING 7920
SWIDTH 794 0
DWIDTH 26 0
BBX 27 29 6 -5
BITMAP
FF81FFC0
1C003DE0
1C0038E0
1C0038E0
3C0038C0
380078C0
38007180
38007100
38007200
7000F000
7000E000
7000E000
7000E000
7000E000
E001C000
E001C000
E001C000
E0038000
E0038000
E0038000
70070000
700E0000
383C0000
0FF00000
00000000
00600000
00F00000
00F00000
00600000
ENDCHAR
STARTCHAR uni1EF1
ENCODING 7921
SWIDTH 618 0
DWIDTH 21 0
BBX 20 22 4 -5
BITMAP
0C03E0
FC07F0
1C0770
1C0770
380E60
380E60
380EC0
301E80
701D00
703C00
703C00
605C00
E09880
E13900
E33B00
FC3E00
701800
000000
018000
03C000
03C000
018000
ENDCHAR
STARTCHAR Ygrave
ENCODING 7922
SWIDTH 591 0
DWIDTH 20 0
BBX 22 31 4 0
BITMAP
010000
038000
01C000
00E000
003000
000800
000000
FF03FC
3C0070
1C0060
1C00C0
0E0180
0E0380
0E0300
0E0600
070C00
071800
071800
03B000
03E000
03C000
03C000
038000
038000
038000
038000
070000
070000
070000
070000
7FF000
ENDCHAR
STARTCHAR ygrave
ENCODING 7923
SWIDTH 468 0
DWIDTH 16 0
BBX 18 32 0 -8
BITMAP
020000
070000
038000
01C000
006000
001000
000000
0100C0
0F81C0
1F81C0
038180
038180
038180
038300
038300
038600
038600
018C00
01C800
01D800
01D000
01F000
01E000
01C000
01C000
018000
010000
030000
420000
E40000
FC0000
700000
ENDCHAR
STARTCHAR uni1EF4
ENCODING 7924
SWIDTH 591 0
DWIDTH 20 0
BBX 22 29 4 -5
BITMAP
FF03FC
3C0070
1C0060
1C00C0
0E0180
0E0380
0E0300
0E0600
070C00
071800
071800
03B000
03E000
03C000
03C000
038000
038000
038000
038000
070000
070000
070000
070000
7FF000
000000
018000
03C000
03C000
018000
ENDCHAR
STARTCHAR uni1EF5
ENCODING 7925
SWIDTH 468 0
DWIDTH 16 0
BBX 18 30 0 -13
BITMAP
0100C0
0F81C0
1F81C0
038180
038180
038180
038300
038300
038600
038600
018C00
01C800
01D800
01D000
01F000
01E000
01C000
01C000
018000
010000
030000
420000
E40000
FC0000
700000
000000
060000
0F0000
0F0000
060000
ENDCHAR
STARTCHAR uni1EF8
ENCODING 7928
SWIDTH 591 0
DWIDTH 20 0
BBX 22 29 4 0
BITMAP
018100
07FE00
04FE00
080800
000000
FF03FC
3C0070
1C0060
1C00C0
0E0180
0E0380
0E0300
0E0600
070C00
071800
071800
03B000
03E000
03C000
03C000
038000
038000
038000
038000
070000
070000
070000
070000
7FF000
ENDCHAR
STARTCHAR uni1EF9
ENCODING 7929
SWIDTH 468 0
DWIDTH 16 0
BBX 18 30 0 -8
BITMAP
018100
07FE00
04FE00
080800
000000
0100C0
0F81C0
1F81C0
038180
038180
038180
038300
038300
038600
038600
018C00
01C800
01D800
01D000
01F000
01E000
01C000
01C000
018000
010000
030000
420000
E40000
FC0000
700000
ENDCHAR
STARTCHAR uni2000
ENCODING 8192
SWIDTH 500 0
DWIDTH 17 0
BBX 1 1 0 0
BITMAP
00
ENDCHAR
STARTCHAR uni2001
ENCODING 8193
SWIDTH 1000 0
DWIDTH 33 0
BBX 1 1 0 0
BITMAP
00
ENDCHAR
STARTCHAR uni2002
ENCODING 8194
SWIDTH 500 0
DWIDTH 17 0
BBX 1 1 0 0
BITMAP
00
ENDCHAR
STARTCHAR uni2003
ENCODING 8195
SWIDTH 1000 0
DWIDTH 33 0
BBX 1 1 0 0
BITMAP
00
ENDCHAR
STARTCHAR uni2004
ENCODING 8196
SWIDTH 333 0
DWIDTH 11 0
BBX 1 1 0 0
BITMAP
00
ENDCHAR
STARTCHAR uni2005
ENCODING 8197
SWIDTH 250 0
DWIDTH 8 0
BBX 1 1 0 0
BITMAP
00
ENDCHAR
STARTCHAR uni2006
ENCODING 8198
SWIDTH 167 0
DWIDTH 6 0
BBX 1 1 0 0
BITMAP
00
ENDCHAR
STARTCHAR uni2007
ENCODING 8199
SWIDTH 530 0
DWIDTH 18 0
BBX 1 1 0 0
BITMAP
00
ENDCHAR
STARTCHAR uni2008
ENCODING 8200
SWIDTH 265 0
DWIDTH 9 0
BBX 1 1 0 0
BITMAP
00
ENDCHAR
STARTCHAR uni2009
ENCODING 8201
SWIDTH 200 0
DWIDTH 7 0
BBX 1 1 0 0
BITMAP
00
ENDCHAR
STARTCHAR uni200A
ENCODING 8202
SWIDTH 100 0
DWIDTH 3 0
BBX 1 1 0 0
BITMAP
00
ENDCHAR
STARTCHAR uni200B
ENCODING 8203
SWIDTH 0 0
DWIDTH 0 0
BBX 1 1 0 0
BITMAP
00
ENDCHAR
STARTCHAR uni2010
ENCODING 8208
SWIDTH 392 0
DWIDTH 13 0
BBX 9 2 4 7
BITMAP
7F80
FF00
ENDCHAR
STARTCHAR uni2011
ENCODING 8209
SWIDTH 392 0
DWIDTH 13 0
BBX 9 2 4 7
BITMAP
7F80
FF00
ENDCHAR
STARTCHAR figuredash
ENCODING 8210
SWIDTH 500 0
DWIDTH 17 0
BBX 17 2 2 7
BITMAP
FFFF80
FFFF80
ENDCHAR
STARTCHAR endash
ENCODING 8211
SWIDTH 500 0
DWIDTH 17 0
BBX 17 2 2 7
BITMAP
FFFF80
FFFF80
ENDCHAR
STARTCHAR emdash
ENCODING 8212
SWIDTH 1000 0
DWIDTH 33 0
BBX 34 2 1 7
BITMAP
FFFFFFFFC0
FFFFFFFFC0
ENDCHAR
STARTCHAR afii00208
ENCODING 8213
SWIDTH 1000 0
DWIDTH 33 0
BBX 34 2 1 7
BITMAP
FFFFFFFFC0
FFFFFFFFC0
ENDCHAR
STARTCHAR quoteleft
ENCODING 8216
SWIDTH 216 0
DWIDTH 7 0
BBX 5 9 6 16
BITMAP
08
10
20
60
60
E0
E0
F0
60
ENDCHAR
STARTCHAR quoteright
ENCODING 8217
SWIDTH 216 0
DWIDTH 7 0
BBX 5 9 5 16
BITMAP
30
78
38
38
30
30
60
40
80
ENDCHAR
STARTCHAR quotesinglbase
ENCODING 8218
SWIDTH 216 0
DWIDTH 7 0
BBX 5 9 1 -4
BITMAP
30
78
38
38
30
30
60
40
80
ENDCHAR
STARTCHAR quotereversed
ENCODING 8219
SWIDTH 216 0
DWIDTH 7 0
BBX 5 9 5 16
BITMAP
60
F0
E0
E0
60
60
30
10
08
ENDCHAR
STARTCHAR quotedblleft
ENCODING 8220
SWIDTH 402 0
DWIDTH 13 0
BBX 11 9 6 16
BITMAP
0820
1040
3080
6180
6180
E380
E380
F380
6180
ENDCHAR
STARTCHAR quotedblright
ENCODING 8221
SWIDTH 402 0
DWIDTH 13 0
BBX 11 9 5 16
BITMAP
30C0
39E0
38E0
38E0
30C0
30C0
6180
4100
8200
ENDCHAR
STARTCHAR quotedblbase
ENCODING 8222
SWIDTH 402 0
DWIDTH 13 0
BBX 11 9 1 -4
BITMAP
30C0
39E0
38E0
38E0
30C0
30C0
6180
4100
8200
ENDCHAR
STARTCHAR uni201F
ENCODING 8223
SWIDTH 402 0
DWIDTH 13 0
BBX 11 9 5 16
BITMAP
6180
F380
E380
E380
6180
6180
30C0
1040
0820
ENDCHAR
STARTCHAR dagger
ENCODING 8224
SWIDTH 500 0
DWIDTH 17 0
BBX 14 28 5 -4
BITMAP
01C0
01C0
01C0
0380
0380
0380
0300
FB1C
FEF8
0600
0600
0600
0E00
0E00
0C00
0C00
0C00
0C00
1800
1800
1800
1800
1000
1000
1000
3000
2000
2000
ENDCHAR
STARTCHAR daggerdbl
ENCODING 8225
SWIDTH 490 0
DWIDTH 16 0
BBX 15 28 3 -4
BITMAP
00E0
00E0
00E0
00C0
00C0
00C0
0080
3FFE
38FE
0180
0180
0180
0380
0380
0300
0300
0300
0300
FE38
FFF0
0200
0600
0600
0600
0E00
0E00
0E00
1C00
ENDCHAR
STARTCHAR bullet
ENCODING 8226
SWIDTH 500 0
DWIDTH 17 0
BBX 11 11 5 6
BITMAP
0E00
3F80
7FC0
7FC0
FFE0
FFE0
FFE0
7FC0
7FC0
3F80
0E00
ENDCHAR
STARTCHAR ellipsis
ENCODING 8230
SWIDTH 1000 0
DWIDTH 33 0
BBX 26 4 4 0
BITMAP
600C0180
F01E03C0
F01E03C0
600C0180
ENDCHAR
STARTCHAR perthousand
ENCODING 8240
SWIDTH 1200 0
DWIDTH 40 0
BBX 36 24 4 -1
BITMAP
0780060000
1CE00C0000
387FF80000
7070300000
7070300000
7070600000
E070C00000
E061800000
E0E3000000
60E6000000
61CC000000
73987803C0
1E19CE0C60
0033861860
0067073870
00C7073870
018E077070
030E077070
060E0E7060
040E0E70E0
0C061C30C0
1807383180
3001E01E00
2000000000
ENDCHAR
STARTCHAR guilsinglleft
ENCODING 8249
SWIDTH 277 0
DWIDTH 9 0
BBX 7 13 3 1
BITMAP
02
04
0C
18
30
70
E0
60
70
30
10
18
08
ENDCHAR
STARTCHAR guilsinglright
ENCODING 8250
SWIDTH 277 0
DWIDTH 9 0
BBX 7 13 2 1
BITMAP
20
30
10
18
1C
0C
0E
1C
18
30
60
40
80
ENDCHAR
STARTCHAR fraction
ENCODING 8260
SWIDTH 100 0
DWIDTH 3 0
BBX 19 24 -6 0
BITMAP
000020
000060
0000C0
0000C0
000180
000300
000600
000400
000C00
001800
003000
002000
004000
00C000
018000
030000
020000
060000
0C0000
180000
100000
200000
600000
C00000
ENDCHAR
STARTCHAR oneinferior
ENCODING 8321
SWIDTH 370 0
DWIDTH 12 0
BBX 8 14 4 -8
BITMAP
07
1F
06
06
06
0E
0E
0C
0C
0C
1C
1C
18
FF
ENDCHAR
STARTCHAR twoinferior
ENCODING 8322
SWIDTH 370 0
DWIDTH 12 0
BBX 13 14 2 -8
BITMAP
03C0
0E70
0C38
1838
0038
0070
00F0
01C0
0700
0C00
1000
3030
7FE0
FFE0
ENDCHAR
STARTCHAR threeinferior
ENCODING 8323
SWIDTH 370 0
DWIDTH 12 0
BBX 11 14 3 -8
BITMAP
0700
18C0
30C0
20E0
00C0
01C0
1F00
0100
0180
01C0
C1C0
C180
6780
1E00
ENDCHAR
STARTCHAR uni20A5
ENCODING 8357
SWIDTH 912 0
DWIDTH 30 0
BBX 27 24 4 -3
BITMAP
00006000
0000C000
0000C000
0001C000
0E0F8380
7E3F8FC0
1C47B1C0
1C8721C0
1D0741C0
1A078180
3E0F8380
3C0F0380
380E0380
380E0700
701C0700
701C0700
701C0620
60380E40
E0380EC0
E0380F80
C0700600
00600000
00600000
00C00000
ENDCHAR
STARTCHAR uni20A6
ENCODING 8358
SWIDTH 763 0
DWIDTH 25 0
BBX 29 24 1 0
BITMAP
07E007F8
00F001C0
00F00180
00F80180
00B80180
013C0180
011C0100
01FFFF00
01FFFF00
030E0300
030F0200
02070200
02078600
02038600
07FFFE00
07FFFE00
0601C400
0401EC00
0C00EC00
0C00F800
0C007800
0C007800
1C003800
FF003800
ENDCHAR
STARTCHAR uni20A9
ENCODING 8361
SWIDTH 946 0
DWIDTH 32 0
BBX 33 24 4 0
BITMAP
FF80007F80
3C00E00E00
3C00E00C00
1C01E01800
1C01E01800
1C02E03000
1C02E03000
1C7FFFA000
1C7FFFE000
1C08E04000
1C08E0C000
1E10E08000
1E10E18000
1E20E18000
1E7FFF8000
1E7FFF8000
1E40720000
0E80760000
0E80740000
0F007C0000
0F00780000
0E00780000
0E00700000
0C00700000
ENDCHAR
STARTCHAR Euro
ENCODING 8364
SWIDTH 661 0
DWIDTH 22 0
BBX 25 24 0 0
BITMAP
0003FC00
001E0780
00380380
00F00180
00E00100
01C00100
03C00100
FFFF0000
FFFF0000
07800000
07000000
0F000000
0F000000
0F000000
FFFF0000
FFFF0000
0F000000
07000200
07000400
03800C00
03800C00
01C01800
00707800
000FE000
ENDCHAR
STARTCHAR uni20AD
ENCODING 8365
SWIDTH 650 0
DWIDTH 22 0
BBX 26 24 1 0
BITMAP
07FC7FC0
01E01E00
01E03800
01C07000
01C0C000
01C18000
01C30000
03860000
038C0000
03B00000
03F00000
FFFFFFC0
FFFFFFC0
07380000
073C0000
071C0000
0F1E0000
0E0F0000
0E0F0000
0E078000
0E038000
1E03C000
1E01F000
FF807800
ENDCHAR
STARTCHAR uni2103
ENCODING 8451
SWIDTH 1041 0
DWIDTH 34 0
BBX 31 24 6 0
BITMAP
00000FF0
1E00781E
3F00E00E
6183C006
E1C38004
C0C70004
C0CF0004
E1CF0000
619E0000
3F1E0000
1E1C0000
003C0000
003C0000
003C0000
003C0000
003C0000
003C0000
001C0008
001C0010
000E0030
000E0030
00070060
0001C1E0
00003F80
ENDCHAR
STARTCHAR uni2109
ENCODING 8457
SWIDTH 951 0
DWIDTH 31 0
BBX 29 24 6 0
BITMAP
000FFFF8
1E01C038
3F01C018
6181C010
E1C1C010
C0C38010
C0C38000
E1C38000
61838000
3F038080
1E070080
00070180
0007FF80
00070300
000F0100
000E0100
000E0000
000E0000
000E0000
001C0000
001C0000
001C0000
001C0000
00FF8000
ENDCHAR
STARTCHAR trademark
ENCODING 8482
SWIDTH 1100 0
DWIDTH 37 0
BBX 34 15 4 9
BITMAP
FFFBE00FC0
C718F00F00
8708F01F00
8708B81700
0700B83700
07009C2700
07009C6700
07008C6700
07008E4700
07008EC700
0700878700
0700878700
0700830700
0700830700
1FC3E11FC0
ENDCHAR
STARTCHAR uni212A
ENCODING 8490
SWIDTH 650 0
DWIDTH 22 0
BBX 26 24 1 0
BITMAP
07FC7FC0
01E01E00
01E03800
01C07000
01C0C000
01C18000
01C30000
03860000
038C0000
03B00000
03F00000
03F00000
07F80000
07380000
073C0000
071C0000
0F1E0000
0E0F0000
0E0F0000
0E078000
0E038000
1E03C000
1E01F000
FF807800
ENDCHAR
STARTCHAR uni212B
ENCODING 8491
SWIDTH 624 0
DWIDTH 21 0
BBX 23 29 -1 0
BITMAP
0001E0
000310
000618
000618
000630
0003E0
0001C0
0003C0
0007E0
0005E0
000DE0
0009E0
0018E0
0010E0
0030E0
0020E0
0060F0
00C0F0
00C0F0
01FFF0
010070
030070
020070
060070
0C0078
0C0078
180038
380078
FE03FE
ENDCHAR
STARTCHAR uni2132
ENCODING 8498
SWIDTH 571 0
DWIDTH 19 0
BBX 21 24 2 0
BITMAP
000FF8
0001C0
0001C0
0001C0
0001C0
000380
000380
000380
040380
040780
060700
0FFF00
0C0700
080700
080E00
000E00
000E00
000E00
400E00
401C00
401C00
C01C00
E01C00
FFFF80
ENDCHAR
STARTCHAR minus
ENCODING 8722
SWIDTH 570 0
DWIDTH 19 0
BBX 16 2 3 7
BITMAP
FFFF
FFFF
ENDCHAR
STARTCHAR fraction
ENCODING 8725
SWIDTH 100 0
DWIDTH 3 0
BBX 19 24 -6 0
BITMAP
000020
000060
0000C0
0000C0
000180
000300
000600
000400
000C00
001800
003000
002000
004000
00C000
018000
030000
020000
060000
0C0000
180000
100000
200000
600000
C00000
ENDCHAR
STARTCHAR periodcentered
ENCODING 8729
SWIDTH 265 0
DWIDTH 9 0
BBX 4 4 4 6
BITMAP
60
F0
F0
60
ENDCHAR
STARTCHAR uni2236
ENCODING 8758
SWIDTH 265 0
DWIDTH 9 0
BBX 7 17 3 0
BITMAP
0C
1E
1E
1C
00
00
00
00
00
00
00
00
00
70
F0
F0
60
ENDCHAR
STARTCHAR uni2259
ENCODING 8793
SWIDTH 570 0
DWIDTH 19 0
BBX 16 16 3 4
BITMAP
0080
01C0
03E0
0670
0C10
1008
0000
FFFF
FFFF
0000
0000
0000
0000
0000
FFFF
FFFF
ENDCHAR
STARTCHAR uni225A
ENCODING 8794
SWIDTH 570 0
DWIDTH 19 0
BBX 16 16 3 4
BITMAP
1008
0830
0E60
07C0
0380
0100
0000
FFFF
FFFF
0000
0000
0000
0000
0000
FFFF
FFFF
ENDCHAR
STARTCHAR notequal
ENCODING 8800
SWIDTH 570 0
DWIDTH 19 0
BBX 16 24 3 -3
BITMAP
000C
0018
0018
0038
0030
0030
0070
0060
FFFF
FFFF
00C0
00C0
0180
0180
0380
FFFF
FFFF
0700
0600
0600
0E00
0C00
0C00
1800
ENDCHAR
STARTCHAR equivalence
ENCODING 8801
SWIDTH 570 0
DWIDTH 19 0
BBX 16 8 0 4
BITMAP
FFFF
FFFF
0000
FFFF
FFFF
0000
FFFF
FFFF
ENDCHAR
STARTCHAR uni2262
ENCODING 8802
SWIDTH 570 0
DWIDTH 19 0
BBX 16 24 0 -4
BITMAP
000C
0018
0018
0038
0030
0030
0070
0060
FFFF
FFFF
00C0
FFFF
FFFF
0180
FFFF
FFFF
0300
0700
0600
0600
0E00
0C00
0C00
1800
ENDCHAR
STARTCHAR lessequal
ENCODING 8804
SWIDTH 570 0
DWIDTH 19 0
BBX 16 20 3 -3
BITMAP
0001
0007
001F
00FC
03E0
0F80
3E00
F000
C000
F000
7C00
0F80
03E0
00F8
001F
0007
0001
0000
FFFF
FFFF
ENDCHAR
STARTCHAR greaterequal
ENCODING 8805
SWIDTH 570 0
DWIDTH 19 0
BBX 16 20 3 -3
BITMAP
8000
E000
F800
3F00
07C0
01F0
007C
000F
0003
000F
003E
01F0
07C0
1F00
F800
E000
8000
0000
FFFF
FFFF
ENDCHAR
STARTCHAR uni226E
ENCODING 8814
SWIDTH 570 0
DWIDTH 19 0
BBX 16 24 3 -3
BITMAP
000C
0018
0018
0038
0031
0037
007F
00FC
03E0
0FE0
3EC0
F0C0
C180
F180
7F80
0F80
03E0
07F8
061F
0607
0E01
0C00
0C00
1800
ENDCHAR
STARTCHAR uni226F
ENCODING 8815
SWIDTH 570 0
DWIDTH 19 0
BBX 16 24 3 -3
BITMAP
000C
0018
0018
0038
8030
E030
F870
3F60
07E0
01F0
00FC
00CF
0183
018F
03BE
03F0
07C0
1F00
FE00
E600
8E00
0C00
0C00
1800
ENDCHAR
STARTCHAR uni2270
ENCODING 8816
SWIDTH 570 0
DWIDTH 19 0
BBX 16 24 3 -5
BITMAP
000C
0018
0019
003F
003F
00FC
03F0
0FE0
3E60
F0E0
C0C0
F0C0
7D80
0F80
03E0
03F8
031F
0707
0601
0600
FFFF
FFFF
0C00
1800
ENDCHAR
STARTCHAR uni2271
ENCODING 8817
SWIDTH 570 0
DWIDTH 19 0
BBX 16 24 3 -5
BITMAP
000C
0018
8018
E038
F830
3F30
07F0
01F0
007C
00EF
00C3
00CF
01BE
01F0
07C0
1F00
FB00
E700
8600
0600
FFFF
FFFF
0C00
1800
ENDCHAR
STARTCHAR fi
ENCODING -1
SWIDTH 607 0
DWIDTH 20 0
BBX 24 33 -3 -8
BITMAP
0001F0
00071E
000E0F
000C07
001C06
001C00
003800
003800
03FFFE
00701E
00701E
00701C
00701C
00F03C
00E038
00E038
00E038
00E070
00C070
01C071
01C063
01C0E2
01C0E4
0180F8
038070
038000
030000
030000
030000
460000
660000
F40000
780000
ENDCHAR
STARTCHAR fl
ENCODING -1
SWIDTH 603 0
DWIDTH 20 0
BBX 24 33 -2 -8
BITMAP
0001E1
00061F
000C0F
001C0F
001C0E
00380E
00380E
00780E
03FF9C
00701C
00701C
00701C
00E038
00E038
00E038
00E038
00E070
01C070
01C070
01C072
01C0E2
0180E4
0380EC
0380F8
038060
030000
030000
030000
060000
460000
C60000
E40000
780000
ENDCHAR
ENDFONT
